%TF.GenerationSoftware,KiCad,Pcbnew,9.0.1*%
%TF.CreationDate,2025-05-28T21:14:19+10:00*%
%TF.ProjectId,macroCAD,6d616372-6f43-4414-942e-6b696361645f,rev?*%
%TF.SameCoordinates,Original*%
%TF.FileFunction,Soldermask,Top*%
%TF.FilePolarity,Negative*%
%FSLAX46Y46*%
G04 Gerber Fmt 4.6, Leading zero omitted, Abs format (unit mm)*
G04 Created by KiCad (PCBNEW 9.0.1) date 2025-05-28 21:14:19*
%MOMM*%
%LPD*%
G01*
G04 APERTURE LIST*
%ADD10C,1.701800*%
%ADD11C,3.000000*%
%ADD12C,3.987800*%
%ADD13C,2.100000*%
G04 APERTURE END LIST*
D10*
%TO.C,SW1*%
X74920000Y-30000000D03*
D11*
X76190000Y-27460000D03*
D12*
X80000000Y-30000000D03*
D11*
X82540000Y-24920000D03*
D10*
X85080000Y-30000000D03*
%TD*%
D13*
%TO.C,REF\u002A\u002A*%
X71500000Y-22000000D03*
%TD*%
D10*
%TO.C,SW5*%
X74920000Y-50000000D03*
D11*
X76190000Y-47460000D03*
D12*
X80000000Y-50000000D03*
D11*
X82540000Y-44920000D03*
D10*
X85080000Y-50000000D03*
%TD*%
%TO.C,SW2*%
X94920000Y-30000000D03*
D11*
X96190000Y-27460000D03*
D12*
X100000000Y-30000000D03*
D11*
X102540000Y-24920000D03*
D10*
X105080000Y-30000000D03*
%TD*%
%TO.C,SW6*%
X94920000Y-50000000D03*
D11*
X96190000Y-47460000D03*
D12*
X100000000Y-50000000D03*
D11*
X102540000Y-44920000D03*
D10*
X105080000Y-50000000D03*
%TD*%
D13*
%TO.C,REF\u002A\u002A*%
X130000000Y-43250000D03*
%TD*%
%TO.C,REF\u002A\u002A*%
X71500000Y-61000000D03*
%TD*%
D10*
%TO.C,SW4*%
X134920000Y-30000000D03*
D11*
X136190000Y-27460000D03*
D12*
X140000000Y-30000000D03*
D11*
X142540000Y-24920000D03*
D10*
X145080000Y-30000000D03*
%TD*%
%TO.C,SW3*%
X114920000Y-30000000D03*
D11*
X116190000Y-27460000D03*
D12*
X120000000Y-30000000D03*
D11*
X122540000Y-24920000D03*
D10*
X125080000Y-30000000D03*
%TD*%
%TO.C,SW9*%
X74920000Y-72000000D03*
D11*
X76190000Y-69460000D03*
D12*
X80000000Y-72000000D03*
D11*
X82540000Y-66920000D03*
D10*
X85080000Y-72000000D03*
%TD*%
D13*
%TO.C,REF\u002A\u002A*%
X118500000Y-64000000D03*
%TD*%
%TO.C,REF\u002A\u002A*%
X130000000Y-22000000D03*
%TD*%
%TO.C,REF\u002A\u002A*%
X71500000Y-80250000D03*
%TD*%
D10*
%TO.C,SW8*%
X134920000Y-50000000D03*
D11*
X136190000Y-47460000D03*
D12*
X140000000Y-50000000D03*
D11*
X142540000Y-44920000D03*
D10*
X145080000Y-50000000D03*
%TD*%
%TO.C,SW7*%
X114920000Y-50000000D03*
D11*
X116190000Y-47460000D03*
D12*
X120000000Y-50000000D03*
D11*
X122540000Y-44920000D03*
D10*
X125080000Y-50000000D03*
%TD*%
%TO.C,SW10*%
X94920000Y-72000000D03*
D11*
X96190000Y-69460000D03*
D12*
X100000000Y-72000000D03*
D11*
X102540000Y-66920000D03*
D10*
X105080000Y-72000000D03*
%TD*%
M02*
