%TF.GenerationSoftware,KiCad,Pcbnew,9.0.1*%
%TF.CreationDate,2025-05-28T15:02:46+10:00*%
%TF.ProjectId,macroCAD,6d616372-6f43-4414-942e-6b696361645f,rev?*%
%TF.SameCoordinates,Original*%
%TF.FileFunction,Soldermask,Bot*%
%TF.FilePolarity,Negative*%
%FSLAX46Y46*%
G04 Gerber Fmt 4.6, Leading zero omitted, Abs format (unit mm)*
G04 Created by KiCad (PCBNEW 9.0.1) date 2025-05-28 15:02:46*
%MOMM*%
%LPD*%
G01*
G04 APERTURE LIST*
G04 Aperture macros list*
%AMRoundRect*
0 Rectangle with rounded corners*
0 $1 Rounding radius*
0 $2 $3 $4 $5 $6 $7 $8 $9 X,Y pos of 4 corners*
0 Add a 4 corners polygon primitive as box body*
4,1,4,$2,$3,$4,$5,$6,$7,$8,$9,$2,$3,0*
0 Add four circle primitives for the rounded corners*
1,1,$1+$1,$2,$3*
1,1,$1+$1,$4,$5*
1,1,$1+$1,$6,$7*
1,1,$1+$1,$8,$9*
0 Add four rect primitives between the rounded corners*
20,1,$1+$1,$2,$3,$4,$5,0*
20,1,$1+$1,$4,$5,$6,$7,0*
20,1,$1+$1,$6,$7,$8,$9,0*
20,1,$1+$1,$8,$9,$2,$3,0*%
G04 Aperture macros list end*
%ADD10C,1.701800*%
%ADD11C,3.000000*%
%ADD12C,3.987800*%
%ADD13R,2.550000X2.500000*%
%ADD14C,2.100000*%
%ADD15RoundRect,0.225000X0.375000X-0.225000X0.375000X0.225000X-0.375000X0.225000X-0.375000X-0.225000X0*%
%ADD16RoundRect,0.525400X0.525400X-0.900400X0.525400X0.900400X-0.525400X0.900400X-0.525400X-0.900400X0*%
%ADD17RoundRect,0.275000X0.975000X0.275000X-0.975000X0.275000X-0.975000X-0.275000X0.975000X-0.275000X0*%
%ADD18C,1.700000*%
G04 APERTURE END LIST*
D10*
%TO.C,SW1*%
X74920000Y-30000000D03*
D11*
X76190000Y-27460000D03*
D12*
X80000000Y-30000000D03*
D11*
X82540000Y-24920000D03*
D10*
X85080000Y-30000000D03*
D13*
X86290000Y-24920000D03*
X72440000Y-27460000D03*
%TD*%
D14*
%TO.C,REF\u002A\u002A*%
X71500000Y-22000000D03*
%TD*%
D10*
%TO.C,SW5*%
X74920000Y-50000000D03*
D11*
X76190000Y-47460000D03*
D12*
X80000000Y-50000000D03*
D11*
X82540000Y-44920000D03*
D10*
X85080000Y-50000000D03*
D13*
X86290000Y-44920000D03*
X72440000Y-47460000D03*
%TD*%
D10*
%TO.C,SW2*%
X94920000Y-30000000D03*
D11*
X96190000Y-27460000D03*
D12*
X100000000Y-30000000D03*
D11*
X102540000Y-24920000D03*
D10*
X105080000Y-30000000D03*
D13*
X106290000Y-24920000D03*
X92440000Y-27460000D03*
%TD*%
D10*
%TO.C,SW6*%
X94920000Y-50000000D03*
D11*
X96190000Y-47460000D03*
D12*
X100000000Y-50000000D03*
D11*
X102540000Y-44920000D03*
D10*
X105080000Y-50000000D03*
D13*
X106290000Y-44920000D03*
X92440000Y-47460000D03*
%TD*%
D14*
%TO.C,REF\u002A\u002A*%
X130000000Y-43250000D03*
%TD*%
%TO.C,REF\u002A\u002A*%
X71500000Y-61000000D03*
%TD*%
D10*
%TO.C,SW4*%
X134920000Y-30000000D03*
D11*
X136190000Y-27460000D03*
D12*
X140000000Y-30000000D03*
D11*
X142540000Y-24920000D03*
D10*
X145080000Y-30000000D03*
D13*
X146290000Y-24920000D03*
X132440000Y-27460000D03*
%TD*%
D10*
%TO.C,SW3*%
X114920000Y-30000000D03*
D11*
X116190000Y-27460000D03*
D12*
X120000000Y-30000000D03*
D11*
X122540000Y-24920000D03*
D10*
X125080000Y-30000000D03*
D13*
X126290000Y-24920000D03*
X112440000Y-27460000D03*
%TD*%
D10*
%TO.C,SW9*%
X74920000Y-72000000D03*
D11*
X76190000Y-69460000D03*
D12*
X80000000Y-72000000D03*
D11*
X82540000Y-66920000D03*
D10*
X85080000Y-72000000D03*
D13*
X86290000Y-66920000D03*
X72440000Y-69460000D03*
%TD*%
D14*
%TO.C,REF\u002A\u002A*%
X118500000Y-64000000D03*
%TD*%
%TO.C,REF\u002A\u002A*%
X130000000Y-22000000D03*
%TD*%
%TO.C,REF\u002A\u002A*%
X71500000Y-80250000D03*
%TD*%
D10*
%TO.C,SW8*%
X134920000Y-50000000D03*
D11*
X136190000Y-47460000D03*
D12*
X140000000Y-50000000D03*
D11*
X142540000Y-44920000D03*
D10*
X145080000Y-50000000D03*
D13*
X146290000Y-44920000D03*
X132440000Y-47460000D03*
%TD*%
D10*
%TO.C,SW7*%
X114920000Y-50000000D03*
D11*
X116190000Y-47460000D03*
D12*
X120000000Y-50000000D03*
D11*
X122540000Y-44920000D03*
D10*
X125080000Y-50000000D03*
D13*
X126290000Y-44920000D03*
X112440000Y-47460000D03*
%TD*%
D10*
%TO.C,SW10*%
X94920000Y-72000000D03*
D11*
X96190000Y-69460000D03*
D12*
X100000000Y-72000000D03*
D11*
X102540000Y-66920000D03*
D10*
X105080000Y-72000000D03*
D13*
X106290000Y-66920000D03*
X92440000Y-69460000D03*
%TD*%
D15*
%TO.C,D3*%
X111000000Y-36650000D03*
X111000000Y-33350000D03*
%TD*%
%TO.C,D2*%
X91000000Y-36650000D03*
X91000000Y-33350000D03*
%TD*%
%TO.C,D9*%
X71000000Y-76150000D03*
X71000000Y-72850000D03*
%TD*%
%TO.C,D7*%
X111000000Y-56650000D03*
X111000000Y-53350000D03*
%TD*%
%TO.C,D10*%
X91000000Y-76650000D03*
X91000000Y-73350000D03*
%TD*%
D16*
%TO.C,U1*%
X147389750Y-79245500D03*
X144849750Y-79245500D03*
X142309750Y-79245500D03*
X139769750Y-79245500D03*
X137229750Y-79245500D03*
X134689750Y-79245500D03*
X132149750Y-79245500D03*
X132149750Y-63080500D03*
X134689750Y-63080500D03*
X137229750Y-63080500D03*
X139769750Y-63080500D03*
X142309750Y-63080500D03*
X144849750Y-63080500D03*
X147389750Y-63080500D03*
D17*
X131129750Y-72333500D03*
X131129750Y-69793500D03*
D18*
X148147750Y-72333500D03*
X148147750Y-69793500D03*
X145607750Y-72333500D03*
X145607750Y-69793500D03*
%TD*%
D15*
%TO.C,D5*%
X71000000Y-56650000D03*
X71000000Y-53350000D03*
%TD*%
%TO.C,D4*%
X131000000Y-36650000D03*
X131000000Y-33350000D03*
%TD*%
%TO.C,D6*%
X91000000Y-56650000D03*
X91000000Y-53350000D03*
%TD*%
%TO.C,D1*%
X71000000Y-36650000D03*
X71000000Y-33350000D03*
%TD*%
%TO.C,D8*%
X131000000Y-56650000D03*
X131000000Y-53350000D03*
%TD*%
M02*
