M48
; DRILL file {KiCad 9.0.1} date 2025-05-28T21:14:17+1000
; FORMAT={-:-/ absolute / metric / decimal}
; #@! TF.CreationDate,2025-05-28T21:14:17+10:00
; #@! TF.GenerationSoftware,Kicad,Pcbnew,9.0.1
; #@! TF.FileFunction,NonPlated,1,2,NPTH
FMAT,2
METRIC
; #@! TA.AperFunction,NonPlated,NPTH,ComponentDrill
T1C1.702
; #@! TA.AperFunction,NonPlated,NPTH,ComponentDrill
T2C2.100
; #@! TA.AperFunction,NonPlated,NPTH,ComponentDrill
T3C3.000
; #@! TA.AperFunction,NonPlated,NPTH,ComponentDrill
T4C3.988
%
G90
G05
T1
X74.92Y-30.0
X74.92Y-50.0
X74.92Y-72.0
X85.08Y-30.0
X85.08Y-50.0
X85.08Y-72.0
X94.92Y-30.0
X94.92Y-50.0
X94.92Y-72.0
X105.08Y-30.0
X105.08Y-50.0
X105.08Y-72.0
X114.92Y-30.0
X114.92Y-50.0
X125.08Y-30.0
X125.08Y-50.0
X134.92Y-30.0
X134.92Y-50.0
X145.08Y-30.0
X145.08Y-50.0
T2
X71.5Y-22.0
X71.5Y-61.0
X71.5Y-80.25
X118.5Y-64.0
X130.0Y-22.0
X130.0Y-43.25
T3
X76.19Y-27.46
X76.19Y-47.46
X76.19Y-69.46
X82.54Y-24.92
X82.54Y-44.92
X82.54Y-66.92
X96.19Y-27.46
X96.19Y-47.46
X96.19Y-69.46
X102.54Y-24.92
X102.54Y-44.92
X102.54Y-66.92
X116.19Y-27.46
X116.19Y-47.46
X122.54Y-24.92
X122.54Y-44.92
X136.19Y-27.46
X136.19Y-47.46
X142.54Y-24.92
X142.54Y-44.92
T4
X80.0Y-30.0
X80.0Y-50.0
X80.0Y-72.0
X100.0Y-30.0
X100.0Y-50.0
X100.0Y-72.0
X120.0Y-30.0
X120.0Y-50.0
X140.0Y-30.0
X140.0Y-50.0
M30
