%TF.GenerationSoftware,KiCad,Pcbnew,9.0.1*%
%TF.CreationDate,2025-05-28T15:02:46+10:00*%
%TF.ProjectId,macroCAD,6d616372-6f43-4414-942e-6b696361645f,rev?*%
%TF.SameCoordinates,Original*%
%TF.FileFunction,Copper,L2,Bot*%
%TF.FilePolarity,Positive*%
%FSLAX46Y46*%
G04 Gerber Fmt 4.6, Leading zero omitted, Abs format (unit mm)*
G04 Created by KiCad (PCBNEW 9.0.1) date 2025-05-28 15:02:46*
%MOMM*%
%LPD*%
G01*
G04 APERTURE LIST*
G04 Aperture macros list*
%AMRoundRect*
0 Rectangle with rounded corners*
0 $1 Rounding radius*
0 $2 $3 $4 $5 $6 $7 $8 $9 X,Y pos of 4 corners*
0 Add a 4 corners polygon primitive as box body*
4,1,4,$2,$3,$4,$5,$6,$7,$8,$9,$2,$3,0*
0 Add four circle primitives for the rounded corners*
1,1,$1+$1,$2,$3*
1,1,$1+$1,$4,$5*
1,1,$1+$1,$6,$7*
1,1,$1+$1,$8,$9*
0 Add four rect primitives between the rounded corners*
20,1,$1+$1,$2,$3,$4,$5,0*
20,1,$1+$1,$4,$5,$6,$7,0*
20,1,$1+$1,$6,$7,$8,$9,0*
20,1,$1+$1,$8,$9,$2,$3,0*%
G04 Aperture macros list end*
%TA.AperFunction,SMDPad,CuDef*%
%ADD10R,2.550000X2.500000*%
%TD*%
%TA.AperFunction,SMDPad,CuDef*%
%ADD11RoundRect,0.225000X0.375000X-0.225000X0.375000X0.225000X-0.375000X0.225000X-0.375000X-0.225000X0*%
%TD*%
%TA.AperFunction,SMDPad,CuDef*%
%ADD12RoundRect,0.500000X0.500000X-0.875000X0.500000X0.875000X-0.500000X0.875000X-0.500000X-0.875000X0*%
%TD*%
%TA.AperFunction,SMDPad,CuDef*%
%ADD13RoundRect,0.275000X0.975000X0.275000X-0.975000X0.275000X-0.975000X-0.275000X0.975000X-0.275000X0*%
%TD*%
%TA.AperFunction,SMDPad,CuDef*%
%ADD14C,1.700000*%
%TD*%
%TA.AperFunction,ViaPad*%
%ADD15C,0.600000*%
%TD*%
%TA.AperFunction,Conductor*%
%ADD16C,0.200000*%
%TD*%
G04 APERTURE END LIST*
D10*
%TO.P,SW1,1,1*%
%TO.N,COL_1*%
X86290000Y-24920000D03*
%TO.P,SW1,2,2*%
%TO.N,Net-(D1-A)*%
X72440000Y-27460000D03*
%TD*%
%TO.P,SW5,1,1*%
%TO.N,COL_5*%
X86290000Y-44920000D03*
%TO.P,SW5,2,2*%
%TO.N,Net-(D5-A)*%
X72440000Y-47460000D03*
%TD*%
%TO.P,SW2,1,1*%
%TO.N,COL_2*%
X106290000Y-24920000D03*
%TO.P,SW2,2,2*%
%TO.N,Net-(D2-A)*%
X92440000Y-27460000D03*
%TD*%
%TO.P,SW6,1,1*%
%TO.N,COL_1*%
X106290000Y-44920000D03*
%TO.P,SW6,2,2*%
%TO.N,Net-(D6-A)*%
X92440000Y-47460000D03*
%TD*%
%TO.P,SW4,1,1*%
%TO.N,COL_4*%
X146290000Y-24920000D03*
%TO.P,SW4,2,2*%
%TO.N,Net-(D4-A)*%
X132440000Y-27460000D03*
%TD*%
%TO.P,SW3,1,1*%
%TO.N,COL_3*%
X126290000Y-24920000D03*
%TO.P,SW3,2,2*%
%TO.N,Net-(D3-A)*%
X112440000Y-27460000D03*
%TD*%
%TO.P,SW9,1,1*%
%TO.N,COL_4*%
X86290000Y-66920000D03*
%TO.P,SW9,2,2*%
%TO.N,Net-(D9-A)*%
X72440000Y-69460000D03*
%TD*%
%TO.P,SW8,1,1*%
%TO.N,COL_3*%
X146290000Y-44920000D03*
%TO.P,SW8,2,2*%
%TO.N,Net-(D8-A)*%
X132440000Y-47460000D03*
%TD*%
%TO.P,SW7,1,1*%
%TO.N,COL_2*%
X126290000Y-44920000D03*
%TO.P,SW7,2,2*%
%TO.N,Net-(D7-A)*%
X112440000Y-47460000D03*
%TD*%
%TO.P,SW10,1,1*%
%TO.N,COL_5*%
X106290000Y-66920000D03*
%TO.P,SW10,2,2*%
%TO.N,Net-(D10-A)*%
X92440000Y-69460000D03*
%TD*%
D11*
%TO.P,D3,1,K*%
%TO.N,ROW_1*%
X111000000Y-36650000D03*
%TO.P,D3,2,A*%
%TO.N,Net-(D3-A)*%
X111000000Y-33350000D03*
%TD*%
%TO.P,D2,1,K*%
%TO.N,ROW_1*%
X91000000Y-36650000D03*
%TO.P,D2,2,A*%
%TO.N,Net-(D2-A)*%
X91000000Y-33350000D03*
%TD*%
%TO.P,D9,1,K*%
%TO.N,ROW_2*%
X71000000Y-76150000D03*
%TO.P,D9,2,A*%
%TO.N,Net-(D9-A)*%
X71000000Y-72850000D03*
%TD*%
%TO.P,D7,1,K*%
%TO.N,ROW_2*%
X111000000Y-56650000D03*
%TO.P,D7,2,A*%
%TO.N,Net-(D7-A)*%
X111000000Y-53350000D03*
%TD*%
%TO.P,D10,1,K*%
%TO.N,ROW_2*%
X91000000Y-76650000D03*
%TO.P,D10,2,A*%
%TO.N,Net-(D10-A)*%
X91000000Y-73350000D03*
%TD*%
D12*
%TO.P,U1,1,GPIO26_A0_D0*%
%TO.N,ROW_1*%
X147389750Y-79245500D03*
%TO.P,U1,2,GPIO27_A1_D1*%
%TO.N,ROW_2*%
X144849750Y-79245500D03*
%TO.P,U1,3,GPIO28_A2_D2*%
%TO.N,COL_1*%
X142309750Y-79245500D03*
%TO.P,U1,4,GPIO29_A3_D3*%
%TO.N,COL_2*%
X139769750Y-79245500D03*
%TO.P,U1,5,GPIO6_D4_SDA*%
%TO.N,COL_3*%
X137229750Y-79245500D03*
%TO.P,U1,6,GPIO7_D5_SCL*%
%TO.N,COL_4*%
X134689750Y-79245500D03*
%TO.P,U1,7,GPIO0_D6_TX*%
%TO.N,COL_5*%
X132149750Y-79245500D03*
%TO.P,U1,8,GPIO1_D7_CSn_RX*%
%TO.N,unconnected-(U1-GPIO1_D7_CSn_RX-Pad8)*%
X132149750Y-63080500D03*
%TO.P,U1,9,GPIO2_D8_SCK*%
%TO.N,unconnected-(U1-GPIO2_D8_SCK-Pad9)*%
X134689750Y-63080500D03*
%TO.P,U1,10,GPIO4_D9_MISO*%
%TO.N,unconnected-(U1-GPIO4_D9_MISO-Pad10)*%
X137229750Y-63080500D03*
%TO.P,U1,11,GPIO3_D10_MOSI*%
%TO.N,unconnected-(U1-GPIO3_D10_MOSI-Pad11)*%
X139769750Y-63080500D03*
%TO.P,U1,12,3V3*%
%TO.N,unconnected-(U1-3V3-Pad12)*%
X142309750Y-63080500D03*
%TO.P,U1,13,GND*%
%TO.N,GND*%
X144849750Y-63080500D03*
%TO.P,U1,14,5V*%
%TO.N,unconnected-(U1-5V-Pad14)*%
X147389750Y-63080500D03*
D13*
%TO.P,U1,15,BAT*%
%TO.N,unconnected-(U1-BAT-Pad15)*%
X131129750Y-72333500D03*
%TO.P,U1,16,GND*%
%TO.N,unconnected-(U1-GND-Pad16)*%
X131129750Y-69793500D03*
D14*
%TO.P,U1,17,SWDIO*%
%TO.N,unconnected-(U1-SWDIO-Pad17)*%
X148147750Y-72333500D03*
%TO.P,U1,18,SWDCLK*%
%TO.N,unconnected-(U1-SWDCLK-Pad18)*%
X148147750Y-69793500D03*
%TO.P,U1,19,RST*%
%TO.N,unconnected-(U1-RST-Pad19)*%
X145607750Y-72333500D03*
%TO.P,U1,20,GND*%
%TO.N,unconnected-(U1-GND-Pad20)*%
X145607750Y-69793500D03*
%TD*%
D11*
%TO.P,D5,1,K*%
%TO.N,ROW_1*%
X71000000Y-56650000D03*
%TO.P,D5,2,A*%
%TO.N,Net-(D5-A)*%
X71000000Y-53350000D03*
%TD*%
%TO.P,D4,1,K*%
%TO.N,ROW_1*%
X131000000Y-36650000D03*
%TO.P,D4,2,A*%
%TO.N,Net-(D4-A)*%
X131000000Y-33350000D03*
%TD*%
%TO.P,D6,1,K*%
%TO.N,ROW_2*%
X91000000Y-56650000D03*
%TO.P,D6,2,A*%
%TO.N,Net-(D6-A)*%
X91000000Y-53350000D03*
%TD*%
%TO.P,D1,1,K*%
%TO.N,ROW_1*%
X71000000Y-36650000D03*
%TO.P,D1,2,A*%
%TO.N,Net-(D1-A)*%
X71000000Y-33350000D03*
%TD*%
%TO.P,D8,1,K*%
%TO.N,ROW_2*%
X131000000Y-56650000D03*
%TO.P,D8,2,A*%
%TO.N,Net-(D8-A)*%
X131000000Y-53350000D03*
%TD*%
D15*
%TO.N,ROW_1*%
X131750000Y-39250000D03*
X71750000Y-39000000D03*
X111750000Y-39250000D03*
X92000000Y-39250000D03*
X149350000Y-75850000D03*
%TO.N,COL_1*%
X124000000Y-75000000D03*
X141000000Y-76000000D03*
%TO.N,ROW_2*%
X92000000Y-58750000D03*
X144000000Y-81500000D03*
X130250000Y-59250000D03*
X71500000Y-77250000D03*
X91000000Y-78250000D03*
X111000000Y-58750000D03*
%TO.N,COL_2*%
X128000000Y-77000000D03*
X139500000Y-76500000D03*
%TO.N,COL_3*%
X140500000Y-74000000D03*
X147750000Y-48500000D03*
%TD*%
D16*
%TO.N,Net-(D1-A)*%
X71000000Y-33350000D02*
X71000000Y-32250000D01*
X71000000Y-32250000D02*
X72440000Y-30810000D01*
X72440000Y-30810000D02*
X72440000Y-27460000D01*
%TO.N,ROW_1*%
X111000000Y-36650000D02*
X111000000Y-38500000D01*
X91000000Y-38250000D02*
X92000000Y-39250000D01*
X71000000Y-56650000D02*
X70099000Y-55749000D01*
X111000000Y-38500000D02*
X111750000Y-39250000D01*
X70099000Y-40651000D02*
X71750000Y-39000000D01*
X71000000Y-38250000D02*
X71750000Y-39000000D01*
X149350000Y-75850000D02*
X147389750Y-77810250D01*
X131000000Y-36650000D02*
X131000000Y-38500000D01*
X71000000Y-36650000D02*
X71000000Y-38250000D01*
X131000000Y-38500000D02*
X131750000Y-39250000D01*
X147389750Y-77810250D02*
X147389750Y-79245500D01*
X70099000Y-55749000D02*
X70099000Y-40651000D01*
X91000000Y-36650000D02*
X91000000Y-38250000D01*
%TO.N,Net-(D2-A)*%
X91000000Y-33350000D02*
X91000000Y-32000000D01*
X91000000Y-32000000D02*
X92440000Y-30560000D01*
X92440000Y-30560000D02*
X92440000Y-27460000D01*
%TO.N,Net-(D3-A)*%
X111000000Y-33350000D02*
X111000000Y-32000000D01*
X112440000Y-30560000D02*
X112440000Y-27460000D01*
X111000000Y-32000000D02*
X112440000Y-30560000D01*
%TO.N,Net-(D4-A)*%
X131000000Y-31750000D02*
X132440000Y-30310000D01*
X131000000Y-33350000D02*
X131000000Y-31750000D01*
X132440000Y-30310000D02*
X132440000Y-27460000D01*
%TO.N,Net-(D5-A)*%
X72440000Y-50310000D02*
X72440000Y-47460000D01*
X71000000Y-53350000D02*
X71000000Y-51750000D01*
X71000000Y-51750000D02*
X72440000Y-50310000D01*
%TO.N,COL_1*%
X86290000Y-37790000D02*
X89000000Y-40500000D01*
X86290000Y-24920000D02*
X86290000Y-37790000D01*
X103500000Y-40500000D02*
X106290000Y-43290000D01*
X106290000Y-44920000D02*
X106290000Y-57290000D01*
X141000000Y-76000000D02*
X142309750Y-77309750D01*
X106290000Y-57290000D02*
X124000000Y-75000000D01*
X89000000Y-40500000D02*
X103500000Y-40500000D01*
X142309750Y-77309750D02*
X142309750Y-79245500D01*
X106290000Y-43290000D02*
X106290000Y-44920000D01*
%TO.N,Net-(D6-A)*%
X91000000Y-52000000D02*
X92440000Y-50560000D01*
X91000000Y-53350000D02*
X91000000Y-52000000D01*
X92440000Y-50560000D02*
X92440000Y-47460000D01*
%TO.N,Net-(D7-A)*%
X111000000Y-52000000D02*
X112440000Y-50560000D01*
X112440000Y-50560000D02*
X112440000Y-47460000D01*
X111000000Y-53350000D02*
X111000000Y-52000000D01*
%TO.N,Net-(D8-A)*%
X131000000Y-51500000D02*
X132440000Y-50060000D01*
X131000000Y-53350000D02*
X131000000Y-51500000D01*
X132440000Y-50060000D02*
X132440000Y-47460000D01*
%TO.N,Net-(D9-A)*%
X71000000Y-72850000D02*
X71000000Y-72750000D01*
X72440000Y-71310000D02*
X72440000Y-69460000D01*
X71000000Y-72750000D02*
X72440000Y-71310000D01*
%TO.N,Net-(D10-A)*%
X91000000Y-73350000D02*
X91000000Y-72750000D01*
X92440000Y-71310000D02*
X92440000Y-69460000D01*
X91000000Y-72750000D02*
X92440000Y-71310000D01*
%TO.N,ROW_2*%
X91000000Y-78250000D02*
X91000000Y-76650000D01*
X91000000Y-57750000D02*
X92000000Y-58750000D01*
X144849750Y-80900250D02*
X144250000Y-81500000D01*
X131000000Y-58500000D02*
X130250000Y-59250000D01*
X144849750Y-79245500D02*
X144849750Y-80900250D01*
X144250000Y-81500000D02*
X144000000Y-81500000D01*
X111000000Y-56650000D02*
X111000000Y-58750000D01*
X71500000Y-77250000D02*
X71000000Y-76750000D01*
X71000000Y-76750000D02*
X71000000Y-76150000D01*
X91000000Y-56650000D02*
X91000000Y-57750000D01*
X131000000Y-56650000D02*
X131000000Y-58500000D01*
%TO.N,COL_2*%
X126290000Y-42540000D02*
X126290000Y-44920000D01*
X106290000Y-37790000D02*
X109250000Y-40750000D01*
X139769750Y-76769750D02*
X139769750Y-79245500D01*
X139500000Y-76500000D02*
X139769750Y-76769750D01*
X106290000Y-24920000D02*
X106290000Y-37790000D01*
X126290000Y-44920000D02*
X126290000Y-75290000D01*
X109250000Y-40750000D02*
X124500000Y-40750000D01*
X126290000Y-75290000D02*
X128000000Y-77000000D01*
X124500000Y-40750000D02*
X126290000Y-42540000D01*
%TO.N,COL_3*%
X130000000Y-40750000D02*
X143934100Y-40750000D01*
X137229750Y-77270250D02*
X137229750Y-79245500D01*
X126290000Y-37040000D02*
X130000000Y-40750000D01*
X126290000Y-24920000D02*
X126290000Y-37040000D01*
X146290000Y-47040000D02*
X147750000Y-48500000D01*
X140500000Y-74000000D02*
X137229750Y-77270250D01*
X146290000Y-43105900D02*
X146290000Y-44920000D01*
X146290000Y-44920000D02*
X146290000Y-47040000D01*
X143934100Y-40750000D02*
X146290000Y-43105900D01*
%TO.N,COL_4*%
X87250000Y-70250000D02*
X86290000Y-69290000D01*
X133250000Y-81500000D02*
X92000000Y-81500000D01*
X146290000Y-27210000D02*
X146290000Y-24920000D01*
X87250000Y-76750000D02*
X87250000Y-70250000D01*
X134689750Y-79245500D02*
X134689750Y-77810250D01*
X134689750Y-77810250D02*
X145500000Y-67000000D01*
X134689750Y-80060250D02*
X133250000Y-81500000D01*
X92000000Y-81500000D02*
X87250000Y-76750000D01*
X149500000Y-64750000D02*
X149500000Y-30500000D01*
X145500000Y-67000000D02*
X147250000Y-67000000D01*
X86290000Y-69290000D02*
X86290000Y-66920000D01*
X134689750Y-79245500D02*
X134689750Y-80060250D01*
X149500000Y-30500000D02*
X146250000Y-27250000D01*
X146250000Y-27250000D02*
X146290000Y-27210000D01*
X147250000Y-67000000D02*
X149500000Y-64750000D01*
%TO.N,COL_5*%
X86290000Y-47790000D02*
X88250000Y-49750000D01*
X103000000Y-61000000D02*
X106290000Y-64290000D01*
X132149750Y-79245500D02*
X122245500Y-79245500D01*
X88250000Y-49750000D02*
X88250000Y-58500000D01*
X109920000Y-66920000D02*
X106290000Y-66920000D01*
X90750000Y-61000000D02*
X103000000Y-61000000D01*
X122245500Y-79245500D02*
X109920000Y-66920000D01*
X88250000Y-58500000D02*
X90750000Y-61000000D01*
X106290000Y-64290000D02*
X106290000Y-66920000D01*
X86290000Y-44920000D02*
X86290000Y-47790000D01*
%TD*%
M02*
