%TF.GenerationSoftware,KiCad,Pcbnew,9.0.1*%
%TF.CreationDate,2025-05-28T21:14:19+10:00*%
%TF.ProjectId,macroCAD,6d616372-6f43-4414-942e-6b696361645f,rev?*%
%TF.SameCoordinates,Original*%
%TF.FileFunction,Legend,Bot*%
%TF.FilePolarity,Positive*%
%FSLAX46Y46*%
G04 Gerber Fmt 4.6, Leading zero omitted, Abs format (unit mm)*
G04 Created by KiCad (PCBNEW 9.0.1) date 2025-05-28 21:14:19*
%MOMM*%
%LPD*%
G01*
G04 APERTURE LIST*
%ADD10C,0.150000*%
%ADD11C,0.106680*%
%ADD12C,0.120000*%
%ADD13C,0.100000*%
%ADD14C,0.127000*%
%ADD15C,0.504000*%
G04 APERTURE END LIST*
D10*
X81333332Y-22152200D02*
X81190475Y-22199819D01*
X81190475Y-22199819D02*
X80952380Y-22199819D01*
X80952380Y-22199819D02*
X80857142Y-22152200D01*
X80857142Y-22152200D02*
X80809523Y-22104580D01*
X80809523Y-22104580D02*
X80761904Y-22009342D01*
X80761904Y-22009342D02*
X80761904Y-21914104D01*
X80761904Y-21914104D02*
X80809523Y-21818866D01*
X80809523Y-21818866D02*
X80857142Y-21771247D01*
X80857142Y-21771247D02*
X80952380Y-21723628D01*
X80952380Y-21723628D02*
X81142856Y-21676009D01*
X81142856Y-21676009D02*
X81238094Y-21628390D01*
X81238094Y-21628390D02*
X81285713Y-21580771D01*
X81285713Y-21580771D02*
X81333332Y-21485533D01*
X81333332Y-21485533D02*
X81333332Y-21390295D01*
X81333332Y-21390295D02*
X81285713Y-21295057D01*
X81285713Y-21295057D02*
X81238094Y-21247438D01*
X81238094Y-21247438D02*
X81142856Y-21199819D01*
X81142856Y-21199819D02*
X80904761Y-21199819D01*
X80904761Y-21199819D02*
X80761904Y-21247438D01*
X80428570Y-21199819D02*
X80190475Y-22199819D01*
X80190475Y-22199819D02*
X79999999Y-21485533D01*
X79999999Y-21485533D02*
X79809523Y-22199819D01*
X79809523Y-22199819D02*
X79571428Y-21199819D01*
X78666666Y-22199819D02*
X79238094Y-22199819D01*
X78952380Y-22199819D02*
X78952380Y-21199819D01*
X78952380Y-21199819D02*
X79047618Y-21342676D01*
X79047618Y-21342676D02*
X79142856Y-21437914D01*
X79142856Y-21437914D02*
X79238094Y-21485533D01*
X81333332Y-42152200D02*
X81190475Y-42199819D01*
X81190475Y-42199819D02*
X80952380Y-42199819D01*
X80952380Y-42199819D02*
X80857142Y-42152200D01*
X80857142Y-42152200D02*
X80809523Y-42104580D01*
X80809523Y-42104580D02*
X80761904Y-42009342D01*
X80761904Y-42009342D02*
X80761904Y-41914104D01*
X80761904Y-41914104D02*
X80809523Y-41818866D01*
X80809523Y-41818866D02*
X80857142Y-41771247D01*
X80857142Y-41771247D02*
X80952380Y-41723628D01*
X80952380Y-41723628D02*
X81142856Y-41676009D01*
X81142856Y-41676009D02*
X81238094Y-41628390D01*
X81238094Y-41628390D02*
X81285713Y-41580771D01*
X81285713Y-41580771D02*
X81333332Y-41485533D01*
X81333332Y-41485533D02*
X81333332Y-41390295D01*
X81333332Y-41390295D02*
X81285713Y-41295057D01*
X81285713Y-41295057D02*
X81238094Y-41247438D01*
X81238094Y-41247438D02*
X81142856Y-41199819D01*
X81142856Y-41199819D02*
X80904761Y-41199819D01*
X80904761Y-41199819D02*
X80761904Y-41247438D01*
X80428570Y-41199819D02*
X80190475Y-42199819D01*
X80190475Y-42199819D02*
X79999999Y-41485533D01*
X79999999Y-41485533D02*
X79809523Y-42199819D01*
X79809523Y-42199819D02*
X79571428Y-41199819D01*
X78714285Y-41199819D02*
X79190475Y-41199819D01*
X79190475Y-41199819D02*
X79238094Y-41676009D01*
X79238094Y-41676009D02*
X79190475Y-41628390D01*
X79190475Y-41628390D02*
X79095237Y-41580771D01*
X79095237Y-41580771D02*
X78857142Y-41580771D01*
X78857142Y-41580771D02*
X78761904Y-41628390D01*
X78761904Y-41628390D02*
X78714285Y-41676009D01*
X78714285Y-41676009D02*
X78666666Y-41771247D01*
X78666666Y-41771247D02*
X78666666Y-42009342D01*
X78666666Y-42009342D02*
X78714285Y-42104580D01*
X78714285Y-42104580D02*
X78761904Y-42152200D01*
X78761904Y-42152200D02*
X78857142Y-42199819D01*
X78857142Y-42199819D02*
X79095237Y-42199819D01*
X79095237Y-42199819D02*
X79190475Y-42152200D01*
X79190475Y-42152200D02*
X79238094Y-42104580D01*
X101333332Y-22152200D02*
X101190475Y-22199819D01*
X101190475Y-22199819D02*
X100952380Y-22199819D01*
X100952380Y-22199819D02*
X100857142Y-22152200D01*
X100857142Y-22152200D02*
X100809523Y-22104580D01*
X100809523Y-22104580D02*
X100761904Y-22009342D01*
X100761904Y-22009342D02*
X100761904Y-21914104D01*
X100761904Y-21914104D02*
X100809523Y-21818866D01*
X100809523Y-21818866D02*
X100857142Y-21771247D01*
X100857142Y-21771247D02*
X100952380Y-21723628D01*
X100952380Y-21723628D02*
X101142856Y-21676009D01*
X101142856Y-21676009D02*
X101238094Y-21628390D01*
X101238094Y-21628390D02*
X101285713Y-21580771D01*
X101285713Y-21580771D02*
X101333332Y-21485533D01*
X101333332Y-21485533D02*
X101333332Y-21390295D01*
X101333332Y-21390295D02*
X101285713Y-21295057D01*
X101285713Y-21295057D02*
X101238094Y-21247438D01*
X101238094Y-21247438D02*
X101142856Y-21199819D01*
X101142856Y-21199819D02*
X100904761Y-21199819D01*
X100904761Y-21199819D02*
X100761904Y-21247438D01*
X100428570Y-21199819D02*
X100190475Y-22199819D01*
X100190475Y-22199819D02*
X99999999Y-21485533D01*
X99999999Y-21485533D02*
X99809523Y-22199819D01*
X99809523Y-22199819D02*
X99571428Y-21199819D01*
X99238094Y-21295057D02*
X99190475Y-21247438D01*
X99190475Y-21247438D02*
X99095237Y-21199819D01*
X99095237Y-21199819D02*
X98857142Y-21199819D01*
X98857142Y-21199819D02*
X98761904Y-21247438D01*
X98761904Y-21247438D02*
X98714285Y-21295057D01*
X98714285Y-21295057D02*
X98666666Y-21390295D01*
X98666666Y-21390295D02*
X98666666Y-21485533D01*
X98666666Y-21485533D02*
X98714285Y-21628390D01*
X98714285Y-21628390D02*
X99285713Y-22199819D01*
X99285713Y-22199819D02*
X98666666Y-22199819D01*
X101333332Y-42152200D02*
X101190475Y-42199819D01*
X101190475Y-42199819D02*
X100952380Y-42199819D01*
X100952380Y-42199819D02*
X100857142Y-42152200D01*
X100857142Y-42152200D02*
X100809523Y-42104580D01*
X100809523Y-42104580D02*
X100761904Y-42009342D01*
X100761904Y-42009342D02*
X100761904Y-41914104D01*
X100761904Y-41914104D02*
X100809523Y-41818866D01*
X100809523Y-41818866D02*
X100857142Y-41771247D01*
X100857142Y-41771247D02*
X100952380Y-41723628D01*
X100952380Y-41723628D02*
X101142856Y-41676009D01*
X101142856Y-41676009D02*
X101238094Y-41628390D01*
X101238094Y-41628390D02*
X101285713Y-41580771D01*
X101285713Y-41580771D02*
X101333332Y-41485533D01*
X101333332Y-41485533D02*
X101333332Y-41390295D01*
X101333332Y-41390295D02*
X101285713Y-41295057D01*
X101285713Y-41295057D02*
X101238094Y-41247438D01*
X101238094Y-41247438D02*
X101142856Y-41199819D01*
X101142856Y-41199819D02*
X100904761Y-41199819D01*
X100904761Y-41199819D02*
X100761904Y-41247438D01*
X100428570Y-41199819D02*
X100190475Y-42199819D01*
X100190475Y-42199819D02*
X99999999Y-41485533D01*
X99999999Y-41485533D02*
X99809523Y-42199819D01*
X99809523Y-42199819D02*
X99571428Y-41199819D01*
X98761904Y-41199819D02*
X98952380Y-41199819D01*
X98952380Y-41199819D02*
X99047618Y-41247438D01*
X99047618Y-41247438D02*
X99095237Y-41295057D01*
X99095237Y-41295057D02*
X99190475Y-41437914D01*
X99190475Y-41437914D02*
X99238094Y-41628390D01*
X99238094Y-41628390D02*
X99238094Y-42009342D01*
X99238094Y-42009342D02*
X99190475Y-42104580D01*
X99190475Y-42104580D02*
X99142856Y-42152200D01*
X99142856Y-42152200D02*
X99047618Y-42199819D01*
X99047618Y-42199819D02*
X98857142Y-42199819D01*
X98857142Y-42199819D02*
X98761904Y-42152200D01*
X98761904Y-42152200D02*
X98714285Y-42104580D01*
X98714285Y-42104580D02*
X98666666Y-42009342D01*
X98666666Y-42009342D02*
X98666666Y-41771247D01*
X98666666Y-41771247D02*
X98714285Y-41676009D01*
X98714285Y-41676009D02*
X98761904Y-41628390D01*
X98761904Y-41628390D02*
X98857142Y-41580771D01*
X98857142Y-41580771D02*
X99047618Y-41580771D01*
X99047618Y-41580771D02*
X99142856Y-41628390D01*
X99142856Y-41628390D02*
X99190475Y-41676009D01*
X99190475Y-41676009D02*
X99238094Y-41771247D01*
X141333332Y-22152200D02*
X141190475Y-22199819D01*
X141190475Y-22199819D02*
X140952380Y-22199819D01*
X140952380Y-22199819D02*
X140857142Y-22152200D01*
X140857142Y-22152200D02*
X140809523Y-22104580D01*
X140809523Y-22104580D02*
X140761904Y-22009342D01*
X140761904Y-22009342D02*
X140761904Y-21914104D01*
X140761904Y-21914104D02*
X140809523Y-21818866D01*
X140809523Y-21818866D02*
X140857142Y-21771247D01*
X140857142Y-21771247D02*
X140952380Y-21723628D01*
X140952380Y-21723628D02*
X141142856Y-21676009D01*
X141142856Y-21676009D02*
X141238094Y-21628390D01*
X141238094Y-21628390D02*
X141285713Y-21580771D01*
X141285713Y-21580771D02*
X141333332Y-21485533D01*
X141333332Y-21485533D02*
X141333332Y-21390295D01*
X141333332Y-21390295D02*
X141285713Y-21295057D01*
X141285713Y-21295057D02*
X141238094Y-21247438D01*
X141238094Y-21247438D02*
X141142856Y-21199819D01*
X141142856Y-21199819D02*
X140904761Y-21199819D01*
X140904761Y-21199819D02*
X140761904Y-21247438D01*
X140428570Y-21199819D02*
X140190475Y-22199819D01*
X140190475Y-22199819D02*
X139999999Y-21485533D01*
X139999999Y-21485533D02*
X139809523Y-22199819D01*
X139809523Y-22199819D02*
X139571428Y-21199819D01*
X138761904Y-21533152D02*
X138761904Y-22199819D01*
X138999999Y-21152200D02*
X139238094Y-21866485D01*
X139238094Y-21866485D02*
X138619047Y-21866485D01*
X121333332Y-22152200D02*
X121190475Y-22199819D01*
X121190475Y-22199819D02*
X120952380Y-22199819D01*
X120952380Y-22199819D02*
X120857142Y-22152200D01*
X120857142Y-22152200D02*
X120809523Y-22104580D01*
X120809523Y-22104580D02*
X120761904Y-22009342D01*
X120761904Y-22009342D02*
X120761904Y-21914104D01*
X120761904Y-21914104D02*
X120809523Y-21818866D01*
X120809523Y-21818866D02*
X120857142Y-21771247D01*
X120857142Y-21771247D02*
X120952380Y-21723628D01*
X120952380Y-21723628D02*
X121142856Y-21676009D01*
X121142856Y-21676009D02*
X121238094Y-21628390D01*
X121238094Y-21628390D02*
X121285713Y-21580771D01*
X121285713Y-21580771D02*
X121333332Y-21485533D01*
X121333332Y-21485533D02*
X121333332Y-21390295D01*
X121333332Y-21390295D02*
X121285713Y-21295057D01*
X121285713Y-21295057D02*
X121238094Y-21247438D01*
X121238094Y-21247438D02*
X121142856Y-21199819D01*
X121142856Y-21199819D02*
X120904761Y-21199819D01*
X120904761Y-21199819D02*
X120761904Y-21247438D01*
X120428570Y-21199819D02*
X120190475Y-22199819D01*
X120190475Y-22199819D02*
X119999999Y-21485533D01*
X119999999Y-21485533D02*
X119809523Y-22199819D01*
X119809523Y-22199819D02*
X119571428Y-21199819D01*
X119285713Y-21199819D02*
X118666666Y-21199819D01*
X118666666Y-21199819D02*
X118999999Y-21580771D01*
X118999999Y-21580771D02*
X118857142Y-21580771D01*
X118857142Y-21580771D02*
X118761904Y-21628390D01*
X118761904Y-21628390D02*
X118714285Y-21676009D01*
X118714285Y-21676009D02*
X118666666Y-21771247D01*
X118666666Y-21771247D02*
X118666666Y-22009342D01*
X118666666Y-22009342D02*
X118714285Y-22104580D01*
X118714285Y-22104580D02*
X118761904Y-22152200D01*
X118761904Y-22152200D02*
X118857142Y-22199819D01*
X118857142Y-22199819D02*
X119142856Y-22199819D01*
X119142856Y-22199819D02*
X119238094Y-22152200D01*
X119238094Y-22152200D02*
X119285713Y-22104580D01*
X81333332Y-64152200D02*
X81190475Y-64199819D01*
X81190475Y-64199819D02*
X80952380Y-64199819D01*
X80952380Y-64199819D02*
X80857142Y-64152200D01*
X80857142Y-64152200D02*
X80809523Y-64104580D01*
X80809523Y-64104580D02*
X80761904Y-64009342D01*
X80761904Y-64009342D02*
X80761904Y-63914104D01*
X80761904Y-63914104D02*
X80809523Y-63818866D01*
X80809523Y-63818866D02*
X80857142Y-63771247D01*
X80857142Y-63771247D02*
X80952380Y-63723628D01*
X80952380Y-63723628D02*
X81142856Y-63676009D01*
X81142856Y-63676009D02*
X81238094Y-63628390D01*
X81238094Y-63628390D02*
X81285713Y-63580771D01*
X81285713Y-63580771D02*
X81333332Y-63485533D01*
X81333332Y-63485533D02*
X81333332Y-63390295D01*
X81333332Y-63390295D02*
X81285713Y-63295057D01*
X81285713Y-63295057D02*
X81238094Y-63247438D01*
X81238094Y-63247438D02*
X81142856Y-63199819D01*
X81142856Y-63199819D02*
X80904761Y-63199819D01*
X80904761Y-63199819D02*
X80761904Y-63247438D01*
X80428570Y-63199819D02*
X80190475Y-64199819D01*
X80190475Y-64199819D02*
X79999999Y-63485533D01*
X79999999Y-63485533D02*
X79809523Y-64199819D01*
X79809523Y-64199819D02*
X79571428Y-63199819D01*
X79142856Y-64199819D02*
X78952380Y-64199819D01*
X78952380Y-64199819D02*
X78857142Y-64152200D01*
X78857142Y-64152200D02*
X78809523Y-64104580D01*
X78809523Y-64104580D02*
X78714285Y-63961723D01*
X78714285Y-63961723D02*
X78666666Y-63771247D01*
X78666666Y-63771247D02*
X78666666Y-63390295D01*
X78666666Y-63390295D02*
X78714285Y-63295057D01*
X78714285Y-63295057D02*
X78761904Y-63247438D01*
X78761904Y-63247438D02*
X78857142Y-63199819D01*
X78857142Y-63199819D02*
X79047618Y-63199819D01*
X79047618Y-63199819D02*
X79142856Y-63247438D01*
X79142856Y-63247438D02*
X79190475Y-63295057D01*
X79190475Y-63295057D02*
X79238094Y-63390295D01*
X79238094Y-63390295D02*
X79238094Y-63628390D01*
X79238094Y-63628390D02*
X79190475Y-63723628D01*
X79190475Y-63723628D02*
X79142856Y-63771247D01*
X79142856Y-63771247D02*
X79047618Y-63818866D01*
X79047618Y-63818866D02*
X78857142Y-63818866D01*
X78857142Y-63818866D02*
X78761904Y-63771247D01*
X78761904Y-63771247D02*
X78714285Y-63723628D01*
X78714285Y-63723628D02*
X78666666Y-63628390D01*
X141333332Y-42152200D02*
X141190475Y-42199819D01*
X141190475Y-42199819D02*
X140952380Y-42199819D01*
X140952380Y-42199819D02*
X140857142Y-42152200D01*
X140857142Y-42152200D02*
X140809523Y-42104580D01*
X140809523Y-42104580D02*
X140761904Y-42009342D01*
X140761904Y-42009342D02*
X140761904Y-41914104D01*
X140761904Y-41914104D02*
X140809523Y-41818866D01*
X140809523Y-41818866D02*
X140857142Y-41771247D01*
X140857142Y-41771247D02*
X140952380Y-41723628D01*
X140952380Y-41723628D02*
X141142856Y-41676009D01*
X141142856Y-41676009D02*
X141238094Y-41628390D01*
X141238094Y-41628390D02*
X141285713Y-41580771D01*
X141285713Y-41580771D02*
X141333332Y-41485533D01*
X141333332Y-41485533D02*
X141333332Y-41390295D01*
X141333332Y-41390295D02*
X141285713Y-41295057D01*
X141285713Y-41295057D02*
X141238094Y-41247438D01*
X141238094Y-41247438D02*
X141142856Y-41199819D01*
X141142856Y-41199819D02*
X140904761Y-41199819D01*
X140904761Y-41199819D02*
X140761904Y-41247438D01*
X140428570Y-41199819D02*
X140190475Y-42199819D01*
X140190475Y-42199819D02*
X139999999Y-41485533D01*
X139999999Y-41485533D02*
X139809523Y-42199819D01*
X139809523Y-42199819D02*
X139571428Y-41199819D01*
X139047618Y-41628390D02*
X139142856Y-41580771D01*
X139142856Y-41580771D02*
X139190475Y-41533152D01*
X139190475Y-41533152D02*
X139238094Y-41437914D01*
X139238094Y-41437914D02*
X139238094Y-41390295D01*
X139238094Y-41390295D02*
X139190475Y-41295057D01*
X139190475Y-41295057D02*
X139142856Y-41247438D01*
X139142856Y-41247438D02*
X139047618Y-41199819D01*
X139047618Y-41199819D02*
X138857142Y-41199819D01*
X138857142Y-41199819D02*
X138761904Y-41247438D01*
X138761904Y-41247438D02*
X138714285Y-41295057D01*
X138714285Y-41295057D02*
X138666666Y-41390295D01*
X138666666Y-41390295D02*
X138666666Y-41437914D01*
X138666666Y-41437914D02*
X138714285Y-41533152D01*
X138714285Y-41533152D02*
X138761904Y-41580771D01*
X138761904Y-41580771D02*
X138857142Y-41628390D01*
X138857142Y-41628390D02*
X139047618Y-41628390D01*
X139047618Y-41628390D02*
X139142856Y-41676009D01*
X139142856Y-41676009D02*
X139190475Y-41723628D01*
X139190475Y-41723628D02*
X139238094Y-41818866D01*
X139238094Y-41818866D02*
X139238094Y-42009342D01*
X139238094Y-42009342D02*
X139190475Y-42104580D01*
X139190475Y-42104580D02*
X139142856Y-42152200D01*
X139142856Y-42152200D02*
X139047618Y-42199819D01*
X139047618Y-42199819D02*
X138857142Y-42199819D01*
X138857142Y-42199819D02*
X138761904Y-42152200D01*
X138761904Y-42152200D02*
X138714285Y-42104580D01*
X138714285Y-42104580D02*
X138666666Y-42009342D01*
X138666666Y-42009342D02*
X138666666Y-41818866D01*
X138666666Y-41818866D02*
X138714285Y-41723628D01*
X138714285Y-41723628D02*
X138761904Y-41676009D01*
X138761904Y-41676009D02*
X138857142Y-41628390D01*
X121333332Y-42152200D02*
X121190475Y-42199819D01*
X121190475Y-42199819D02*
X120952380Y-42199819D01*
X120952380Y-42199819D02*
X120857142Y-42152200D01*
X120857142Y-42152200D02*
X120809523Y-42104580D01*
X120809523Y-42104580D02*
X120761904Y-42009342D01*
X120761904Y-42009342D02*
X120761904Y-41914104D01*
X120761904Y-41914104D02*
X120809523Y-41818866D01*
X120809523Y-41818866D02*
X120857142Y-41771247D01*
X120857142Y-41771247D02*
X120952380Y-41723628D01*
X120952380Y-41723628D02*
X121142856Y-41676009D01*
X121142856Y-41676009D02*
X121238094Y-41628390D01*
X121238094Y-41628390D02*
X121285713Y-41580771D01*
X121285713Y-41580771D02*
X121333332Y-41485533D01*
X121333332Y-41485533D02*
X121333332Y-41390295D01*
X121333332Y-41390295D02*
X121285713Y-41295057D01*
X121285713Y-41295057D02*
X121238094Y-41247438D01*
X121238094Y-41247438D02*
X121142856Y-41199819D01*
X121142856Y-41199819D02*
X120904761Y-41199819D01*
X120904761Y-41199819D02*
X120761904Y-41247438D01*
X120428570Y-41199819D02*
X120190475Y-42199819D01*
X120190475Y-42199819D02*
X119999999Y-41485533D01*
X119999999Y-41485533D02*
X119809523Y-42199819D01*
X119809523Y-42199819D02*
X119571428Y-41199819D01*
X119285713Y-41199819D02*
X118619047Y-41199819D01*
X118619047Y-41199819D02*
X119047618Y-42199819D01*
X101809523Y-64152200D02*
X101666666Y-64199819D01*
X101666666Y-64199819D02*
X101428571Y-64199819D01*
X101428571Y-64199819D02*
X101333333Y-64152200D01*
X101333333Y-64152200D02*
X101285714Y-64104580D01*
X101285714Y-64104580D02*
X101238095Y-64009342D01*
X101238095Y-64009342D02*
X101238095Y-63914104D01*
X101238095Y-63914104D02*
X101285714Y-63818866D01*
X101285714Y-63818866D02*
X101333333Y-63771247D01*
X101333333Y-63771247D02*
X101428571Y-63723628D01*
X101428571Y-63723628D02*
X101619047Y-63676009D01*
X101619047Y-63676009D02*
X101714285Y-63628390D01*
X101714285Y-63628390D02*
X101761904Y-63580771D01*
X101761904Y-63580771D02*
X101809523Y-63485533D01*
X101809523Y-63485533D02*
X101809523Y-63390295D01*
X101809523Y-63390295D02*
X101761904Y-63295057D01*
X101761904Y-63295057D02*
X101714285Y-63247438D01*
X101714285Y-63247438D02*
X101619047Y-63199819D01*
X101619047Y-63199819D02*
X101380952Y-63199819D01*
X101380952Y-63199819D02*
X101238095Y-63247438D01*
X100904761Y-63199819D02*
X100666666Y-64199819D01*
X100666666Y-64199819D02*
X100476190Y-63485533D01*
X100476190Y-63485533D02*
X100285714Y-64199819D01*
X100285714Y-64199819D02*
X100047619Y-63199819D01*
X99142857Y-64199819D02*
X99714285Y-64199819D01*
X99428571Y-64199819D02*
X99428571Y-63199819D01*
X99428571Y-63199819D02*
X99523809Y-63342676D01*
X99523809Y-63342676D02*
X99619047Y-63437914D01*
X99619047Y-63437914D02*
X99714285Y-63485533D01*
X98523809Y-63199819D02*
X98428571Y-63199819D01*
X98428571Y-63199819D02*
X98333333Y-63247438D01*
X98333333Y-63247438D02*
X98285714Y-63295057D01*
X98285714Y-63295057D02*
X98238095Y-63390295D01*
X98238095Y-63390295D02*
X98190476Y-63580771D01*
X98190476Y-63580771D02*
X98190476Y-63818866D01*
X98190476Y-63818866D02*
X98238095Y-64009342D01*
X98238095Y-64009342D02*
X98285714Y-64104580D01*
X98285714Y-64104580D02*
X98333333Y-64152200D01*
X98333333Y-64152200D02*
X98428571Y-64199819D01*
X98428571Y-64199819D02*
X98523809Y-64199819D01*
X98523809Y-64199819D02*
X98619047Y-64152200D01*
X98619047Y-64152200D02*
X98666666Y-64104580D01*
X98666666Y-64104580D02*
X98714285Y-64009342D01*
X98714285Y-64009342D02*
X98761904Y-63818866D01*
X98761904Y-63818866D02*
X98761904Y-63580771D01*
X98761904Y-63580771D02*
X98714285Y-63390295D01*
X98714285Y-63390295D02*
X98666666Y-63295057D01*
X98666666Y-63295057D02*
X98619047Y-63247438D01*
X98619047Y-63247438D02*
X98523809Y-63199819D01*
X113454819Y-34261905D02*
X112454819Y-34261905D01*
X112454819Y-34261905D02*
X112454819Y-34500000D01*
X112454819Y-34500000D02*
X112502438Y-34642857D01*
X112502438Y-34642857D02*
X112597676Y-34738095D01*
X112597676Y-34738095D02*
X112692914Y-34785714D01*
X112692914Y-34785714D02*
X112883390Y-34833333D01*
X112883390Y-34833333D02*
X113026247Y-34833333D01*
X113026247Y-34833333D02*
X113216723Y-34785714D01*
X113216723Y-34785714D02*
X113311961Y-34738095D01*
X113311961Y-34738095D02*
X113407200Y-34642857D01*
X113407200Y-34642857D02*
X113454819Y-34500000D01*
X113454819Y-34500000D02*
X113454819Y-34261905D01*
X112454819Y-35166667D02*
X112454819Y-35785714D01*
X112454819Y-35785714D02*
X112835771Y-35452381D01*
X112835771Y-35452381D02*
X112835771Y-35595238D01*
X112835771Y-35595238D02*
X112883390Y-35690476D01*
X112883390Y-35690476D02*
X112931009Y-35738095D01*
X112931009Y-35738095D02*
X113026247Y-35785714D01*
X113026247Y-35785714D02*
X113264342Y-35785714D01*
X113264342Y-35785714D02*
X113359580Y-35738095D01*
X113359580Y-35738095D02*
X113407200Y-35690476D01*
X113407200Y-35690476D02*
X113454819Y-35595238D01*
X113454819Y-35595238D02*
X113454819Y-35309524D01*
X113454819Y-35309524D02*
X113407200Y-35214286D01*
X113407200Y-35214286D02*
X113359580Y-35166667D01*
X93454819Y-34261905D02*
X92454819Y-34261905D01*
X92454819Y-34261905D02*
X92454819Y-34500000D01*
X92454819Y-34500000D02*
X92502438Y-34642857D01*
X92502438Y-34642857D02*
X92597676Y-34738095D01*
X92597676Y-34738095D02*
X92692914Y-34785714D01*
X92692914Y-34785714D02*
X92883390Y-34833333D01*
X92883390Y-34833333D02*
X93026247Y-34833333D01*
X93026247Y-34833333D02*
X93216723Y-34785714D01*
X93216723Y-34785714D02*
X93311961Y-34738095D01*
X93311961Y-34738095D02*
X93407200Y-34642857D01*
X93407200Y-34642857D02*
X93454819Y-34500000D01*
X93454819Y-34500000D02*
X93454819Y-34261905D01*
X92550057Y-35214286D02*
X92502438Y-35261905D01*
X92502438Y-35261905D02*
X92454819Y-35357143D01*
X92454819Y-35357143D02*
X92454819Y-35595238D01*
X92454819Y-35595238D02*
X92502438Y-35690476D01*
X92502438Y-35690476D02*
X92550057Y-35738095D01*
X92550057Y-35738095D02*
X92645295Y-35785714D01*
X92645295Y-35785714D02*
X92740533Y-35785714D01*
X92740533Y-35785714D02*
X92883390Y-35738095D01*
X92883390Y-35738095D02*
X93454819Y-35166667D01*
X93454819Y-35166667D02*
X93454819Y-35785714D01*
X73454819Y-73761905D02*
X72454819Y-73761905D01*
X72454819Y-73761905D02*
X72454819Y-74000000D01*
X72454819Y-74000000D02*
X72502438Y-74142857D01*
X72502438Y-74142857D02*
X72597676Y-74238095D01*
X72597676Y-74238095D02*
X72692914Y-74285714D01*
X72692914Y-74285714D02*
X72883390Y-74333333D01*
X72883390Y-74333333D02*
X73026247Y-74333333D01*
X73026247Y-74333333D02*
X73216723Y-74285714D01*
X73216723Y-74285714D02*
X73311961Y-74238095D01*
X73311961Y-74238095D02*
X73407200Y-74142857D01*
X73407200Y-74142857D02*
X73454819Y-74000000D01*
X73454819Y-74000000D02*
X73454819Y-73761905D01*
X73454819Y-74809524D02*
X73454819Y-75000000D01*
X73454819Y-75000000D02*
X73407200Y-75095238D01*
X73407200Y-75095238D02*
X73359580Y-75142857D01*
X73359580Y-75142857D02*
X73216723Y-75238095D01*
X73216723Y-75238095D02*
X73026247Y-75285714D01*
X73026247Y-75285714D02*
X72645295Y-75285714D01*
X72645295Y-75285714D02*
X72550057Y-75238095D01*
X72550057Y-75238095D02*
X72502438Y-75190476D01*
X72502438Y-75190476D02*
X72454819Y-75095238D01*
X72454819Y-75095238D02*
X72454819Y-74904762D01*
X72454819Y-74904762D02*
X72502438Y-74809524D01*
X72502438Y-74809524D02*
X72550057Y-74761905D01*
X72550057Y-74761905D02*
X72645295Y-74714286D01*
X72645295Y-74714286D02*
X72883390Y-74714286D01*
X72883390Y-74714286D02*
X72978628Y-74761905D01*
X72978628Y-74761905D02*
X73026247Y-74809524D01*
X73026247Y-74809524D02*
X73073866Y-74904762D01*
X73073866Y-74904762D02*
X73073866Y-75095238D01*
X73073866Y-75095238D02*
X73026247Y-75190476D01*
X73026247Y-75190476D02*
X72978628Y-75238095D01*
X72978628Y-75238095D02*
X72883390Y-75285714D01*
X113454819Y-54261905D02*
X112454819Y-54261905D01*
X112454819Y-54261905D02*
X112454819Y-54500000D01*
X112454819Y-54500000D02*
X112502438Y-54642857D01*
X112502438Y-54642857D02*
X112597676Y-54738095D01*
X112597676Y-54738095D02*
X112692914Y-54785714D01*
X112692914Y-54785714D02*
X112883390Y-54833333D01*
X112883390Y-54833333D02*
X113026247Y-54833333D01*
X113026247Y-54833333D02*
X113216723Y-54785714D01*
X113216723Y-54785714D02*
X113311961Y-54738095D01*
X113311961Y-54738095D02*
X113407200Y-54642857D01*
X113407200Y-54642857D02*
X113454819Y-54500000D01*
X113454819Y-54500000D02*
X113454819Y-54261905D01*
X112454819Y-55166667D02*
X112454819Y-55833333D01*
X112454819Y-55833333D02*
X113454819Y-55404762D01*
X93454819Y-73785714D02*
X92454819Y-73785714D01*
X92454819Y-73785714D02*
X92454819Y-74023809D01*
X92454819Y-74023809D02*
X92502438Y-74166666D01*
X92502438Y-74166666D02*
X92597676Y-74261904D01*
X92597676Y-74261904D02*
X92692914Y-74309523D01*
X92692914Y-74309523D02*
X92883390Y-74357142D01*
X92883390Y-74357142D02*
X93026247Y-74357142D01*
X93026247Y-74357142D02*
X93216723Y-74309523D01*
X93216723Y-74309523D02*
X93311961Y-74261904D01*
X93311961Y-74261904D02*
X93407200Y-74166666D01*
X93407200Y-74166666D02*
X93454819Y-74023809D01*
X93454819Y-74023809D02*
X93454819Y-73785714D01*
X93454819Y-75309523D02*
X93454819Y-74738095D01*
X93454819Y-75023809D02*
X92454819Y-75023809D01*
X92454819Y-75023809D02*
X92597676Y-74928571D01*
X92597676Y-74928571D02*
X92692914Y-74833333D01*
X92692914Y-74833333D02*
X92740533Y-74738095D01*
X92454819Y-75928571D02*
X92454819Y-76023809D01*
X92454819Y-76023809D02*
X92502438Y-76119047D01*
X92502438Y-76119047D02*
X92550057Y-76166666D01*
X92550057Y-76166666D02*
X92645295Y-76214285D01*
X92645295Y-76214285D02*
X92835771Y-76261904D01*
X92835771Y-76261904D02*
X93073866Y-76261904D01*
X93073866Y-76261904D02*
X93264342Y-76214285D01*
X93264342Y-76214285D02*
X93359580Y-76166666D01*
X93359580Y-76166666D02*
X93407200Y-76119047D01*
X93407200Y-76119047D02*
X93454819Y-76023809D01*
X93454819Y-76023809D02*
X93454819Y-75928571D01*
X93454819Y-75928571D02*
X93407200Y-75833333D01*
X93407200Y-75833333D02*
X93359580Y-75785714D01*
X93359580Y-75785714D02*
X93264342Y-75738095D01*
X93264342Y-75738095D02*
X93073866Y-75690476D01*
X93073866Y-75690476D02*
X92835771Y-75690476D01*
X92835771Y-75690476D02*
X92645295Y-75738095D01*
X92645295Y-75738095D02*
X92550057Y-75785714D01*
X92550057Y-75785714D02*
X92502438Y-75833333D01*
X92502438Y-75833333D02*
X92454819Y-75928571D01*
D11*
X128031705Y-64051442D02*
X128665012Y-64051442D01*
X128665012Y-64051442D02*
X128739518Y-64088696D01*
X128739518Y-64088696D02*
X128776772Y-64125949D01*
X128776772Y-64125949D02*
X128814025Y-64200456D01*
X128814025Y-64200456D02*
X128814025Y-64349469D01*
X128814025Y-64349469D02*
X128776772Y-64423976D01*
X128776772Y-64423976D02*
X128739518Y-64461229D01*
X128739518Y-64461229D02*
X128665012Y-64498482D01*
X128665012Y-64498482D02*
X128031705Y-64498482D01*
X128814025Y-65280802D02*
X128814025Y-64833762D01*
X128814025Y-65057282D02*
X128031705Y-65057282D01*
X128031705Y-65057282D02*
X128143465Y-64982775D01*
X128143465Y-64982775D02*
X128217972Y-64908269D01*
X128217972Y-64908269D02*
X128255225Y-64833762D01*
D10*
X73454819Y-54261905D02*
X72454819Y-54261905D01*
X72454819Y-54261905D02*
X72454819Y-54500000D01*
X72454819Y-54500000D02*
X72502438Y-54642857D01*
X72502438Y-54642857D02*
X72597676Y-54738095D01*
X72597676Y-54738095D02*
X72692914Y-54785714D01*
X72692914Y-54785714D02*
X72883390Y-54833333D01*
X72883390Y-54833333D02*
X73026247Y-54833333D01*
X73026247Y-54833333D02*
X73216723Y-54785714D01*
X73216723Y-54785714D02*
X73311961Y-54738095D01*
X73311961Y-54738095D02*
X73407200Y-54642857D01*
X73407200Y-54642857D02*
X73454819Y-54500000D01*
X73454819Y-54500000D02*
X73454819Y-54261905D01*
X72454819Y-55738095D02*
X72454819Y-55261905D01*
X72454819Y-55261905D02*
X72931009Y-55214286D01*
X72931009Y-55214286D02*
X72883390Y-55261905D01*
X72883390Y-55261905D02*
X72835771Y-55357143D01*
X72835771Y-55357143D02*
X72835771Y-55595238D01*
X72835771Y-55595238D02*
X72883390Y-55690476D01*
X72883390Y-55690476D02*
X72931009Y-55738095D01*
X72931009Y-55738095D02*
X73026247Y-55785714D01*
X73026247Y-55785714D02*
X73264342Y-55785714D01*
X73264342Y-55785714D02*
X73359580Y-55738095D01*
X73359580Y-55738095D02*
X73407200Y-55690476D01*
X73407200Y-55690476D02*
X73454819Y-55595238D01*
X73454819Y-55595238D02*
X73454819Y-55357143D01*
X73454819Y-55357143D02*
X73407200Y-55261905D01*
X73407200Y-55261905D02*
X73359580Y-55214286D01*
X133454819Y-34261905D02*
X132454819Y-34261905D01*
X132454819Y-34261905D02*
X132454819Y-34500000D01*
X132454819Y-34500000D02*
X132502438Y-34642857D01*
X132502438Y-34642857D02*
X132597676Y-34738095D01*
X132597676Y-34738095D02*
X132692914Y-34785714D01*
X132692914Y-34785714D02*
X132883390Y-34833333D01*
X132883390Y-34833333D02*
X133026247Y-34833333D01*
X133026247Y-34833333D02*
X133216723Y-34785714D01*
X133216723Y-34785714D02*
X133311961Y-34738095D01*
X133311961Y-34738095D02*
X133407200Y-34642857D01*
X133407200Y-34642857D02*
X133454819Y-34500000D01*
X133454819Y-34500000D02*
X133454819Y-34261905D01*
X132788152Y-35690476D02*
X133454819Y-35690476D01*
X132407200Y-35452381D02*
X133121485Y-35214286D01*
X133121485Y-35214286D02*
X133121485Y-35833333D01*
X93454819Y-54261905D02*
X92454819Y-54261905D01*
X92454819Y-54261905D02*
X92454819Y-54500000D01*
X92454819Y-54500000D02*
X92502438Y-54642857D01*
X92502438Y-54642857D02*
X92597676Y-54738095D01*
X92597676Y-54738095D02*
X92692914Y-54785714D01*
X92692914Y-54785714D02*
X92883390Y-54833333D01*
X92883390Y-54833333D02*
X93026247Y-54833333D01*
X93026247Y-54833333D02*
X93216723Y-54785714D01*
X93216723Y-54785714D02*
X93311961Y-54738095D01*
X93311961Y-54738095D02*
X93407200Y-54642857D01*
X93407200Y-54642857D02*
X93454819Y-54500000D01*
X93454819Y-54500000D02*
X93454819Y-54261905D01*
X92454819Y-55690476D02*
X92454819Y-55500000D01*
X92454819Y-55500000D02*
X92502438Y-55404762D01*
X92502438Y-55404762D02*
X92550057Y-55357143D01*
X92550057Y-55357143D02*
X92692914Y-55261905D01*
X92692914Y-55261905D02*
X92883390Y-55214286D01*
X92883390Y-55214286D02*
X93264342Y-55214286D01*
X93264342Y-55214286D02*
X93359580Y-55261905D01*
X93359580Y-55261905D02*
X93407200Y-55309524D01*
X93407200Y-55309524D02*
X93454819Y-55404762D01*
X93454819Y-55404762D02*
X93454819Y-55595238D01*
X93454819Y-55595238D02*
X93407200Y-55690476D01*
X93407200Y-55690476D02*
X93359580Y-55738095D01*
X93359580Y-55738095D02*
X93264342Y-55785714D01*
X93264342Y-55785714D02*
X93026247Y-55785714D01*
X93026247Y-55785714D02*
X92931009Y-55738095D01*
X92931009Y-55738095D02*
X92883390Y-55690476D01*
X92883390Y-55690476D02*
X92835771Y-55595238D01*
X92835771Y-55595238D02*
X92835771Y-55404762D01*
X92835771Y-55404762D02*
X92883390Y-55309524D01*
X92883390Y-55309524D02*
X92931009Y-55261905D01*
X92931009Y-55261905D02*
X93026247Y-55214286D01*
X73454819Y-34261905D02*
X72454819Y-34261905D01*
X72454819Y-34261905D02*
X72454819Y-34500000D01*
X72454819Y-34500000D02*
X72502438Y-34642857D01*
X72502438Y-34642857D02*
X72597676Y-34738095D01*
X72597676Y-34738095D02*
X72692914Y-34785714D01*
X72692914Y-34785714D02*
X72883390Y-34833333D01*
X72883390Y-34833333D02*
X73026247Y-34833333D01*
X73026247Y-34833333D02*
X73216723Y-34785714D01*
X73216723Y-34785714D02*
X73311961Y-34738095D01*
X73311961Y-34738095D02*
X73407200Y-34642857D01*
X73407200Y-34642857D02*
X73454819Y-34500000D01*
X73454819Y-34500000D02*
X73454819Y-34261905D01*
X73454819Y-35785714D02*
X73454819Y-35214286D01*
X73454819Y-35500000D02*
X72454819Y-35500000D01*
X72454819Y-35500000D02*
X72597676Y-35404762D01*
X72597676Y-35404762D02*
X72692914Y-35309524D01*
X72692914Y-35309524D02*
X72740533Y-35214286D01*
X133454819Y-54261905D02*
X132454819Y-54261905D01*
X132454819Y-54261905D02*
X132454819Y-54500000D01*
X132454819Y-54500000D02*
X132502438Y-54642857D01*
X132502438Y-54642857D02*
X132597676Y-54738095D01*
X132597676Y-54738095D02*
X132692914Y-54785714D01*
X132692914Y-54785714D02*
X132883390Y-54833333D01*
X132883390Y-54833333D02*
X133026247Y-54833333D01*
X133026247Y-54833333D02*
X133216723Y-54785714D01*
X133216723Y-54785714D02*
X133311961Y-54738095D01*
X133311961Y-54738095D02*
X133407200Y-54642857D01*
X133407200Y-54642857D02*
X133454819Y-54500000D01*
X133454819Y-54500000D02*
X133454819Y-54261905D01*
X132883390Y-55404762D02*
X132835771Y-55309524D01*
X132835771Y-55309524D02*
X132788152Y-55261905D01*
X132788152Y-55261905D02*
X132692914Y-55214286D01*
X132692914Y-55214286D02*
X132645295Y-55214286D01*
X132645295Y-55214286D02*
X132550057Y-55261905D01*
X132550057Y-55261905D02*
X132502438Y-55309524D01*
X132502438Y-55309524D02*
X132454819Y-55404762D01*
X132454819Y-55404762D02*
X132454819Y-55595238D01*
X132454819Y-55595238D02*
X132502438Y-55690476D01*
X132502438Y-55690476D02*
X132550057Y-55738095D01*
X132550057Y-55738095D02*
X132645295Y-55785714D01*
X132645295Y-55785714D02*
X132692914Y-55785714D01*
X132692914Y-55785714D02*
X132788152Y-55738095D01*
X132788152Y-55738095D02*
X132835771Y-55690476D01*
X132835771Y-55690476D02*
X132883390Y-55595238D01*
X132883390Y-55595238D02*
X132883390Y-55404762D01*
X132883390Y-55404762D02*
X132931009Y-55309524D01*
X132931009Y-55309524D02*
X132978628Y-55261905D01*
X132978628Y-55261905D02*
X133073866Y-55214286D01*
X133073866Y-55214286D02*
X133264342Y-55214286D01*
X133264342Y-55214286D02*
X133359580Y-55261905D01*
X133359580Y-55261905D02*
X133407200Y-55309524D01*
X133407200Y-55309524D02*
X133454819Y-55404762D01*
X133454819Y-55404762D02*
X133454819Y-55595238D01*
X133454819Y-55595238D02*
X133407200Y-55690476D01*
X133407200Y-55690476D02*
X133359580Y-55738095D01*
X133359580Y-55738095D02*
X133264342Y-55785714D01*
X133264342Y-55785714D02*
X133073866Y-55785714D01*
X133073866Y-55785714D02*
X132978628Y-55738095D01*
X132978628Y-55738095D02*
X132931009Y-55690476D01*
X132931009Y-55690476D02*
X132883390Y-55595238D01*
%TO.C,SW1*%
X73650000Y-25555000D02*
X73650000Y-25936000D01*
X73650000Y-28984000D02*
X73650000Y-29365000D01*
X74031000Y-29365000D02*
X73650000Y-29365000D01*
X76190000Y-23015000D02*
X85080000Y-23015000D01*
X77535838Y-29365000D02*
X75809000Y-29365000D01*
X85080000Y-23015000D02*
X85080000Y-23396000D01*
X85080000Y-26444000D02*
X85080000Y-27460000D01*
X85080000Y-27460000D02*
X80000000Y-27460000D01*
X73650000Y-25555000D02*
G75*
G02*
X76190000Y-23015000I2540001J-1D01*
G01*
X77535838Y-29383960D02*
G75*
G02*
X80000000Y-27459999I2464162J-616039D01*
G01*
%TO.C,SW5*%
X73650000Y-45555000D02*
X73650000Y-45936000D01*
X73650000Y-48984000D02*
X73650000Y-49365000D01*
X74031000Y-49365000D02*
X73650000Y-49365000D01*
X76190000Y-43015000D02*
X85080000Y-43015000D01*
X77535838Y-49365000D02*
X75809000Y-49365000D01*
X85080000Y-43015000D02*
X85080000Y-43396000D01*
X85080000Y-46444000D02*
X85080000Y-47460000D01*
X85080000Y-47460000D02*
X80000000Y-47460000D01*
X73650000Y-45555000D02*
G75*
G02*
X76190000Y-43015000I2540001J-1D01*
G01*
X77535838Y-49383960D02*
G75*
G02*
X80000000Y-47459999I2464162J-616039D01*
G01*
%TO.C,SW2*%
X93650000Y-25555000D02*
X93650000Y-25936000D01*
X93650000Y-28984000D02*
X93650000Y-29365000D01*
X94031000Y-29365000D02*
X93650000Y-29365000D01*
X96190000Y-23015000D02*
X105080000Y-23015000D01*
X97535838Y-29365000D02*
X95809000Y-29365000D01*
X105080000Y-23015000D02*
X105080000Y-23396000D01*
X105080000Y-26444000D02*
X105080000Y-27460000D01*
X105080000Y-27460000D02*
X100000000Y-27460000D01*
X93650000Y-25555000D02*
G75*
G02*
X96190000Y-23015000I2540001J-1D01*
G01*
X97535838Y-29383960D02*
G75*
G02*
X100000000Y-27459999I2464162J-616039D01*
G01*
%TO.C,SW6*%
X93650000Y-45555000D02*
X93650000Y-45936000D01*
X93650000Y-48984000D02*
X93650000Y-49365000D01*
X94031000Y-49365000D02*
X93650000Y-49365000D01*
X96190000Y-43015000D02*
X105080000Y-43015000D01*
X97535838Y-49365000D02*
X95809000Y-49365000D01*
X105080000Y-43015000D02*
X105080000Y-43396000D01*
X105080000Y-46444000D02*
X105080000Y-47460000D01*
X105080000Y-47460000D02*
X100000000Y-47460000D01*
X93650000Y-45555000D02*
G75*
G02*
X96190000Y-43015000I2540001J-1D01*
G01*
X97535838Y-49383960D02*
G75*
G02*
X100000000Y-47459999I2464162J-616039D01*
G01*
%TO.C,SW4*%
X133650000Y-25555000D02*
X133650000Y-25936000D01*
X133650000Y-28984000D02*
X133650000Y-29365000D01*
X134031000Y-29365000D02*
X133650000Y-29365000D01*
X136190000Y-23015000D02*
X145080000Y-23015000D01*
X137535838Y-29365000D02*
X135809000Y-29365000D01*
X145080000Y-23015000D02*
X145080000Y-23396000D01*
X145080000Y-26444000D02*
X145080000Y-27460000D01*
X145080000Y-27460000D02*
X140000000Y-27460000D01*
X133650000Y-25555000D02*
G75*
G02*
X136190000Y-23015000I2540001J-1D01*
G01*
X137535838Y-29383960D02*
G75*
G02*
X140000000Y-27459999I2464162J-616039D01*
G01*
%TO.C,SW3*%
X113650000Y-25555000D02*
X113650000Y-25936000D01*
X113650000Y-28984000D02*
X113650000Y-29365000D01*
X114031000Y-29365000D02*
X113650000Y-29365000D01*
X116190000Y-23015000D02*
X125080000Y-23015000D01*
X117535838Y-29365000D02*
X115809000Y-29365000D01*
X125080000Y-23015000D02*
X125080000Y-23396000D01*
X125080000Y-26444000D02*
X125080000Y-27460000D01*
X125080000Y-27460000D02*
X120000000Y-27460000D01*
X113650000Y-25555000D02*
G75*
G02*
X116190000Y-23015000I2540001J-1D01*
G01*
X117535838Y-29383960D02*
G75*
G02*
X120000000Y-27459999I2464162J-616039D01*
G01*
%TO.C,SW9*%
X73650000Y-67555000D02*
X73650000Y-67936000D01*
X73650000Y-70984000D02*
X73650000Y-71365000D01*
X74031000Y-71365000D02*
X73650000Y-71365000D01*
X76190000Y-65015000D02*
X85080000Y-65015000D01*
X77535838Y-71365000D02*
X75809000Y-71365000D01*
X85080000Y-65015000D02*
X85080000Y-65396000D01*
X85080000Y-68444000D02*
X85080000Y-69460000D01*
X85080000Y-69460000D02*
X80000000Y-69460000D01*
X73650000Y-67555000D02*
G75*
G02*
X76190000Y-65015000I2540001J-1D01*
G01*
X77535838Y-71383960D02*
G75*
G02*
X80000000Y-69459999I2464162J-616039D01*
G01*
%TO.C,SW8*%
X133650000Y-45555000D02*
X133650000Y-45936000D01*
X133650000Y-48984000D02*
X133650000Y-49365000D01*
X134031000Y-49365000D02*
X133650000Y-49365000D01*
X136190000Y-43015000D02*
X145080000Y-43015000D01*
X137535838Y-49365000D02*
X135809000Y-49365000D01*
X145080000Y-43015000D02*
X145080000Y-43396000D01*
X145080000Y-46444000D02*
X145080000Y-47460000D01*
X145080000Y-47460000D02*
X140000000Y-47460000D01*
X133650000Y-45555000D02*
G75*
G02*
X136190000Y-43015000I2540001J-1D01*
G01*
X137535838Y-49383960D02*
G75*
G02*
X140000000Y-47459999I2464162J-616039D01*
G01*
%TO.C,SW7*%
X113650000Y-45555000D02*
X113650000Y-45936000D01*
X113650000Y-48984000D02*
X113650000Y-49365000D01*
X114031000Y-49365000D02*
X113650000Y-49365000D01*
X116190000Y-43015000D02*
X125080000Y-43015000D01*
X117535838Y-49365000D02*
X115809000Y-49365000D01*
X125080000Y-43015000D02*
X125080000Y-43396000D01*
X125080000Y-46444000D02*
X125080000Y-47460000D01*
X125080000Y-47460000D02*
X120000000Y-47460000D01*
X113650000Y-45555000D02*
G75*
G02*
X116190000Y-43015000I2540001J-1D01*
G01*
X117535838Y-49383960D02*
G75*
G02*
X120000000Y-47459999I2464162J-616039D01*
G01*
%TO.C,SW10*%
X93650000Y-67555000D02*
X93650000Y-67936000D01*
X93650000Y-70984000D02*
X93650000Y-71365000D01*
X94031000Y-71365000D02*
X93650000Y-71365000D01*
X96190000Y-65015000D02*
X105080000Y-65015000D01*
X97535838Y-71365000D02*
X95809000Y-71365000D01*
X105080000Y-65015000D02*
X105080000Y-65396000D01*
X105080000Y-68444000D02*
X105080000Y-69460000D01*
X105080000Y-69460000D02*
X100000000Y-69460000D01*
X93650000Y-67555000D02*
G75*
G02*
X96190000Y-65015000I2540001J-1D01*
G01*
X97535838Y-71383960D02*
G75*
G02*
X100000000Y-69459999I2464162J-616039D01*
G01*
D12*
%TO.C,D3*%
X110000000Y-37360000D02*
X110000000Y-33350000D01*
X112000000Y-37360000D02*
X110000000Y-37360000D01*
X112000000Y-37360000D02*
X112000000Y-33350000D01*
%TO.C,D2*%
X90000000Y-37360000D02*
X90000000Y-33350000D01*
X92000000Y-37360000D02*
X90000000Y-37360000D01*
X92000000Y-37360000D02*
X92000000Y-33350000D01*
%TO.C,D9*%
X70000000Y-76860000D02*
X70000000Y-72850000D01*
X72000000Y-76860000D02*
X70000000Y-76860000D01*
X72000000Y-76860000D02*
X72000000Y-72850000D01*
%TO.C,D7*%
X110000000Y-57360000D02*
X110000000Y-53350000D01*
X112000000Y-57360000D02*
X110000000Y-57360000D01*
X112000000Y-57360000D02*
X112000000Y-53350000D01*
%TO.C,D10*%
X90000000Y-77360000D02*
X90000000Y-73350000D01*
X92000000Y-77360000D02*
X90000000Y-77360000D01*
X92000000Y-77360000D02*
X92000000Y-73350000D01*
D13*
%TO.C,U1*%
X129351750Y-78175500D02*
X129351750Y-64205500D01*
X131256750Y-62300500D02*
X148401750Y-62300500D01*
X131256750Y-80080500D02*
X148401750Y-80080500D01*
X150306750Y-64205500D02*
X150306750Y-78175500D01*
D14*
X150306750Y-75685500D02*
X151217022Y-75681772D01*
X151216750Y-66686500D02*
X150306750Y-66686500D01*
X151716750Y-75181772D02*
X151716750Y-67186500D01*
D13*
X129351750Y-64205500D02*
G75*
G02*
X131256750Y-62300500I1905000J0D01*
G01*
X131256750Y-80080500D02*
G75*
G02*
X129351750Y-78175500I1J1905001D01*
G01*
X148401750Y-62300500D02*
G75*
G02*
X150306750Y-64205500I0J-1905000D01*
G01*
X150310750Y-78175500D02*
G75*
G02*
X148405750Y-80080500I-1905001J1D01*
G01*
D14*
X151216750Y-66686500D02*
G75*
G02*
X151716750Y-67186500I0J-500000D01*
G01*
X151716750Y-75181772D02*
G75*
G02*
X151217022Y-75681773I-500019J18D01*
G01*
D15*
X149425750Y-79016500D02*
G75*
G02*
X148921750Y-79016500I-252000J0D01*
G01*
X148921750Y-79016500D02*
G75*
G02*
X149425750Y-79016500I252000J0D01*
G01*
X150142750Y-80290500D02*
G75*
G02*
X149638750Y-80290500I-252000J0D01*
G01*
X149638750Y-80290500D02*
G75*
G02*
X150142750Y-80290500I252000J0D01*
G01*
D12*
%TO.C,D5*%
X70000000Y-57360000D02*
X70000000Y-53350000D01*
X72000000Y-57360000D02*
X70000000Y-57360000D01*
X72000000Y-57360000D02*
X72000000Y-53350000D01*
%TO.C,D4*%
X130000000Y-37360000D02*
X130000000Y-33350000D01*
X132000000Y-37360000D02*
X130000000Y-37360000D01*
X132000000Y-37360000D02*
X132000000Y-33350000D01*
%TO.C,D6*%
X90000000Y-57360000D02*
X90000000Y-53350000D01*
X92000000Y-57360000D02*
X90000000Y-57360000D01*
X92000000Y-57360000D02*
X92000000Y-53350000D01*
%TO.C,D1*%
X70000000Y-37360000D02*
X70000000Y-33350000D01*
X72000000Y-37360000D02*
X70000000Y-37360000D01*
X72000000Y-37360000D02*
X72000000Y-33350000D01*
%TO.C,D8*%
X130000000Y-57360000D02*
X130000000Y-53350000D01*
X132000000Y-57360000D02*
X130000000Y-57360000D01*
X132000000Y-57360000D02*
X132000000Y-53350000D01*
%TD*%
M02*
