%TF.GenerationSoftware,KiCad,Pcbnew,9.0.1*%
%TF.CreationDate,2025-05-28T15:02:46+10:00*%
%TF.ProjectId,macroCAD,6d616372-6f43-4414-942e-6b696361645f,rev?*%
%TF.SameCoordinates,Original*%
%TF.FileFunction,Legend,Top*%
%TF.FilePolarity,Positive*%
%FSLAX46Y46*%
G04 Gerber Fmt 4.6, Leading zero omitted, Abs format (unit mm)*
G04 Created by KiCad (PCBNEW 9.0.1) date 2025-05-28 15:02:46*
%MOMM*%
%LPD*%
G01*
G04 APERTURE LIST*
%ADD10C,0.150000*%
G04 APERTURE END LIST*
D10*
%TO.C,SW1*%
X73000000Y-24000000D02*
X73000000Y-23000000D01*
X73000000Y-37000000D02*
X73000000Y-36000000D01*
X73000000Y-37000000D02*
X74000000Y-37000000D01*
X74000000Y-23000000D02*
X73000000Y-23000000D01*
X86000000Y-37000000D02*
X87000000Y-37000000D01*
X87000000Y-23000000D02*
X86000000Y-23000000D01*
X87000000Y-23000000D02*
X87000000Y-24000000D01*
X87000000Y-36000000D02*
X87000000Y-37000000D01*
%TO.C,SW5*%
X73000000Y-44000000D02*
X73000000Y-43000000D01*
X73000000Y-57000000D02*
X73000000Y-56000000D01*
X73000000Y-57000000D02*
X74000000Y-57000000D01*
X74000000Y-43000000D02*
X73000000Y-43000000D01*
X86000000Y-57000000D02*
X87000000Y-57000000D01*
X87000000Y-43000000D02*
X86000000Y-43000000D01*
X87000000Y-43000000D02*
X87000000Y-44000000D01*
X87000000Y-56000000D02*
X87000000Y-57000000D01*
%TO.C,SW2*%
X93000000Y-24000000D02*
X93000000Y-23000000D01*
X93000000Y-37000000D02*
X93000000Y-36000000D01*
X93000000Y-37000000D02*
X94000000Y-37000000D01*
X94000000Y-23000000D02*
X93000000Y-23000000D01*
X106000000Y-37000000D02*
X107000000Y-37000000D01*
X107000000Y-23000000D02*
X106000000Y-23000000D01*
X107000000Y-23000000D02*
X107000000Y-24000000D01*
X107000000Y-36000000D02*
X107000000Y-37000000D01*
%TO.C,SW6*%
X93000000Y-44000000D02*
X93000000Y-43000000D01*
X93000000Y-57000000D02*
X93000000Y-56000000D01*
X93000000Y-57000000D02*
X94000000Y-57000000D01*
X94000000Y-43000000D02*
X93000000Y-43000000D01*
X106000000Y-57000000D02*
X107000000Y-57000000D01*
X107000000Y-43000000D02*
X106000000Y-43000000D01*
X107000000Y-43000000D02*
X107000000Y-44000000D01*
X107000000Y-56000000D02*
X107000000Y-57000000D01*
%TO.C,SW4*%
X133000000Y-24000000D02*
X133000000Y-23000000D01*
X133000000Y-37000000D02*
X133000000Y-36000000D01*
X133000000Y-37000000D02*
X134000000Y-37000000D01*
X134000000Y-23000000D02*
X133000000Y-23000000D01*
X146000000Y-37000000D02*
X147000000Y-37000000D01*
X147000000Y-23000000D02*
X146000000Y-23000000D01*
X147000000Y-23000000D02*
X147000000Y-24000000D01*
X147000000Y-36000000D02*
X147000000Y-37000000D01*
%TO.C,SW3*%
X113000000Y-24000000D02*
X113000000Y-23000000D01*
X113000000Y-37000000D02*
X113000000Y-36000000D01*
X113000000Y-37000000D02*
X114000000Y-37000000D01*
X114000000Y-23000000D02*
X113000000Y-23000000D01*
X126000000Y-37000000D02*
X127000000Y-37000000D01*
X127000000Y-23000000D02*
X126000000Y-23000000D01*
X127000000Y-23000000D02*
X127000000Y-24000000D01*
X127000000Y-36000000D02*
X127000000Y-37000000D01*
%TO.C,SW9*%
X73000000Y-66000000D02*
X73000000Y-65000000D01*
X73000000Y-79000000D02*
X73000000Y-78000000D01*
X73000000Y-79000000D02*
X74000000Y-79000000D01*
X74000000Y-65000000D02*
X73000000Y-65000000D01*
X86000000Y-79000000D02*
X87000000Y-79000000D01*
X87000000Y-65000000D02*
X86000000Y-65000000D01*
X87000000Y-65000000D02*
X87000000Y-66000000D01*
X87000000Y-78000000D02*
X87000000Y-79000000D01*
%TO.C,SW8*%
X133000000Y-44000000D02*
X133000000Y-43000000D01*
X133000000Y-57000000D02*
X133000000Y-56000000D01*
X133000000Y-57000000D02*
X134000000Y-57000000D01*
X134000000Y-43000000D02*
X133000000Y-43000000D01*
X146000000Y-57000000D02*
X147000000Y-57000000D01*
X147000000Y-43000000D02*
X146000000Y-43000000D01*
X147000000Y-43000000D02*
X147000000Y-44000000D01*
X147000000Y-56000000D02*
X147000000Y-57000000D01*
%TO.C,SW7*%
X113000000Y-44000000D02*
X113000000Y-43000000D01*
X113000000Y-57000000D02*
X113000000Y-56000000D01*
X113000000Y-57000000D02*
X114000000Y-57000000D01*
X114000000Y-43000000D02*
X113000000Y-43000000D01*
X126000000Y-57000000D02*
X127000000Y-57000000D01*
X127000000Y-43000000D02*
X126000000Y-43000000D01*
X127000000Y-43000000D02*
X127000000Y-44000000D01*
X127000000Y-56000000D02*
X127000000Y-57000000D01*
%TO.C,SW10*%
X93000000Y-66000000D02*
X93000000Y-65000000D01*
X93000000Y-79000000D02*
X93000000Y-78000000D01*
X93000000Y-79000000D02*
X94000000Y-79000000D01*
X94000000Y-65000000D02*
X93000000Y-65000000D01*
X106000000Y-79000000D02*
X107000000Y-79000000D01*
X107000000Y-65000000D02*
X106000000Y-65000000D01*
X107000000Y-65000000D02*
X107000000Y-66000000D01*
X107000000Y-78000000D02*
X107000000Y-79000000D01*
%TD*%
M02*
