%TF.GenerationSoftware,KiCad,Pcbnew,9.0.1*%
%TF.CreationDate,2025-05-28T21:14:19+10:00*%
%TF.ProjectId,macroCAD,6d616372-6f43-4414-942e-6b696361645f,rev?*%
%TF.SameCoordinates,Original*%
%TF.FileFunction,Copper,L1,Top*%
%TF.FilePolarity,Positive*%
%FSLAX46Y46*%
G04 Gerber Fmt 4.6, Leading zero omitted, Abs format (unit mm)*
G04 Created by KiCad (PCBNEW 9.0.1) date 2025-05-28 21:14:19*
%MOMM*%
%LPD*%
G01*
G04 APERTURE LIST*
%TA.AperFunction,ViaPad*%
%ADD10C,0.600000*%
%TD*%
%TA.AperFunction,Conductor*%
%ADD11C,0.200000*%
%TD*%
G04 APERTURE END LIST*
D10*
%TO.N,ROW_1*%
X131750000Y-39250000D03*
X71750000Y-39000000D03*
X111750000Y-39250000D03*
X92000000Y-39250000D03*
X149350000Y-75850000D03*
%TO.N,COL_1*%
X124000000Y-75000000D03*
X141000000Y-76000000D03*
%TO.N,ROW_2*%
X92000000Y-58750000D03*
X144000000Y-81500000D03*
X130250000Y-59250000D03*
X71500000Y-77250000D03*
X91000000Y-78250000D03*
X111000000Y-58750000D03*
%TO.N,COL_2*%
X128000000Y-77000000D03*
X139500000Y-76500000D03*
%TO.N,COL_3*%
X140500000Y-74000000D03*
X147750000Y-48500000D03*
%TD*%
D11*
%TO.N,ROW_1*%
X111750000Y-39250000D02*
X131750000Y-39250000D01*
X149500000Y-75700000D02*
X149500000Y-43000000D01*
X149350000Y-75850000D02*
X149500000Y-75700000D01*
X72000000Y-39250000D02*
X92000000Y-39250000D01*
X145750000Y-39250000D02*
X131750000Y-39250000D01*
X149500000Y-43000000D02*
X145750000Y-39250000D01*
X92000000Y-39250000D02*
X111750000Y-39250000D01*
X71750000Y-39000000D02*
X72000000Y-39250000D01*
%TO.N,COL_1*%
X140000000Y-75000000D02*
X141000000Y-76000000D01*
X124000000Y-75000000D02*
X140000000Y-75000000D01*
%TO.N,ROW_2*%
X112250000Y-60000000D02*
X112250000Y-61250000D01*
X112250000Y-78750000D02*
X115000000Y-81500000D01*
X129250000Y-60250000D02*
X113250000Y-60250000D01*
X112250000Y-61250000D02*
X112250000Y-78750000D01*
X130250000Y-59250000D02*
X129250000Y-60250000D01*
X111000000Y-58750000D02*
X112250000Y-60000000D01*
X91000000Y-78250000D02*
X94250000Y-81500000D01*
X90250000Y-77500000D02*
X91000000Y-78250000D01*
X115000000Y-81500000D02*
X144000000Y-81500000D01*
X71750000Y-77500000D02*
X90250000Y-77500000D01*
X113250000Y-60250000D02*
X112250000Y-61250000D01*
X71500000Y-77250000D02*
X71750000Y-77500000D01*
X94250000Y-81500000D02*
X115000000Y-81500000D01*
X92000000Y-58750000D02*
X111000000Y-58750000D01*
%TO.N,COL_2*%
X128500000Y-76500000D02*
X139500000Y-76500000D01*
X128000000Y-77000000D02*
X128500000Y-76500000D01*
%TO.N,COL_3*%
X147750000Y-48500000D02*
X147750000Y-50250000D01*
X142000000Y-72500000D02*
X140500000Y-74000000D01*
X147750000Y-50250000D02*
X142000000Y-56000000D01*
X142000000Y-56000000D02*
X142000000Y-72500000D01*
%TD*%
%TA.AperFunction,Conductor*%
%TO.N,GND*%
G36*
X148504418Y-20250816D02*
G01*
X148704561Y-20265130D01*
X148722063Y-20267647D01*
X148913797Y-20309355D01*
X148930755Y-20314334D01*
X149114609Y-20382909D01*
X149130701Y-20390259D01*
X149302904Y-20484288D01*
X149317784Y-20493849D01*
X149474867Y-20611441D01*
X149488237Y-20623027D01*
X149626972Y-20761762D01*
X149638558Y-20775132D01*
X149756146Y-20932210D01*
X149765711Y-20947095D01*
X149859740Y-21119298D01*
X149867090Y-21135390D01*
X149935662Y-21319236D01*
X149940646Y-21336212D01*
X149982351Y-21527931D01*
X149984869Y-21545442D01*
X149999184Y-21745580D01*
X149999500Y-21754427D01*
X149999500Y-42350903D01*
X149979815Y-42417942D01*
X149927011Y-42463697D01*
X149857853Y-42473641D01*
X149794297Y-42444616D01*
X149787819Y-42438584D01*
X146237590Y-38888355D01*
X146237588Y-38888352D01*
X146118717Y-38769481D01*
X146118716Y-38769480D01*
X146031904Y-38719360D01*
X146031904Y-38719359D01*
X146031900Y-38719358D01*
X145981785Y-38690423D01*
X145829057Y-38649499D01*
X145670943Y-38649499D01*
X145663347Y-38649499D01*
X145663331Y-38649500D01*
X132329766Y-38649500D01*
X132262727Y-38629815D01*
X132260875Y-38628602D01*
X132129185Y-38540609D01*
X132129172Y-38540602D01*
X131983501Y-38480264D01*
X131983489Y-38480261D01*
X131828845Y-38449500D01*
X131828842Y-38449500D01*
X131671158Y-38449500D01*
X131671155Y-38449500D01*
X131516510Y-38480261D01*
X131516498Y-38480264D01*
X131370827Y-38540602D01*
X131370814Y-38540609D01*
X131239125Y-38628602D01*
X131172447Y-38649480D01*
X131170234Y-38649500D01*
X112329766Y-38649500D01*
X112262727Y-38629815D01*
X112260875Y-38628602D01*
X112129185Y-38540609D01*
X112129172Y-38540602D01*
X111983501Y-38480264D01*
X111983489Y-38480261D01*
X111828845Y-38449500D01*
X111828842Y-38449500D01*
X111671158Y-38449500D01*
X111671155Y-38449500D01*
X111516510Y-38480261D01*
X111516498Y-38480264D01*
X111370827Y-38540602D01*
X111370814Y-38540609D01*
X111239125Y-38628602D01*
X111172447Y-38649480D01*
X111170234Y-38649500D01*
X92579766Y-38649500D01*
X92512727Y-38629815D01*
X92510875Y-38628602D01*
X92379185Y-38540609D01*
X92379172Y-38540602D01*
X92233501Y-38480264D01*
X92233489Y-38480261D01*
X92078845Y-38449500D01*
X92078842Y-38449500D01*
X91921158Y-38449500D01*
X91921155Y-38449500D01*
X91766510Y-38480261D01*
X91766498Y-38480264D01*
X91620827Y-38540602D01*
X91620814Y-38540609D01*
X91489125Y-38628602D01*
X91422447Y-38649480D01*
X91420234Y-38649500D01*
X72544836Y-38649500D01*
X72477797Y-38629815D01*
X72441734Y-38594391D01*
X72371789Y-38489710D01*
X72260292Y-38378213D01*
X72260288Y-38378210D01*
X72129185Y-38290609D01*
X72129172Y-38290602D01*
X71983501Y-38230264D01*
X71983489Y-38230261D01*
X71828845Y-38199500D01*
X71828842Y-38199500D01*
X71671158Y-38199500D01*
X71671155Y-38199500D01*
X71516510Y-38230261D01*
X71516498Y-38230264D01*
X71370827Y-38290602D01*
X71370814Y-38290609D01*
X71239711Y-38378210D01*
X71239707Y-38378213D01*
X71128213Y-38489707D01*
X71128210Y-38489711D01*
X71040609Y-38620814D01*
X71040602Y-38620827D01*
X70980264Y-38766498D01*
X70980261Y-38766510D01*
X70949500Y-38921153D01*
X70949500Y-39078846D01*
X70980261Y-39233489D01*
X70980264Y-39233501D01*
X71040602Y-39379172D01*
X71040609Y-39379185D01*
X71128210Y-39510288D01*
X71128213Y-39510292D01*
X71239707Y-39621786D01*
X71239711Y-39621789D01*
X71370814Y-39709390D01*
X71370827Y-39709397D01*
X71516498Y-39769735D01*
X71516503Y-39769737D01*
X71671153Y-39800499D01*
X71671156Y-39800500D01*
X71671158Y-39800500D01*
X71721638Y-39800500D01*
X71754587Y-39804958D01*
X71765357Y-39807926D01*
X71768216Y-39809577D01*
X71880019Y-39839534D01*
X71920942Y-39850500D01*
X71920943Y-39850500D01*
X91420234Y-39850500D01*
X91487273Y-39870185D01*
X91489125Y-39871398D01*
X91620814Y-39959390D01*
X91620827Y-39959397D01*
X91766498Y-40019735D01*
X91766503Y-40019737D01*
X91921153Y-40050499D01*
X91921156Y-40050500D01*
X91921158Y-40050500D01*
X92078844Y-40050500D01*
X92078845Y-40050499D01*
X92233497Y-40019737D01*
X92379179Y-39959394D01*
X92379185Y-39959390D01*
X92510875Y-39871398D01*
X92577553Y-39850520D01*
X92579766Y-39850500D01*
X111170234Y-39850500D01*
X111237273Y-39870185D01*
X111239125Y-39871398D01*
X111370814Y-39959390D01*
X111370827Y-39959397D01*
X111516498Y-40019735D01*
X111516503Y-40019737D01*
X111671153Y-40050499D01*
X111671156Y-40050500D01*
X111671158Y-40050500D01*
X111828844Y-40050500D01*
X111828845Y-40050499D01*
X111983497Y-40019737D01*
X112129179Y-39959394D01*
X112129185Y-39959390D01*
X112260875Y-39871398D01*
X112327553Y-39850520D01*
X112329766Y-39850500D01*
X131170234Y-39850500D01*
X131237273Y-39870185D01*
X131239125Y-39871398D01*
X131370814Y-39959390D01*
X131370827Y-39959397D01*
X131516498Y-40019735D01*
X131516503Y-40019737D01*
X131671153Y-40050499D01*
X131671156Y-40050500D01*
X131671158Y-40050500D01*
X131828844Y-40050500D01*
X131828845Y-40050499D01*
X131983497Y-40019737D01*
X132129179Y-39959394D01*
X132129185Y-39959390D01*
X132260875Y-39871398D01*
X132327553Y-39850520D01*
X132329766Y-39850500D01*
X145449903Y-39850500D01*
X145516942Y-39870185D01*
X145537584Y-39886819D01*
X148863181Y-43212416D01*
X148896666Y-43273739D01*
X148899500Y-43300097D01*
X148899500Y-75121981D01*
X148879815Y-75189020D01*
X148844395Y-75225080D01*
X148839715Y-75228207D01*
X148839707Y-75228213D01*
X148728213Y-75339707D01*
X148728210Y-75339711D01*
X148640609Y-75470814D01*
X148640602Y-75470827D01*
X148580264Y-75616498D01*
X148580261Y-75616510D01*
X148549500Y-75771153D01*
X148549500Y-75928846D01*
X148580261Y-76083489D01*
X148580264Y-76083501D01*
X148640602Y-76229172D01*
X148640609Y-76229185D01*
X148728210Y-76360288D01*
X148728213Y-76360292D01*
X148839707Y-76471786D01*
X148839711Y-76471789D01*
X148970814Y-76559390D01*
X148970827Y-76559397D01*
X149116498Y-76619735D01*
X149116503Y-76619737D01*
X149271153Y-76650499D01*
X149271156Y-76650500D01*
X149271158Y-76650500D01*
X149428844Y-76650500D01*
X149428845Y-76650499D01*
X149583497Y-76619737D01*
X149729179Y-76559394D01*
X149806609Y-76507657D01*
X149873286Y-76486779D01*
X149940666Y-76505263D01*
X149987357Y-76557242D01*
X149999500Y-76610759D01*
X149999500Y-80495572D01*
X149999184Y-80504418D01*
X149999184Y-80504419D01*
X149984869Y-80704557D01*
X149982351Y-80722068D01*
X149940646Y-80913787D01*
X149935662Y-80930763D01*
X149867090Y-81114609D01*
X149859740Y-81130701D01*
X149765711Y-81302904D01*
X149756146Y-81317789D01*
X149638558Y-81474867D01*
X149626972Y-81488237D01*
X149488237Y-81626972D01*
X149474867Y-81638558D01*
X149317789Y-81756146D01*
X149302904Y-81765711D01*
X149130701Y-81859740D01*
X149114609Y-81867090D01*
X148930763Y-81935662D01*
X148913787Y-81940646D01*
X148722068Y-81982351D01*
X148704557Y-81984869D01*
X148523779Y-81997799D01*
X148504417Y-81999184D01*
X148495572Y-81999500D01*
X144845134Y-81999500D01*
X144778095Y-81979815D01*
X144732340Y-81927011D01*
X144722396Y-81857853D01*
X144730573Y-81828047D01*
X144747236Y-81787819D01*
X144769737Y-81733497D01*
X144800500Y-81578842D01*
X144800500Y-81421158D01*
X144800500Y-81421155D01*
X144800499Y-81421153D01*
X144779938Y-81317789D01*
X144769737Y-81266503D01*
X144769735Y-81266498D01*
X144709397Y-81120827D01*
X144709390Y-81120814D01*
X144621789Y-80989711D01*
X144621786Y-80989707D01*
X144510292Y-80878213D01*
X144510288Y-80878210D01*
X144379185Y-80790609D01*
X144379172Y-80790602D01*
X144233501Y-80730264D01*
X144233489Y-80730261D01*
X144078845Y-80699500D01*
X144078842Y-80699500D01*
X143921158Y-80699500D01*
X143921155Y-80699500D01*
X143766510Y-80730261D01*
X143766498Y-80730264D01*
X143620827Y-80790602D01*
X143620814Y-80790609D01*
X143489125Y-80878602D01*
X143422447Y-80899480D01*
X143420234Y-80899500D01*
X115300097Y-80899500D01*
X115233058Y-80879815D01*
X115212416Y-80863181D01*
X112886819Y-78537584D01*
X112853334Y-78476261D01*
X112850500Y-78449903D01*
X112850500Y-74921153D01*
X123199500Y-74921153D01*
X123199500Y-75078846D01*
X123230261Y-75233489D01*
X123230264Y-75233501D01*
X123290602Y-75379172D01*
X123290609Y-75379185D01*
X123378210Y-75510288D01*
X123378213Y-75510292D01*
X123489707Y-75621786D01*
X123489711Y-75621789D01*
X123620814Y-75709390D01*
X123620827Y-75709397D01*
X123699894Y-75742147D01*
X123766503Y-75769737D01*
X123871418Y-75790606D01*
X123921153Y-75800499D01*
X123921156Y-75800500D01*
X123921158Y-75800500D01*
X124078844Y-75800500D01*
X124078845Y-75800499D01*
X124233497Y-75769737D01*
X124379179Y-75709394D01*
X124383480Y-75706520D01*
X124510875Y-75621398D01*
X124577553Y-75600520D01*
X124579766Y-75600500D01*
X138996561Y-75600500D01*
X139029061Y-75610043D01*
X139061728Y-75619005D01*
X139062497Y-75619861D01*
X139063600Y-75620185D01*
X139085768Y-75645769D01*
X139108418Y-75670984D01*
X139108602Y-75672120D01*
X139109355Y-75672989D01*
X139114176Y-75706520D01*
X139119594Y-75739954D01*
X139119135Y-75741007D01*
X139119299Y-75742147D01*
X139105218Y-75772978D01*
X139091708Y-75804017D01*
X139090582Y-75805028D01*
X139090274Y-75805703D01*
X139065452Y-75827602D01*
X138989125Y-75878602D01*
X138922447Y-75899480D01*
X138920234Y-75899500D01*
X128586670Y-75899500D01*
X128586654Y-75899499D01*
X128579058Y-75899499D01*
X128420943Y-75899499D01*
X128344579Y-75919961D01*
X128268214Y-75940423D01*
X128268209Y-75940426D01*
X128131290Y-76019475D01*
X128131286Y-76019478D01*
X127985337Y-76165427D01*
X127924014Y-76198911D01*
X127921848Y-76199362D01*
X127766508Y-76230261D01*
X127766498Y-76230264D01*
X127620827Y-76290602D01*
X127620814Y-76290609D01*
X127489711Y-76378210D01*
X127489707Y-76378213D01*
X127378213Y-76489707D01*
X127378210Y-76489711D01*
X127290609Y-76620814D01*
X127290602Y-76620827D01*
X127230264Y-76766498D01*
X127230261Y-76766510D01*
X127199500Y-76921153D01*
X127199500Y-77078846D01*
X127230261Y-77233489D01*
X127230264Y-77233501D01*
X127290602Y-77379172D01*
X127290609Y-77379185D01*
X127378210Y-77510288D01*
X127378213Y-77510292D01*
X127489707Y-77621786D01*
X127489711Y-77621789D01*
X127620814Y-77709390D01*
X127620827Y-77709397D01*
X127766498Y-77769735D01*
X127766503Y-77769737D01*
X127921153Y-77800499D01*
X127921156Y-77800500D01*
X127921158Y-77800500D01*
X128078844Y-77800500D01*
X128078845Y-77800499D01*
X128233497Y-77769737D01*
X128379179Y-77709394D01*
X128510289Y-77621789D01*
X128621789Y-77510289D01*
X128709394Y-77379179D01*
X128769737Y-77233497D01*
X128774531Y-77209397D01*
X128776339Y-77200309D01*
X128808724Y-77138398D01*
X128869439Y-77103824D01*
X128897956Y-77100500D01*
X138920234Y-77100500D01*
X138987273Y-77120185D01*
X138989125Y-77121398D01*
X139120814Y-77209390D01*
X139120827Y-77209397D01*
X139266498Y-77269735D01*
X139266503Y-77269737D01*
X139421153Y-77300499D01*
X139421156Y-77300500D01*
X139421158Y-77300500D01*
X139578844Y-77300500D01*
X139578845Y-77300499D01*
X139733497Y-77269737D01*
X139879179Y-77209394D01*
X140010289Y-77121789D01*
X140121789Y-77010289D01*
X140209394Y-76879179D01*
X140212854Y-76870827D01*
X140241984Y-76800499D01*
X140269737Y-76733497D01*
X140279508Y-76684373D01*
X140311892Y-76622464D01*
X140372607Y-76587890D01*
X140442377Y-76591629D01*
X140484696Y-76618295D01*
X140485001Y-76617924D01*
X140487957Y-76620350D01*
X140488806Y-76620885D01*
X140489707Y-76621786D01*
X140489711Y-76621789D01*
X140620814Y-76709390D01*
X140620827Y-76709397D01*
X140694013Y-76739711D01*
X140766503Y-76769737D01*
X140921153Y-76800499D01*
X140921156Y-76800500D01*
X140921158Y-76800500D01*
X141078844Y-76800500D01*
X141078845Y-76800499D01*
X141233497Y-76769737D01*
X141379179Y-76709394D01*
X141510289Y-76621789D01*
X141621789Y-76510289D01*
X141709394Y-76379179D01*
X141769737Y-76233497D01*
X141800500Y-76078842D01*
X141800500Y-75921158D01*
X141800500Y-75921155D01*
X141800499Y-75921153D01*
X141769738Y-75766510D01*
X141769737Y-75766503D01*
X141769735Y-75766498D01*
X141709397Y-75620827D01*
X141709390Y-75620814D01*
X141621789Y-75489711D01*
X141621786Y-75489707D01*
X141510292Y-75378213D01*
X141510288Y-75378210D01*
X141379185Y-75290609D01*
X141379172Y-75290602D01*
X141233501Y-75230264D01*
X141233491Y-75230261D01*
X141078151Y-75199362D01*
X141016241Y-75166977D01*
X141014662Y-75165426D01*
X140783740Y-74934504D01*
X140750255Y-74873181D01*
X140755239Y-74803489D01*
X140797111Y-74747556D01*
X140823962Y-74732265D01*
X140879179Y-74709394D01*
X141010289Y-74621789D01*
X141121789Y-74510289D01*
X141209394Y-74379179D01*
X141269737Y-74233497D01*
X141290354Y-74129847D01*
X141300638Y-74078150D01*
X141333023Y-74016239D01*
X141334520Y-74014714D01*
X142358506Y-72990727D01*
X142358511Y-72990724D01*
X142368714Y-72980520D01*
X142368716Y-72980520D01*
X142480520Y-72868716D01*
X142559577Y-72731784D01*
X142600500Y-72579057D01*
X142600500Y-56300096D01*
X142620185Y-56233057D01*
X142636814Y-56212420D01*
X148118713Y-50730521D01*
X148118716Y-50730520D01*
X148230520Y-50618716D01*
X148280639Y-50531904D01*
X148309577Y-50481785D01*
X148350501Y-50329057D01*
X148350501Y-50170943D01*
X148350501Y-50163348D01*
X148350500Y-50163330D01*
X148350500Y-49079765D01*
X148370185Y-49012726D01*
X148371398Y-49010874D01*
X148392501Y-48979292D01*
X148459394Y-48879179D01*
X148519737Y-48733497D01*
X148550500Y-48578842D01*
X148550500Y-48421158D01*
X148550500Y-48421155D01*
X148550499Y-48421153D01*
X148519738Y-48266510D01*
X148519737Y-48266503D01*
X148507051Y-48235876D01*
X148459397Y-48120827D01*
X148459390Y-48120814D01*
X148371789Y-47989711D01*
X148371786Y-47989707D01*
X148260292Y-47878213D01*
X148260288Y-47878210D01*
X148129185Y-47790609D01*
X148129172Y-47790602D01*
X147983501Y-47730264D01*
X147983489Y-47730261D01*
X147828845Y-47699500D01*
X147828842Y-47699500D01*
X147671158Y-47699500D01*
X147671155Y-47699500D01*
X147516510Y-47730261D01*
X147516498Y-47730264D01*
X147370827Y-47790602D01*
X147370814Y-47790609D01*
X147239711Y-47878210D01*
X147239707Y-47878213D01*
X147128213Y-47989707D01*
X147128210Y-47989711D01*
X147040609Y-48120814D01*
X147040602Y-48120827D01*
X146980264Y-48266498D01*
X146980261Y-48266510D01*
X146949500Y-48421153D01*
X146949500Y-48578846D01*
X146980261Y-48733489D01*
X146980264Y-48733501D01*
X147040602Y-48879172D01*
X147040609Y-48879185D01*
X147128602Y-49010874D01*
X147149480Y-49077551D01*
X147149500Y-49079765D01*
X147149500Y-49949902D01*
X147129815Y-50016941D01*
X147113181Y-50037583D01*
X141519481Y-55631282D01*
X141519479Y-55631285D01*
X141469361Y-55718094D01*
X141469359Y-55718096D01*
X141440425Y-55768209D01*
X141440424Y-55768210D01*
X141440423Y-55768215D01*
X141399499Y-55920943D01*
X141399499Y-55920945D01*
X141399499Y-56089046D01*
X141399500Y-56089059D01*
X141399500Y-72199903D01*
X141379815Y-72266942D01*
X141363181Y-72287584D01*
X140485339Y-73165425D01*
X140424016Y-73198910D01*
X140421850Y-73199361D01*
X140266508Y-73230261D01*
X140266498Y-73230264D01*
X140120827Y-73290602D01*
X140120814Y-73290609D01*
X139989711Y-73378210D01*
X139989707Y-73378213D01*
X139878213Y-73489707D01*
X139878210Y-73489711D01*
X139790609Y-73620814D01*
X139790602Y-73620827D01*
X139730264Y-73766498D01*
X139730261Y-73766510D01*
X139699500Y-73921153D01*
X139699500Y-74078846D01*
X139730261Y-74233489D01*
X139732031Y-74239324D01*
X139729279Y-74240158D01*
X139735503Y-74297359D01*
X139704309Y-74359878D01*
X139644266Y-74395608D01*
X139613445Y-74399500D01*
X124579766Y-74399500D01*
X124512727Y-74379815D01*
X124510875Y-74378602D01*
X124379185Y-74290609D01*
X124379172Y-74290602D01*
X124233501Y-74230264D01*
X124233489Y-74230261D01*
X124078845Y-74199500D01*
X124078842Y-74199500D01*
X123921158Y-74199500D01*
X123921155Y-74199500D01*
X123766510Y-74230261D01*
X123766498Y-74230264D01*
X123620827Y-74290602D01*
X123620814Y-74290609D01*
X123489711Y-74378210D01*
X123489707Y-74378213D01*
X123378213Y-74489707D01*
X123378210Y-74489711D01*
X123290609Y-74620814D01*
X123290602Y-74620827D01*
X123230264Y-74766498D01*
X123230261Y-74766510D01*
X123199500Y-74921153D01*
X112850500Y-74921153D01*
X112850500Y-63897648D01*
X117199500Y-63897648D01*
X117199500Y-64102351D01*
X117231522Y-64304534D01*
X117294781Y-64499223D01*
X117387715Y-64681613D01*
X117508028Y-64847213D01*
X117652786Y-64991971D01*
X117807749Y-65104556D01*
X117818390Y-65112287D01*
X117930677Y-65169500D01*
X118000776Y-65205218D01*
X118000778Y-65205218D01*
X118000781Y-65205220D01*
X118105137Y-65239127D01*
X118195465Y-65268477D01*
X118296557Y-65284488D01*
X118397648Y-65300500D01*
X118397649Y-65300500D01*
X118602351Y-65300500D01*
X118602352Y-65300500D01*
X118804534Y-65268477D01*
X118999219Y-65205220D01*
X119181610Y-65112287D01*
X119274590Y-65044732D01*
X119347213Y-64991971D01*
X119347215Y-64991968D01*
X119347219Y-64991966D01*
X119491966Y-64847219D01*
X119491968Y-64847215D01*
X119491971Y-64847213D01*
X119544732Y-64774590D01*
X119612287Y-64681610D01*
X119705220Y-64499219D01*
X119768477Y-64304534D01*
X119800500Y-64102352D01*
X119800500Y-63897648D01*
X119768477Y-63695466D01*
X119705220Y-63500781D01*
X119705218Y-63500778D01*
X119705218Y-63500776D01*
X119671503Y-63434607D01*
X119612287Y-63318390D01*
X119604556Y-63307749D01*
X119491971Y-63152786D01*
X119347213Y-63008028D01*
X119181613Y-62887715D01*
X119181612Y-62887714D01*
X119181610Y-62887713D01*
X119124653Y-62858691D01*
X118999223Y-62794781D01*
X118804534Y-62731522D01*
X118629995Y-62703878D01*
X118602352Y-62699500D01*
X118397648Y-62699500D01*
X118373329Y-62703351D01*
X118195465Y-62731522D01*
X118000776Y-62794781D01*
X117818386Y-62887715D01*
X117652786Y-63008028D01*
X117508028Y-63152786D01*
X117387715Y-63318386D01*
X117294781Y-63500776D01*
X117231522Y-63695465D01*
X117199500Y-63897648D01*
X112850500Y-63897648D01*
X112850500Y-61550097D01*
X112870185Y-61483058D01*
X112886819Y-61462416D01*
X113462417Y-60886819D01*
X113523740Y-60853334D01*
X113550098Y-60850500D01*
X129163331Y-60850500D01*
X129163347Y-60850501D01*
X129170943Y-60850501D01*
X129329054Y-60850501D01*
X129329057Y-60850501D01*
X129481785Y-60809577D01*
X129531904Y-60780639D01*
X129618716Y-60730520D01*
X129730520Y-60618716D01*
X129730520Y-60618714D01*
X129740728Y-60608507D01*
X129740729Y-60608504D01*
X130264665Y-60084570D01*
X130325984Y-60051088D01*
X130328151Y-60050637D01*
X130328840Y-60050500D01*
X130328842Y-60050500D01*
X130483497Y-60019737D01*
X130629179Y-59959394D01*
X130760289Y-59871789D01*
X130871789Y-59760289D01*
X130959394Y-59629179D01*
X131019737Y-59483497D01*
X131050500Y-59328842D01*
X131050500Y-59171158D01*
X131050500Y-59171155D01*
X131050499Y-59171153D01*
X131019738Y-59016510D01*
X131019738Y-59016508D01*
X131019737Y-59016503D01*
X131006062Y-58983489D01*
X130959397Y-58870827D01*
X130959390Y-58870814D01*
X130871789Y-58739711D01*
X130871786Y-58739707D01*
X130760292Y-58628213D01*
X130760288Y-58628210D01*
X130629185Y-58540609D01*
X130629172Y-58540602D01*
X130483501Y-58480264D01*
X130483489Y-58480261D01*
X130328845Y-58449500D01*
X130328842Y-58449500D01*
X130171158Y-58449500D01*
X130171155Y-58449500D01*
X130016510Y-58480261D01*
X130016498Y-58480264D01*
X129870827Y-58540602D01*
X129870814Y-58540609D01*
X129739711Y-58628210D01*
X129739707Y-58628213D01*
X129628213Y-58739707D01*
X129628210Y-58739711D01*
X129540609Y-58870814D01*
X129540602Y-58870827D01*
X129480264Y-59016498D01*
X129480261Y-59016508D01*
X129449362Y-59171849D01*
X129416977Y-59233759D01*
X129415426Y-59235338D01*
X129037584Y-59613181D01*
X128976261Y-59646666D01*
X128949903Y-59649500D01*
X113336670Y-59649500D01*
X113336654Y-59649499D01*
X113329058Y-59649499D01*
X113170943Y-59649499D01*
X113094579Y-59669961D01*
X113018214Y-59690423D01*
X113018211Y-59690425D01*
X112935436Y-59738214D01*
X112867536Y-59754685D01*
X112801509Y-59731832D01*
X112766050Y-59692825D01*
X112764664Y-59690425D01*
X112730520Y-59631284D01*
X112618716Y-59519480D01*
X112618715Y-59519479D01*
X112614385Y-59515149D01*
X112614374Y-59515139D01*
X111834574Y-58735339D01*
X111801089Y-58674016D01*
X111800638Y-58671849D01*
X111774531Y-58540606D01*
X111769737Y-58516503D01*
X111769735Y-58516498D01*
X111709397Y-58370827D01*
X111709390Y-58370814D01*
X111621789Y-58239711D01*
X111621786Y-58239707D01*
X111510292Y-58128213D01*
X111510288Y-58128210D01*
X111379185Y-58040609D01*
X111379172Y-58040602D01*
X111233501Y-57980264D01*
X111233489Y-57980261D01*
X111078845Y-57949500D01*
X111078842Y-57949500D01*
X110921158Y-57949500D01*
X110921155Y-57949500D01*
X110766510Y-57980261D01*
X110766498Y-57980264D01*
X110620827Y-58040602D01*
X110620814Y-58040609D01*
X110489125Y-58128602D01*
X110422447Y-58149480D01*
X110420234Y-58149500D01*
X92579766Y-58149500D01*
X92512727Y-58129815D01*
X92510875Y-58128602D01*
X92379185Y-58040609D01*
X92379172Y-58040602D01*
X92233501Y-57980264D01*
X92233489Y-57980261D01*
X92078845Y-57949500D01*
X92078842Y-57949500D01*
X91921158Y-57949500D01*
X91921155Y-57949500D01*
X91766510Y-57980261D01*
X91766498Y-57980264D01*
X91620827Y-58040602D01*
X91620814Y-58040609D01*
X91489711Y-58128210D01*
X91489707Y-58128213D01*
X91378213Y-58239707D01*
X91378210Y-58239711D01*
X91290609Y-58370814D01*
X91290602Y-58370827D01*
X91230264Y-58516498D01*
X91230261Y-58516510D01*
X91199500Y-58671153D01*
X91199500Y-58828846D01*
X91230261Y-58983489D01*
X91230264Y-58983501D01*
X91290602Y-59129172D01*
X91290609Y-59129185D01*
X91378210Y-59260288D01*
X91378213Y-59260292D01*
X91489707Y-59371786D01*
X91489711Y-59371789D01*
X91620814Y-59459390D01*
X91620827Y-59459397D01*
X91766498Y-59519735D01*
X91766503Y-59519737D01*
X91921153Y-59550499D01*
X91921156Y-59550500D01*
X91921158Y-59550500D01*
X92078844Y-59550500D01*
X92078845Y-59550499D01*
X92233497Y-59519737D01*
X92379179Y-59459394D01*
X92379185Y-59459390D01*
X92510875Y-59371398D01*
X92577553Y-59350520D01*
X92579766Y-59350500D01*
X110420234Y-59350500D01*
X110487273Y-59370185D01*
X110489125Y-59371398D01*
X110620814Y-59459390D01*
X110620827Y-59459397D01*
X110766498Y-59519735D01*
X110766503Y-59519737D01*
X110831147Y-59532595D01*
X110921849Y-59550638D01*
X110983760Y-59583023D01*
X110985339Y-59584574D01*
X111613181Y-60212416D01*
X111646666Y-60273739D01*
X111649500Y-60300097D01*
X111649500Y-61170939D01*
X111649499Y-61170943D01*
X111649499Y-61329057D01*
X111649500Y-61329060D01*
X111649500Y-78663330D01*
X111649499Y-78663348D01*
X111649499Y-78829054D01*
X111649498Y-78829054D01*
X111690352Y-78981523D01*
X111690423Y-78981785D01*
X111712335Y-79019737D01*
X111769479Y-79118714D01*
X111769481Y-79118717D01*
X111888349Y-79237585D01*
X111888355Y-79237590D01*
X113338584Y-80687819D01*
X113372069Y-80749142D01*
X113367085Y-80818834D01*
X113325213Y-80874767D01*
X113259749Y-80899184D01*
X113250903Y-80899500D01*
X94550097Y-80899500D01*
X94483058Y-80879815D01*
X94462416Y-80863181D01*
X91834574Y-78235339D01*
X91801089Y-78174016D01*
X91800638Y-78171849D01*
X91769738Y-78016510D01*
X91769737Y-78016503D01*
X91709794Y-77871786D01*
X91709397Y-77870827D01*
X91709390Y-77870814D01*
X91621789Y-77739711D01*
X91621786Y-77739707D01*
X91510292Y-77628213D01*
X91510288Y-77628210D01*
X91379185Y-77540609D01*
X91379172Y-77540602D01*
X91233501Y-77480264D01*
X91233491Y-77480261D01*
X91078149Y-77449361D01*
X91016238Y-77416976D01*
X91014660Y-77415425D01*
X90737590Y-77138355D01*
X90737588Y-77138352D01*
X90618717Y-77019481D01*
X90618716Y-77019480D01*
X90531904Y-76969360D01*
X90531904Y-76969359D01*
X90531900Y-76969358D01*
X90481785Y-76940423D01*
X90329057Y-76899499D01*
X90170943Y-76899499D01*
X90163347Y-76899499D01*
X90163331Y-76899500D01*
X72294836Y-76899500D01*
X72227797Y-76879815D01*
X72191734Y-76844391D01*
X72121789Y-76739710D01*
X72010292Y-76628213D01*
X72010288Y-76628210D01*
X71879185Y-76540609D01*
X71879172Y-76540602D01*
X71733501Y-76480264D01*
X71733489Y-76480261D01*
X71578845Y-76449500D01*
X71578842Y-76449500D01*
X71421158Y-76449500D01*
X71421155Y-76449500D01*
X71266510Y-76480261D01*
X71266498Y-76480264D01*
X71120827Y-76540602D01*
X71120814Y-76540609D01*
X70989711Y-76628210D01*
X70989707Y-76628213D01*
X70878213Y-76739707D01*
X70878210Y-76739711D01*
X70790609Y-76870814D01*
X70790602Y-76870827D01*
X70730264Y-77016498D01*
X70730261Y-77016510D01*
X70699500Y-77171153D01*
X70699500Y-77328846D01*
X70730261Y-77483489D01*
X70730264Y-77483501D01*
X70790602Y-77629172D01*
X70790609Y-77629185D01*
X70878210Y-77760288D01*
X70878213Y-77760292D01*
X70989707Y-77871786D01*
X70989711Y-77871789D01*
X71120814Y-77959390D01*
X71120827Y-77959397D01*
X71258683Y-78016498D01*
X71266503Y-78019737D01*
X71421153Y-78050499D01*
X71421156Y-78050500D01*
X71421158Y-78050500D01*
X71471638Y-78050500D01*
X71504587Y-78054958D01*
X71515357Y-78057926D01*
X71518216Y-78059577D01*
X71630019Y-78089534D01*
X71670942Y-78100500D01*
X71670943Y-78100500D01*
X89949903Y-78100500D01*
X89979343Y-78109144D01*
X90009330Y-78115668D01*
X90014345Y-78119422D01*
X90016942Y-78120185D01*
X90037584Y-78136819D01*
X90165425Y-78264660D01*
X90198910Y-78325983D01*
X90199361Y-78328149D01*
X90230261Y-78483491D01*
X90230264Y-78483501D01*
X90290602Y-78629172D01*
X90290609Y-78629185D01*
X90378210Y-78760288D01*
X90378213Y-78760292D01*
X90489707Y-78871786D01*
X90489711Y-78871789D01*
X90620814Y-78959390D01*
X90620827Y-78959397D01*
X90766498Y-79019735D01*
X90766503Y-79019737D01*
X90831147Y-79032595D01*
X90921849Y-79050638D01*
X90983760Y-79083023D01*
X90985339Y-79084574D01*
X93688584Y-81787819D01*
X93722069Y-81849142D01*
X93717085Y-81918834D01*
X93675213Y-81974767D01*
X93609749Y-81999184D01*
X93600903Y-81999500D01*
X71254428Y-81999500D01*
X71245582Y-81999184D01*
X71223622Y-81997613D01*
X71045442Y-81984869D01*
X71027931Y-81982351D01*
X70836212Y-81940646D01*
X70819236Y-81935662D01*
X70635390Y-81867090D01*
X70619298Y-81859740D01*
X70447095Y-81765711D01*
X70432210Y-81756146D01*
X70275132Y-81638558D01*
X70261762Y-81626972D01*
X70123027Y-81488237D01*
X70111441Y-81474867D01*
X69993849Y-81317784D01*
X69984288Y-81302904D01*
X69890259Y-81130701D01*
X69882909Y-81114609D01*
X69836324Y-80989711D01*
X69814334Y-80930755D01*
X69809355Y-80913797D01*
X69767647Y-80722063D01*
X69765130Y-80704556D01*
X69764768Y-80699500D01*
X69750816Y-80504418D01*
X69750500Y-80495572D01*
X69750500Y-80147648D01*
X70199500Y-80147648D01*
X70199500Y-80352351D01*
X70231522Y-80554534D01*
X70294781Y-80749223D01*
X70352847Y-80863181D01*
X70387281Y-80930763D01*
X70387715Y-80931613D01*
X70508028Y-81097213D01*
X70652786Y-81241971D01*
X70757143Y-81317789D01*
X70818390Y-81362287D01*
X70933921Y-81421153D01*
X71000776Y-81455218D01*
X71000778Y-81455218D01*
X71000781Y-81455220D01*
X71083091Y-81481964D01*
X71195465Y-81518477D01*
X71256304Y-81528113D01*
X71397648Y-81550500D01*
X71397649Y-81550500D01*
X71602351Y-81550500D01*
X71602352Y-81550500D01*
X71804534Y-81518477D01*
X71999219Y-81455220D01*
X72181610Y-81362287D01*
X72313437Y-81266510D01*
X72347213Y-81241971D01*
X72347215Y-81241968D01*
X72347219Y-81241966D01*
X72491966Y-81097219D01*
X72491968Y-81097215D01*
X72491971Y-81097213D01*
X72570077Y-80989707D01*
X72612287Y-80931610D01*
X72705220Y-80749219D01*
X72768477Y-80554534D01*
X72800500Y-80352352D01*
X72800500Y-80147648D01*
X72768477Y-79945466D01*
X72705220Y-79750781D01*
X72705218Y-79750778D01*
X72705218Y-79750776D01*
X72671503Y-79684607D01*
X72612287Y-79568390D01*
X72604556Y-79557749D01*
X72491971Y-79402786D01*
X72347213Y-79258028D01*
X72181613Y-79137715D01*
X72181612Y-79137714D01*
X72181610Y-79137713D01*
X72124653Y-79108691D01*
X71999223Y-79044781D01*
X71804534Y-78981522D01*
X71629995Y-78953878D01*
X71602352Y-78949500D01*
X71397648Y-78949500D01*
X71373329Y-78953351D01*
X71195465Y-78981522D01*
X71000776Y-79044781D01*
X70818386Y-79137715D01*
X70652786Y-79258028D01*
X70508028Y-79402786D01*
X70387715Y-79568386D01*
X70294781Y-79750776D01*
X70231522Y-79945465D01*
X70199500Y-80147648D01*
X69750500Y-80147648D01*
X69750500Y-71913312D01*
X73818600Y-71913312D01*
X73818600Y-72086687D01*
X73845720Y-72257913D01*
X73899290Y-72422788D01*
X73899291Y-72422791D01*
X73977998Y-72577260D01*
X74079899Y-72717514D01*
X74202486Y-72840101D01*
X74342740Y-72942002D01*
X74418336Y-72980520D01*
X74497208Y-73020708D01*
X74497211Y-73020709D01*
X74579648Y-73047494D01*
X74662088Y-73074280D01*
X74741391Y-73086840D01*
X74833313Y-73101400D01*
X74833318Y-73101400D01*
X75006687Y-73101400D01*
X75089695Y-73088252D01*
X75177912Y-73074280D01*
X75342791Y-73020708D01*
X75497260Y-72942002D01*
X75637514Y-72840101D01*
X75760101Y-72717514D01*
X75862002Y-72577260D01*
X75940708Y-72422791D01*
X75994280Y-72257912D01*
X76011831Y-72147099D01*
X76021400Y-72086687D01*
X76021400Y-71913312D01*
X76014260Y-71868233D01*
X76011831Y-71852900D01*
X77755600Y-71852900D01*
X77755600Y-72147099D01*
X77755601Y-72147116D01*
X77794001Y-72438796D01*
X77870152Y-72722994D01*
X77982734Y-72994794D01*
X77982742Y-72994810D01*
X78129840Y-73249589D01*
X78129851Y-73249605D01*
X78308948Y-73483009D01*
X78308954Y-73483016D01*
X78516983Y-73691045D01*
X78516989Y-73691050D01*
X78750403Y-73870155D01*
X78750410Y-73870159D01*
X79005189Y-74017257D01*
X79005205Y-74017265D01*
X79277005Y-74129847D01*
X79277007Y-74129847D01*
X79277013Y-74129850D01*
X79561200Y-74205998D01*
X79852894Y-74244400D01*
X79852901Y-74244400D01*
X80147099Y-74244400D01*
X80147106Y-74244400D01*
X80438800Y-74205998D01*
X80722987Y-74129850D01*
X80847803Y-74078150D01*
X80994794Y-74017265D01*
X80994797Y-74017263D01*
X80994803Y-74017261D01*
X81249597Y-73870155D01*
X81483011Y-73691050D01*
X81691050Y-73483011D01*
X81870155Y-73249597D01*
X82017261Y-72994803D01*
X82018948Y-72990732D01*
X82129847Y-72722994D01*
X82129846Y-72722994D01*
X82129850Y-72722987D01*
X82205998Y-72438800D01*
X82244400Y-72147106D01*
X82244400Y-71913312D01*
X83978600Y-71913312D01*
X83978600Y-72086687D01*
X84005720Y-72257913D01*
X84059290Y-72422788D01*
X84059291Y-72422791D01*
X84137998Y-72577260D01*
X84239899Y-72717514D01*
X84362486Y-72840101D01*
X84502740Y-72942002D01*
X84578336Y-72980520D01*
X84657208Y-73020708D01*
X84657211Y-73020709D01*
X84739648Y-73047494D01*
X84822088Y-73074280D01*
X84901391Y-73086840D01*
X84993313Y-73101400D01*
X84993318Y-73101400D01*
X85166687Y-73101400D01*
X85249695Y-73088252D01*
X85337912Y-73074280D01*
X85502791Y-73020708D01*
X85657260Y-72942002D01*
X85797514Y-72840101D01*
X85920101Y-72717514D01*
X86022002Y-72577260D01*
X86100708Y-72422791D01*
X86154280Y-72257912D01*
X86171831Y-72147099D01*
X86181400Y-72086687D01*
X86181400Y-71913312D01*
X93818600Y-71913312D01*
X93818600Y-72086687D01*
X93845720Y-72257913D01*
X93899290Y-72422788D01*
X93899291Y-72422791D01*
X93977998Y-72577260D01*
X94079899Y-72717514D01*
X94202486Y-72840101D01*
X94342740Y-72942002D01*
X94418336Y-72980520D01*
X94497208Y-73020708D01*
X94497211Y-73020709D01*
X94579648Y-73047494D01*
X94662088Y-73074280D01*
X94741391Y-73086840D01*
X94833313Y-73101400D01*
X94833318Y-73101400D01*
X95006687Y-73101400D01*
X95089695Y-73088252D01*
X95177912Y-73074280D01*
X95342791Y-73020708D01*
X95497260Y-72942002D01*
X95637514Y-72840101D01*
X95760101Y-72717514D01*
X95862002Y-72577260D01*
X95940708Y-72422791D01*
X95994280Y-72257912D01*
X96011831Y-72147099D01*
X96021400Y-72086687D01*
X96021400Y-71913312D01*
X96014260Y-71868233D01*
X96011831Y-71852900D01*
X97755600Y-71852900D01*
X97755600Y-72147099D01*
X97755601Y-72147116D01*
X97794001Y-72438796D01*
X97870152Y-72722994D01*
X97982734Y-72994794D01*
X97982742Y-72994810D01*
X98129840Y-73249589D01*
X98129851Y-73249605D01*
X98308948Y-73483009D01*
X98308954Y-73483016D01*
X98516983Y-73691045D01*
X98516989Y-73691050D01*
X98750403Y-73870155D01*
X98750410Y-73870159D01*
X99005189Y-74017257D01*
X99005205Y-74017265D01*
X99277005Y-74129847D01*
X99277007Y-74129847D01*
X99277013Y-74129850D01*
X99561200Y-74205998D01*
X99852894Y-74244400D01*
X99852901Y-74244400D01*
X100147099Y-74244400D01*
X100147106Y-74244400D01*
X100438800Y-74205998D01*
X100722987Y-74129850D01*
X100847803Y-74078150D01*
X100994794Y-74017265D01*
X100994797Y-74017263D01*
X100994803Y-74017261D01*
X101249597Y-73870155D01*
X101483011Y-73691050D01*
X101691050Y-73483011D01*
X101870155Y-73249597D01*
X102017261Y-72994803D01*
X102018948Y-72990732D01*
X102129847Y-72722994D01*
X102129846Y-72722994D01*
X102129850Y-72722987D01*
X102205998Y-72438800D01*
X102244400Y-72147106D01*
X102244400Y-71913312D01*
X103978600Y-71913312D01*
X103978600Y-72086687D01*
X104005720Y-72257913D01*
X104059290Y-72422788D01*
X104059291Y-72422791D01*
X104137998Y-72577260D01*
X104239899Y-72717514D01*
X104362486Y-72840101D01*
X104502740Y-72942002D01*
X104578336Y-72980520D01*
X104657208Y-73020708D01*
X104657211Y-73020709D01*
X104739648Y-73047494D01*
X104822088Y-73074280D01*
X104901391Y-73086840D01*
X104993313Y-73101400D01*
X104993318Y-73101400D01*
X105166687Y-73101400D01*
X105249695Y-73088252D01*
X105337912Y-73074280D01*
X105502791Y-73020708D01*
X105657260Y-72942002D01*
X105797514Y-72840101D01*
X105920101Y-72717514D01*
X106022002Y-72577260D01*
X106100708Y-72422791D01*
X106154280Y-72257912D01*
X106171831Y-72147099D01*
X106181400Y-72086687D01*
X106181400Y-71913312D01*
X106165622Y-71813702D01*
X106154280Y-71742088D01*
X106100708Y-71577209D01*
X106100708Y-71577208D01*
X106022001Y-71422739D01*
X105920101Y-71282486D01*
X105797514Y-71159899D01*
X105657260Y-71057998D01*
X105608874Y-71033344D01*
X105502791Y-70979291D01*
X105502788Y-70979290D01*
X105337913Y-70925720D01*
X105166687Y-70898600D01*
X105166682Y-70898600D01*
X104993318Y-70898600D01*
X104993313Y-70898600D01*
X104822086Y-70925720D01*
X104657211Y-70979290D01*
X104657208Y-70979291D01*
X104502739Y-71057998D01*
X104471405Y-71080764D01*
X104362486Y-71159899D01*
X104362484Y-71159901D01*
X104362483Y-71159901D01*
X104239901Y-71282483D01*
X104239901Y-71282484D01*
X104239899Y-71282486D01*
X104209231Y-71324697D01*
X104137998Y-71422739D01*
X104059291Y-71577208D01*
X104059290Y-71577211D01*
X104005720Y-71742086D01*
X103978600Y-71913312D01*
X102244400Y-71913312D01*
X102244400Y-71852894D01*
X102205998Y-71561200D01*
X102129850Y-71277013D01*
X102102300Y-71210500D01*
X102017265Y-71005205D01*
X102017257Y-71005189D01*
X101870159Y-70750410D01*
X101870155Y-70750403D01*
X101691050Y-70516989D01*
X101691045Y-70516983D01*
X101483016Y-70308954D01*
X101483009Y-70308948D01*
X101249605Y-70129851D01*
X101249603Y-70129849D01*
X101249597Y-70129845D01*
X101249592Y-70129842D01*
X101249589Y-70129840D01*
X100994810Y-69982742D01*
X100994794Y-69982734D01*
X100722994Y-69870152D01*
X100469544Y-69802240D01*
X100438800Y-69794002D01*
X100438799Y-69794001D01*
X100438796Y-69794001D01*
X100147116Y-69755601D01*
X100147111Y-69755600D01*
X100147106Y-69755600D01*
X99852894Y-69755600D01*
X99852888Y-69755600D01*
X99852883Y-69755601D01*
X99561203Y-69794001D01*
X99277005Y-69870152D01*
X99005205Y-69982734D01*
X99005189Y-69982742D01*
X98750410Y-70129840D01*
X98750394Y-70129851D01*
X98516990Y-70308948D01*
X98516983Y-70308954D01*
X98308954Y-70516983D01*
X98308948Y-70516990D01*
X98129851Y-70750394D01*
X98129840Y-70750410D01*
X97982742Y-71005189D01*
X97982734Y-71005205D01*
X97870152Y-71277005D01*
X97794001Y-71561203D01*
X97755601Y-71852883D01*
X97755600Y-71852900D01*
X96011831Y-71852900D01*
X96004019Y-71803579D01*
X95994280Y-71742088D01*
X95940708Y-71577209D01*
X95940708Y-71577208D01*
X95862001Y-71422738D01*
X95838580Y-71390503D01*
X95815099Y-71324697D01*
X95830924Y-71256642D01*
X95881029Y-71207947D01*
X95949507Y-71194071D01*
X95955068Y-71194675D01*
X96075266Y-71210500D01*
X96075273Y-71210500D01*
X96304727Y-71210500D01*
X96304734Y-71210500D01*
X96532238Y-71180548D01*
X96753887Y-71121158D01*
X96965888Y-71033344D01*
X97164612Y-70918611D01*
X97346661Y-70778919D01*
X97346665Y-70778914D01*
X97346670Y-70778911D01*
X97508911Y-70616670D01*
X97508914Y-70616665D01*
X97508919Y-70616661D01*
X97648611Y-70434612D01*
X97763344Y-70235888D01*
X97851158Y-70023887D01*
X97910548Y-69802238D01*
X97940500Y-69574734D01*
X97940500Y-69345266D01*
X97910548Y-69117762D01*
X97851158Y-68896113D01*
X97763344Y-68684112D01*
X97648611Y-68485388D01*
X97648608Y-68485385D01*
X97648607Y-68485382D01*
X97508918Y-68303338D01*
X97508911Y-68303330D01*
X97346670Y-68141089D01*
X97346661Y-68141081D01*
X97164617Y-68001392D01*
X96965890Y-67886657D01*
X96965876Y-67886650D01*
X96753887Y-67798842D01*
X96532238Y-67739452D01*
X96494215Y-67734446D01*
X96304741Y-67709500D01*
X96304734Y-67709500D01*
X96075266Y-67709500D01*
X96075258Y-67709500D01*
X95858715Y-67738009D01*
X95847762Y-67739452D01*
X95754076Y-67764554D01*
X95626112Y-67798842D01*
X95414123Y-67886650D01*
X95414109Y-67886657D01*
X95215382Y-68001392D01*
X95033338Y-68141081D01*
X94871081Y-68303338D01*
X94731392Y-68485382D01*
X94616657Y-68684109D01*
X94616650Y-68684123D01*
X94528842Y-68896112D01*
X94469453Y-69117759D01*
X94469451Y-69117770D01*
X94439500Y-69345258D01*
X94439500Y-69574741D01*
X94463312Y-69755600D01*
X94469452Y-69802238D01*
X94517815Y-69982734D01*
X94528842Y-70023887D01*
X94616650Y-70235876D01*
X94616657Y-70235890D01*
X94731392Y-70434617D01*
X94871081Y-70616661D01*
X94871089Y-70616670D01*
X94941338Y-70686919D01*
X94974823Y-70748242D01*
X94969839Y-70817934D01*
X94927967Y-70873867D01*
X94862503Y-70898284D01*
X94853657Y-70898600D01*
X94833313Y-70898600D01*
X94662086Y-70925720D01*
X94497211Y-70979290D01*
X94497208Y-70979291D01*
X94342739Y-71057998D01*
X94311405Y-71080764D01*
X94202486Y-71159899D01*
X94202484Y-71159901D01*
X94202483Y-71159901D01*
X94079901Y-71282483D01*
X94079901Y-71282484D01*
X94079899Y-71282486D01*
X94049231Y-71324697D01*
X93977998Y-71422739D01*
X93899291Y-71577208D01*
X93899290Y-71577211D01*
X93845720Y-71742086D01*
X93818600Y-71913312D01*
X86181400Y-71913312D01*
X86165622Y-71813702D01*
X86154280Y-71742088D01*
X86100708Y-71577209D01*
X86100708Y-71577208D01*
X86022001Y-71422739D01*
X85920101Y-71282486D01*
X85797514Y-71159899D01*
X85657260Y-71057998D01*
X85608874Y-71033344D01*
X85502791Y-70979291D01*
X85502788Y-70979290D01*
X85337913Y-70925720D01*
X85166687Y-70898600D01*
X85166682Y-70898600D01*
X84993318Y-70898600D01*
X84993313Y-70898600D01*
X84822086Y-70925720D01*
X84657211Y-70979290D01*
X84657208Y-70979291D01*
X84502739Y-71057998D01*
X84471405Y-71080764D01*
X84362486Y-71159899D01*
X84362484Y-71159901D01*
X84362483Y-71159901D01*
X84239901Y-71282483D01*
X84239901Y-71282484D01*
X84239899Y-71282486D01*
X84209231Y-71324697D01*
X84137998Y-71422739D01*
X84059291Y-71577208D01*
X84059290Y-71577211D01*
X84005720Y-71742086D01*
X83978600Y-71913312D01*
X82244400Y-71913312D01*
X82244400Y-71852894D01*
X82205998Y-71561200D01*
X82129850Y-71277013D01*
X82102300Y-71210500D01*
X82017265Y-71005205D01*
X82017257Y-71005189D01*
X81870159Y-70750410D01*
X81870155Y-70750403D01*
X81691050Y-70516989D01*
X81691045Y-70516983D01*
X81483016Y-70308954D01*
X81483009Y-70308948D01*
X81249605Y-70129851D01*
X81249603Y-70129849D01*
X81249597Y-70129845D01*
X81249592Y-70129842D01*
X81249589Y-70129840D01*
X80994810Y-69982742D01*
X80994794Y-69982734D01*
X80722994Y-69870152D01*
X80469544Y-69802240D01*
X80438800Y-69794002D01*
X80438799Y-69794001D01*
X80438796Y-69794001D01*
X80147116Y-69755601D01*
X80147111Y-69755600D01*
X80147106Y-69755600D01*
X79852894Y-69755600D01*
X79852888Y-69755600D01*
X79852883Y-69755601D01*
X79561203Y-69794001D01*
X79277005Y-69870152D01*
X79005205Y-69982734D01*
X79005189Y-69982742D01*
X78750410Y-70129840D01*
X78750394Y-70129851D01*
X78516990Y-70308948D01*
X78516983Y-70308954D01*
X78308954Y-70516983D01*
X78308948Y-70516990D01*
X78129851Y-70750394D01*
X78129840Y-70750410D01*
X77982742Y-71005189D01*
X77982734Y-71005205D01*
X77870152Y-71277005D01*
X77794001Y-71561203D01*
X77755601Y-71852883D01*
X77755600Y-71852900D01*
X76011831Y-71852900D01*
X76004019Y-71803579D01*
X75994280Y-71742088D01*
X75940708Y-71577209D01*
X75940708Y-71577208D01*
X75862001Y-71422738D01*
X75838580Y-71390503D01*
X75815099Y-71324697D01*
X75830924Y-71256642D01*
X75881029Y-71207947D01*
X75949507Y-71194071D01*
X75955068Y-71194675D01*
X76075266Y-71210500D01*
X76075273Y-71210500D01*
X76304727Y-71210500D01*
X76304734Y-71210500D01*
X76532238Y-71180548D01*
X76753887Y-71121158D01*
X76965888Y-71033344D01*
X77164612Y-70918611D01*
X77346661Y-70778919D01*
X77346665Y-70778914D01*
X77346670Y-70778911D01*
X77508911Y-70616670D01*
X77508914Y-70616665D01*
X77508919Y-70616661D01*
X77648611Y-70434612D01*
X77763344Y-70235888D01*
X77851158Y-70023887D01*
X77910548Y-69802238D01*
X77940500Y-69574734D01*
X77940500Y-69345266D01*
X77910548Y-69117762D01*
X77851158Y-68896113D01*
X77763344Y-68684112D01*
X77648611Y-68485388D01*
X77648608Y-68485385D01*
X77648607Y-68485382D01*
X77508918Y-68303338D01*
X77508911Y-68303330D01*
X77346670Y-68141089D01*
X77346661Y-68141081D01*
X77164617Y-68001392D01*
X76965890Y-67886657D01*
X76965876Y-67886650D01*
X76753887Y-67798842D01*
X76532238Y-67739452D01*
X76494215Y-67734446D01*
X76304741Y-67709500D01*
X76304734Y-67709500D01*
X76075266Y-67709500D01*
X76075258Y-67709500D01*
X75858715Y-67738009D01*
X75847762Y-67739452D01*
X75754076Y-67764554D01*
X75626112Y-67798842D01*
X75414123Y-67886650D01*
X75414109Y-67886657D01*
X75215382Y-68001392D01*
X75033338Y-68141081D01*
X74871081Y-68303338D01*
X74731392Y-68485382D01*
X74616657Y-68684109D01*
X74616650Y-68684123D01*
X74528842Y-68896112D01*
X74469453Y-69117759D01*
X74469451Y-69117770D01*
X74439500Y-69345258D01*
X74439500Y-69574741D01*
X74463312Y-69755600D01*
X74469452Y-69802238D01*
X74517815Y-69982734D01*
X74528842Y-70023887D01*
X74616650Y-70235876D01*
X74616657Y-70235890D01*
X74731392Y-70434617D01*
X74871081Y-70616661D01*
X74871089Y-70616670D01*
X74941338Y-70686919D01*
X74974823Y-70748242D01*
X74969839Y-70817934D01*
X74927967Y-70873867D01*
X74862503Y-70898284D01*
X74853657Y-70898600D01*
X74833313Y-70898600D01*
X74662086Y-70925720D01*
X74497211Y-70979290D01*
X74497208Y-70979291D01*
X74342739Y-71057998D01*
X74311405Y-71080764D01*
X74202486Y-71159899D01*
X74202484Y-71159901D01*
X74202483Y-71159901D01*
X74079901Y-71282483D01*
X74079901Y-71282484D01*
X74079899Y-71282486D01*
X74049231Y-71324697D01*
X73977998Y-71422739D01*
X73899291Y-71577208D01*
X73899290Y-71577211D01*
X73845720Y-71742086D01*
X73818600Y-71913312D01*
X69750500Y-71913312D01*
X69750500Y-66805258D01*
X80789500Y-66805258D01*
X80789500Y-67034741D01*
X80814446Y-67224215D01*
X80819452Y-67262238D01*
X80819453Y-67262240D01*
X80878842Y-67483887D01*
X80966650Y-67695876D01*
X80966657Y-67695890D01*
X81081392Y-67894617D01*
X81221081Y-68076661D01*
X81221089Y-68076670D01*
X81383330Y-68238911D01*
X81383338Y-68238918D01*
X81565382Y-68378607D01*
X81565385Y-68378608D01*
X81565388Y-68378611D01*
X81764112Y-68493344D01*
X81764117Y-68493346D01*
X81764123Y-68493349D01*
X81855480Y-68531190D01*
X81976113Y-68581158D01*
X82197762Y-68640548D01*
X82425266Y-68670500D01*
X82425273Y-68670500D01*
X82654727Y-68670500D01*
X82654734Y-68670500D01*
X82882238Y-68640548D01*
X83103887Y-68581158D01*
X83315888Y-68493344D01*
X83514612Y-68378611D01*
X83696661Y-68238919D01*
X83696665Y-68238914D01*
X83696670Y-68238911D01*
X83858911Y-68076670D01*
X83858914Y-68076665D01*
X83858919Y-68076661D01*
X83998611Y-67894612D01*
X84113344Y-67695888D01*
X84201158Y-67483887D01*
X84260548Y-67262238D01*
X84290500Y-67034734D01*
X84290500Y-66805266D01*
X84290499Y-66805258D01*
X100789500Y-66805258D01*
X100789500Y-67034741D01*
X100814446Y-67224215D01*
X100819452Y-67262238D01*
X100819453Y-67262240D01*
X100878842Y-67483887D01*
X100966650Y-67695876D01*
X100966657Y-67695890D01*
X101081392Y-67894617D01*
X101221081Y-68076661D01*
X101221089Y-68076670D01*
X101383330Y-68238911D01*
X101383338Y-68238918D01*
X101565382Y-68378607D01*
X101565385Y-68378608D01*
X101565388Y-68378611D01*
X101764112Y-68493344D01*
X101764117Y-68493346D01*
X101764123Y-68493349D01*
X101855480Y-68531190D01*
X101976113Y-68581158D01*
X102197762Y-68640548D01*
X102425266Y-68670500D01*
X102425273Y-68670500D01*
X102654727Y-68670500D01*
X102654734Y-68670500D01*
X102882238Y-68640548D01*
X103103887Y-68581158D01*
X103315888Y-68493344D01*
X103514612Y-68378611D01*
X103696661Y-68238919D01*
X103696665Y-68238914D01*
X103696670Y-68238911D01*
X103858911Y-68076670D01*
X103858914Y-68076665D01*
X103858919Y-68076661D01*
X103998611Y-67894612D01*
X104113344Y-67695888D01*
X104201158Y-67483887D01*
X104260548Y-67262238D01*
X104290500Y-67034734D01*
X104290500Y-66805266D01*
X104260548Y-66577762D01*
X104201158Y-66356113D01*
X104113344Y-66144112D01*
X103998611Y-65945388D01*
X103998608Y-65945385D01*
X103998607Y-65945382D01*
X103858918Y-65763338D01*
X103858911Y-65763330D01*
X103696670Y-65601089D01*
X103696661Y-65601081D01*
X103514617Y-65461392D01*
X103315890Y-65346657D01*
X103315876Y-65346650D01*
X103103887Y-65258842D01*
X102882238Y-65199452D01*
X102844215Y-65194446D01*
X102654741Y-65169500D01*
X102654734Y-65169500D01*
X102425266Y-65169500D01*
X102425258Y-65169500D01*
X102208715Y-65198009D01*
X102197762Y-65199452D01*
X102104076Y-65224554D01*
X101976112Y-65258842D01*
X101764123Y-65346650D01*
X101764109Y-65346657D01*
X101565382Y-65461392D01*
X101383338Y-65601081D01*
X101221081Y-65763338D01*
X101081392Y-65945382D01*
X100966657Y-66144109D01*
X100966650Y-66144123D01*
X100878842Y-66356112D01*
X100819453Y-66577759D01*
X100819451Y-66577770D01*
X100789500Y-66805258D01*
X84290499Y-66805258D01*
X84260548Y-66577762D01*
X84201158Y-66356113D01*
X84113344Y-66144112D01*
X83998611Y-65945388D01*
X83998608Y-65945385D01*
X83998607Y-65945382D01*
X83858918Y-65763338D01*
X83858911Y-65763330D01*
X83696670Y-65601089D01*
X83696661Y-65601081D01*
X83514617Y-65461392D01*
X83315890Y-65346657D01*
X83315876Y-65346650D01*
X83103887Y-65258842D01*
X82882238Y-65199452D01*
X82844215Y-65194446D01*
X82654741Y-65169500D01*
X82654734Y-65169500D01*
X82425266Y-65169500D01*
X82425258Y-65169500D01*
X82208715Y-65198009D01*
X82197762Y-65199452D01*
X82104076Y-65224554D01*
X81976112Y-65258842D01*
X81764123Y-65346650D01*
X81764109Y-65346657D01*
X81565382Y-65461392D01*
X81383338Y-65601081D01*
X81221081Y-65763338D01*
X81081392Y-65945382D01*
X80966657Y-66144109D01*
X80966650Y-66144123D01*
X80878842Y-66356112D01*
X80819453Y-66577759D01*
X80819451Y-66577770D01*
X80789500Y-66805258D01*
X69750500Y-66805258D01*
X69750500Y-60897648D01*
X70199500Y-60897648D01*
X70199500Y-61102351D01*
X70231522Y-61304534D01*
X70294781Y-61499223D01*
X70387715Y-61681613D01*
X70508028Y-61847213D01*
X70652786Y-61991971D01*
X70807749Y-62104556D01*
X70818390Y-62112287D01*
X70934607Y-62171503D01*
X71000776Y-62205218D01*
X71000778Y-62205218D01*
X71000781Y-62205220D01*
X71105137Y-62239127D01*
X71195465Y-62268477D01*
X71296557Y-62284488D01*
X71397648Y-62300500D01*
X71397649Y-62300500D01*
X71602351Y-62300500D01*
X71602352Y-62300500D01*
X71804534Y-62268477D01*
X71999219Y-62205220D01*
X72181610Y-62112287D01*
X72274590Y-62044732D01*
X72347213Y-61991971D01*
X72347215Y-61991968D01*
X72347219Y-61991966D01*
X72491966Y-61847219D01*
X72491968Y-61847215D01*
X72491971Y-61847213D01*
X72544732Y-61774590D01*
X72612287Y-61681610D01*
X72705220Y-61499219D01*
X72768477Y-61304534D01*
X72800500Y-61102352D01*
X72800500Y-60897648D01*
X72768477Y-60695466D01*
X72705220Y-60500781D01*
X72705218Y-60500778D01*
X72705218Y-60500776D01*
X72671503Y-60434607D01*
X72612287Y-60318390D01*
X72604556Y-60307749D01*
X72491971Y-60152786D01*
X72347213Y-60008028D01*
X72181613Y-59887715D01*
X72181612Y-59887714D01*
X72181610Y-59887713D01*
X72124653Y-59858691D01*
X71999223Y-59794781D01*
X71804534Y-59731522D01*
X71629995Y-59703878D01*
X71602352Y-59699500D01*
X71397648Y-59699500D01*
X71373329Y-59703351D01*
X71195465Y-59731522D01*
X71000776Y-59794781D01*
X70818386Y-59887715D01*
X70652786Y-60008028D01*
X70508028Y-60152786D01*
X70387715Y-60318386D01*
X70294781Y-60500776D01*
X70231522Y-60695465D01*
X70199500Y-60897648D01*
X69750500Y-60897648D01*
X69750500Y-49913312D01*
X73818600Y-49913312D01*
X73818600Y-50086687D01*
X73845720Y-50257913D01*
X73899290Y-50422788D01*
X73899291Y-50422791D01*
X73977998Y-50577260D01*
X74079899Y-50717514D01*
X74202486Y-50840101D01*
X74342740Y-50942002D01*
X74418502Y-50980604D01*
X74497208Y-51020708D01*
X74497211Y-51020709D01*
X74579648Y-51047494D01*
X74662088Y-51074280D01*
X74741391Y-51086840D01*
X74833313Y-51101400D01*
X74833318Y-51101400D01*
X75006687Y-51101400D01*
X75089695Y-51088252D01*
X75177912Y-51074280D01*
X75342791Y-51020708D01*
X75497260Y-50942002D01*
X75637514Y-50840101D01*
X75760101Y-50717514D01*
X75862002Y-50577260D01*
X75940708Y-50422791D01*
X75994280Y-50257912D01*
X76011831Y-50147099D01*
X76021400Y-50086687D01*
X76021400Y-49913312D01*
X76014260Y-49868233D01*
X76011831Y-49852900D01*
X77755600Y-49852900D01*
X77755600Y-50147099D01*
X77755601Y-50147116D01*
X77794001Y-50438796D01*
X77870152Y-50722994D01*
X77982734Y-50994794D01*
X77982742Y-50994810D01*
X78129840Y-51249589D01*
X78129851Y-51249605D01*
X78308948Y-51483009D01*
X78308954Y-51483016D01*
X78516983Y-51691045D01*
X78516989Y-51691050D01*
X78750403Y-51870155D01*
X78750410Y-51870159D01*
X79005189Y-52017257D01*
X79005205Y-52017265D01*
X79277005Y-52129847D01*
X79277007Y-52129847D01*
X79277013Y-52129850D01*
X79561200Y-52205998D01*
X79852894Y-52244400D01*
X79852901Y-52244400D01*
X80147099Y-52244400D01*
X80147106Y-52244400D01*
X80438800Y-52205998D01*
X80722987Y-52129850D01*
X80796318Y-52099475D01*
X80994794Y-52017265D01*
X80994797Y-52017263D01*
X80994803Y-52017261D01*
X81249597Y-51870155D01*
X81483011Y-51691050D01*
X81691050Y-51483011D01*
X81870155Y-51249597D01*
X82017261Y-50994803D01*
X82129850Y-50722987D01*
X82205998Y-50438800D01*
X82244400Y-50147106D01*
X82244400Y-49913312D01*
X83978600Y-49913312D01*
X83978600Y-50086687D01*
X84005720Y-50257913D01*
X84059290Y-50422788D01*
X84059291Y-50422791D01*
X84137998Y-50577260D01*
X84239899Y-50717514D01*
X84362486Y-50840101D01*
X84502740Y-50942002D01*
X84578502Y-50980604D01*
X84657208Y-51020708D01*
X84657211Y-51020709D01*
X84739648Y-51047494D01*
X84822088Y-51074280D01*
X84901391Y-51086840D01*
X84993313Y-51101400D01*
X84993318Y-51101400D01*
X85166687Y-51101400D01*
X85249695Y-51088252D01*
X85337912Y-51074280D01*
X85502791Y-51020708D01*
X85657260Y-50942002D01*
X85797514Y-50840101D01*
X85920101Y-50717514D01*
X86022002Y-50577260D01*
X86100708Y-50422791D01*
X86154280Y-50257912D01*
X86171831Y-50147099D01*
X86181400Y-50086687D01*
X86181400Y-49913312D01*
X93818600Y-49913312D01*
X93818600Y-50086687D01*
X93845720Y-50257913D01*
X93899290Y-50422788D01*
X93899291Y-50422791D01*
X93977998Y-50577260D01*
X94079899Y-50717514D01*
X94202486Y-50840101D01*
X94342740Y-50942002D01*
X94418502Y-50980604D01*
X94497208Y-51020708D01*
X94497211Y-51020709D01*
X94579648Y-51047494D01*
X94662088Y-51074280D01*
X94741391Y-51086840D01*
X94833313Y-51101400D01*
X94833318Y-51101400D01*
X95006687Y-51101400D01*
X95089695Y-51088252D01*
X95177912Y-51074280D01*
X95342791Y-51020708D01*
X95497260Y-50942002D01*
X95637514Y-50840101D01*
X95760101Y-50717514D01*
X95862002Y-50577260D01*
X95940708Y-50422791D01*
X95994280Y-50257912D01*
X96011831Y-50147099D01*
X96021400Y-50086687D01*
X96021400Y-49913312D01*
X96014260Y-49868233D01*
X96011831Y-49852900D01*
X97755600Y-49852900D01*
X97755600Y-50147099D01*
X97755601Y-50147116D01*
X97794001Y-50438796D01*
X97870152Y-50722994D01*
X97982734Y-50994794D01*
X97982742Y-50994810D01*
X98129840Y-51249589D01*
X98129851Y-51249605D01*
X98308948Y-51483009D01*
X98308954Y-51483016D01*
X98516983Y-51691045D01*
X98516989Y-51691050D01*
X98750403Y-51870155D01*
X98750410Y-51870159D01*
X99005189Y-52017257D01*
X99005205Y-52017265D01*
X99277005Y-52129847D01*
X99277007Y-52129847D01*
X99277013Y-52129850D01*
X99561200Y-52205998D01*
X99852894Y-52244400D01*
X99852901Y-52244400D01*
X100147099Y-52244400D01*
X100147106Y-52244400D01*
X100438800Y-52205998D01*
X100722987Y-52129850D01*
X100796318Y-52099475D01*
X100994794Y-52017265D01*
X100994797Y-52017263D01*
X100994803Y-52017261D01*
X101249597Y-51870155D01*
X101483011Y-51691050D01*
X101691050Y-51483011D01*
X101870155Y-51249597D01*
X102017261Y-50994803D01*
X102129850Y-50722987D01*
X102205998Y-50438800D01*
X102244400Y-50147106D01*
X102244400Y-49913312D01*
X103978600Y-49913312D01*
X103978600Y-50086687D01*
X104005720Y-50257913D01*
X104059290Y-50422788D01*
X104059291Y-50422791D01*
X104137998Y-50577260D01*
X104239899Y-50717514D01*
X104362486Y-50840101D01*
X104502740Y-50942002D01*
X104578502Y-50980604D01*
X104657208Y-51020708D01*
X104657211Y-51020709D01*
X104739648Y-51047494D01*
X104822088Y-51074280D01*
X104901391Y-51086840D01*
X104993313Y-51101400D01*
X104993318Y-51101400D01*
X105166687Y-51101400D01*
X105249695Y-51088252D01*
X105337912Y-51074280D01*
X105502791Y-51020708D01*
X105657260Y-50942002D01*
X105797514Y-50840101D01*
X105920101Y-50717514D01*
X106022002Y-50577260D01*
X106100708Y-50422791D01*
X106154280Y-50257912D01*
X106171831Y-50147099D01*
X106181400Y-50086687D01*
X106181400Y-49913312D01*
X113818600Y-49913312D01*
X113818600Y-50086687D01*
X113845720Y-50257913D01*
X113899290Y-50422788D01*
X113899291Y-50422791D01*
X113977998Y-50577260D01*
X114079899Y-50717514D01*
X114202486Y-50840101D01*
X114342740Y-50942002D01*
X114418502Y-50980604D01*
X114497208Y-51020708D01*
X114497211Y-51020709D01*
X114579648Y-51047494D01*
X114662088Y-51074280D01*
X114741391Y-51086840D01*
X114833313Y-51101400D01*
X114833318Y-51101400D01*
X115006687Y-51101400D01*
X115089695Y-51088252D01*
X115177912Y-51074280D01*
X115342791Y-51020708D01*
X115497260Y-50942002D01*
X115637514Y-50840101D01*
X115760101Y-50717514D01*
X115862002Y-50577260D01*
X115940708Y-50422791D01*
X115994280Y-50257912D01*
X116011831Y-50147099D01*
X116021400Y-50086687D01*
X116021400Y-49913312D01*
X116014260Y-49868233D01*
X116011831Y-49852900D01*
X117755600Y-49852900D01*
X117755600Y-50147099D01*
X117755601Y-50147116D01*
X117794001Y-50438796D01*
X117870152Y-50722994D01*
X117982734Y-50994794D01*
X117982742Y-50994810D01*
X118129840Y-51249589D01*
X118129851Y-51249605D01*
X118308948Y-51483009D01*
X118308954Y-51483016D01*
X118516983Y-51691045D01*
X118516989Y-51691050D01*
X118750403Y-51870155D01*
X118750410Y-51870159D01*
X119005189Y-52017257D01*
X119005205Y-52017265D01*
X119277005Y-52129847D01*
X119277007Y-52129847D01*
X119277013Y-52129850D01*
X119561200Y-52205998D01*
X119852894Y-52244400D01*
X119852901Y-52244400D01*
X120147099Y-52244400D01*
X120147106Y-52244400D01*
X120438800Y-52205998D01*
X120722987Y-52129850D01*
X120796318Y-52099475D01*
X120994794Y-52017265D01*
X120994797Y-52017263D01*
X120994803Y-52017261D01*
X121249597Y-51870155D01*
X121483011Y-51691050D01*
X121691050Y-51483011D01*
X121870155Y-51249597D01*
X122017261Y-50994803D01*
X122129850Y-50722987D01*
X122205998Y-50438800D01*
X122244400Y-50147106D01*
X122244400Y-49913312D01*
X123978600Y-49913312D01*
X123978600Y-50086687D01*
X124005720Y-50257913D01*
X124059290Y-50422788D01*
X124059291Y-50422791D01*
X124137998Y-50577260D01*
X124239899Y-50717514D01*
X124362486Y-50840101D01*
X124502740Y-50942002D01*
X124578502Y-50980604D01*
X124657208Y-51020708D01*
X124657211Y-51020709D01*
X124739648Y-51047494D01*
X124822088Y-51074280D01*
X124901391Y-51086840D01*
X124993313Y-51101400D01*
X124993318Y-51101400D01*
X125166687Y-51101400D01*
X125249695Y-51088252D01*
X125337912Y-51074280D01*
X125502791Y-51020708D01*
X125657260Y-50942002D01*
X125797514Y-50840101D01*
X125920101Y-50717514D01*
X126022002Y-50577260D01*
X126100708Y-50422791D01*
X126154280Y-50257912D01*
X126171831Y-50147099D01*
X126181400Y-50086687D01*
X126181400Y-49913312D01*
X133818600Y-49913312D01*
X133818600Y-50086687D01*
X133845720Y-50257913D01*
X133899290Y-50422788D01*
X133899291Y-50422791D01*
X133977998Y-50577260D01*
X134079899Y-50717514D01*
X134202486Y-50840101D01*
X134342740Y-50942002D01*
X134418502Y-50980604D01*
X134497208Y-51020708D01*
X134497211Y-51020709D01*
X134579648Y-51047494D01*
X134662088Y-51074280D01*
X134741391Y-51086840D01*
X134833313Y-51101400D01*
X134833318Y-51101400D01*
X135006687Y-51101400D01*
X135089695Y-51088252D01*
X135177912Y-51074280D01*
X135342791Y-51020708D01*
X135497260Y-50942002D01*
X135637514Y-50840101D01*
X135760101Y-50717514D01*
X135862002Y-50577260D01*
X135940708Y-50422791D01*
X135994280Y-50257912D01*
X136011831Y-50147099D01*
X136021400Y-50086687D01*
X136021400Y-49913312D01*
X136014260Y-49868233D01*
X136011831Y-49852900D01*
X137755600Y-49852900D01*
X137755600Y-50147099D01*
X137755601Y-50147116D01*
X137794001Y-50438796D01*
X137870152Y-50722994D01*
X137982734Y-50994794D01*
X137982742Y-50994810D01*
X138129840Y-51249589D01*
X138129851Y-51249605D01*
X138308948Y-51483009D01*
X138308954Y-51483016D01*
X138516983Y-51691045D01*
X138516989Y-51691050D01*
X138750403Y-51870155D01*
X138750410Y-51870159D01*
X139005189Y-52017257D01*
X139005205Y-52017265D01*
X139277005Y-52129847D01*
X139277007Y-52129847D01*
X139277013Y-52129850D01*
X139561200Y-52205998D01*
X139852894Y-52244400D01*
X139852901Y-52244400D01*
X140147099Y-52244400D01*
X140147106Y-52244400D01*
X140438800Y-52205998D01*
X140722987Y-52129850D01*
X140796318Y-52099475D01*
X140994794Y-52017265D01*
X140994797Y-52017263D01*
X140994803Y-52017261D01*
X141249597Y-51870155D01*
X141483011Y-51691050D01*
X141691050Y-51483011D01*
X141870155Y-51249597D01*
X142017261Y-50994803D01*
X142129850Y-50722987D01*
X142205998Y-50438800D01*
X142244400Y-50147106D01*
X142244400Y-49913312D01*
X143978600Y-49913312D01*
X143978600Y-50086687D01*
X144005720Y-50257913D01*
X144059290Y-50422788D01*
X144059291Y-50422791D01*
X144137998Y-50577260D01*
X144239899Y-50717514D01*
X144362486Y-50840101D01*
X144502740Y-50942002D01*
X144578502Y-50980604D01*
X144657208Y-51020708D01*
X144657211Y-51020709D01*
X144739648Y-51047494D01*
X144822088Y-51074280D01*
X144901391Y-51086840D01*
X144993313Y-51101400D01*
X144993318Y-51101400D01*
X145166687Y-51101400D01*
X145249695Y-51088252D01*
X145337912Y-51074280D01*
X145502791Y-51020708D01*
X145657260Y-50942002D01*
X145797514Y-50840101D01*
X145920101Y-50717514D01*
X146022002Y-50577260D01*
X146100708Y-50422791D01*
X146154280Y-50257912D01*
X146171831Y-50147099D01*
X146181400Y-50086687D01*
X146181400Y-49913312D01*
X146165622Y-49813702D01*
X146154280Y-49742088D01*
X146100708Y-49577209D01*
X146100708Y-49577208D01*
X146022001Y-49422739D01*
X145920101Y-49282486D01*
X145797514Y-49159899D01*
X145657260Y-49057998D01*
X145608874Y-49033344D01*
X145502791Y-48979291D01*
X145502788Y-48979290D01*
X145337913Y-48925720D01*
X145166687Y-48898600D01*
X145166682Y-48898600D01*
X144993318Y-48898600D01*
X144993313Y-48898600D01*
X144822086Y-48925720D01*
X144657211Y-48979290D01*
X144657208Y-48979291D01*
X144502739Y-49057998D01*
X144472780Y-49079765D01*
X144362486Y-49159899D01*
X144362484Y-49159901D01*
X144362483Y-49159901D01*
X144239901Y-49282483D01*
X144239901Y-49282484D01*
X144239899Y-49282486D01*
X144209231Y-49324697D01*
X144137998Y-49422739D01*
X144059291Y-49577208D01*
X144059290Y-49577211D01*
X144005720Y-49742086D01*
X143978600Y-49913312D01*
X142244400Y-49913312D01*
X142244400Y-49852894D01*
X142205998Y-49561200D01*
X142129850Y-49277013D01*
X142102300Y-49210500D01*
X142017265Y-49005205D01*
X142017257Y-49005189D01*
X141870159Y-48750410D01*
X141870155Y-48750403D01*
X141691050Y-48516989D01*
X141691045Y-48516983D01*
X141483016Y-48308954D01*
X141483009Y-48308948D01*
X141249605Y-48129851D01*
X141249603Y-48129849D01*
X141249597Y-48129845D01*
X141249592Y-48129842D01*
X141249589Y-48129840D01*
X140994810Y-47982742D01*
X140994794Y-47982734D01*
X140722994Y-47870152D01*
X140469544Y-47802240D01*
X140438800Y-47794002D01*
X140438799Y-47794001D01*
X140438796Y-47794001D01*
X140147116Y-47755601D01*
X140147111Y-47755600D01*
X140147106Y-47755600D01*
X139852894Y-47755600D01*
X139852888Y-47755600D01*
X139852883Y-47755601D01*
X139561203Y-47794001D01*
X139277005Y-47870152D01*
X139005205Y-47982734D01*
X139005189Y-47982742D01*
X138750410Y-48129840D01*
X138750394Y-48129851D01*
X138516990Y-48308948D01*
X138516983Y-48308954D01*
X138308954Y-48516983D01*
X138308948Y-48516990D01*
X138129851Y-48750394D01*
X138129840Y-48750410D01*
X137982742Y-49005189D01*
X137982734Y-49005205D01*
X137870152Y-49277005D01*
X137794001Y-49561203D01*
X137755601Y-49852883D01*
X137755600Y-49852900D01*
X136011831Y-49852900D01*
X136004019Y-49803579D01*
X135994280Y-49742088D01*
X135940708Y-49577209D01*
X135940708Y-49577208D01*
X135862001Y-49422738D01*
X135838580Y-49390503D01*
X135815099Y-49324697D01*
X135830924Y-49256642D01*
X135881029Y-49207947D01*
X135949507Y-49194071D01*
X135955068Y-49194675D01*
X136075266Y-49210500D01*
X136075273Y-49210500D01*
X136304727Y-49210500D01*
X136304734Y-49210500D01*
X136532238Y-49180548D01*
X136753887Y-49121158D01*
X136965888Y-49033344D01*
X137164612Y-48918611D01*
X137346661Y-48778919D01*
X137346665Y-48778914D01*
X137346670Y-48778911D01*
X137508911Y-48616670D01*
X137508914Y-48616665D01*
X137508919Y-48616661D01*
X137648611Y-48434612D01*
X137763344Y-48235888D01*
X137851158Y-48023887D01*
X137910548Y-47802238D01*
X137940500Y-47574734D01*
X137940500Y-47345266D01*
X137910548Y-47117762D01*
X137851158Y-46896113D01*
X137763344Y-46684112D01*
X137648611Y-46485388D01*
X137648608Y-46485385D01*
X137648607Y-46485382D01*
X137508918Y-46303338D01*
X137508911Y-46303330D01*
X137346670Y-46141089D01*
X137346661Y-46141081D01*
X137164617Y-46001392D01*
X136965890Y-45886657D01*
X136965876Y-45886650D01*
X136753887Y-45798842D01*
X136532238Y-45739452D01*
X136494215Y-45734446D01*
X136304741Y-45709500D01*
X136304734Y-45709500D01*
X136075266Y-45709500D01*
X136075258Y-45709500D01*
X135858715Y-45738009D01*
X135847762Y-45739452D01*
X135754076Y-45764554D01*
X135626112Y-45798842D01*
X135414123Y-45886650D01*
X135414109Y-45886657D01*
X135215382Y-46001392D01*
X135033338Y-46141081D01*
X134871081Y-46303338D01*
X134731392Y-46485382D01*
X134616657Y-46684109D01*
X134616650Y-46684123D01*
X134528842Y-46896112D01*
X134469453Y-47117759D01*
X134469451Y-47117770D01*
X134439500Y-47345258D01*
X134439500Y-47574741D01*
X134455926Y-47699500D01*
X134469452Y-47802238D01*
X134517815Y-47982734D01*
X134528842Y-48023887D01*
X134616650Y-48235876D01*
X134616657Y-48235890D01*
X134682896Y-48350620D01*
X134723618Y-48421153D01*
X134731392Y-48434617D01*
X134871081Y-48616661D01*
X134871089Y-48616670D01*
X134941338Y-48686919D01*
X134974823Y-48748242D01*
X134969839Y-48817934D01*
X134927967Y-48873867D01*
X134862503Y-48898284D01*
X134853657Y-48898600D01*
X134833313Y-48898600D01*
X134662086Y-48925720D01*
X134497211Y-48979290D01*
X134497208Y-48979291D01*
X134342739Y-49057998D01*
X134312780Y-49079765D01*
X134202486Y-49159899D01*
X134202484Y-49159901D01*
X134202483Y-49159901D01*
X134079901Y-49282483D01*
X134079901Y-49282484D01*
X134079899Y-49282486D01*
X134049231Y-49324697D01*
X133977998Y-49422739D01*
X133899291Y-49577208D01*
X133899290Y-49577211D01*
X133845720Y-49742086D01*
X133818600Y-49913312D01*
X126181400Y-49913312D01*
X126165622Y-49813702D01*
X126154280Y-49742088D01*
X126100708Y-49577209D01*
X126100708Y-49577208D01*
X126022001Y-49422739D01*
X125920101Y-49282486D01*
X125797514Y-49159899D01*
X125657260Y-49057998D01*
X125608874Y-49033344D01*
X125502791Y-48979291D01*
X125502788Y-48979290D01*
X125337913Y-48925720D01*
X125166687Y-48898600D01*
X125166682Y-48898600D01*
X124993318Y-48898600D01*
X124993313Y-48898600D01*
X124822086Y-48925720D01*
X124657211Y-48979290D01*
X124657208Y-48979291D01*
X124502739Y-49057998D01*
X124472780Y-49079765D01*
X124362486Y-49159899D01*
X124362484Y-49159901D01*
X124362483Y-49159901D01*
X124239901Y-49282483D01*
X124239901Y-49282484D01*
X124239899Y-49282486D01*
X124209231Y-49324697D01*
X124137998Y-49422739D01*
X124059291Y-49577208D01*
X124059290Y-49577211D01*
X124005720Y-49742086D01*
X123978600Y-49913312D01*
X122244400Y-49913312D01*
X122244400Y-49852894D01*
X122205998Y-49561200D01*
X122129850Y-49277013D01*
X122102300Y-49210500D01*
X122017265Y-49005205D01*
X122017257Y-49005189D01*
X121870159Y-48750410D01*
X121870155Y-48750403D01*
X121691050Y-48516989D01*
X121691045Y-48516983D01*
X121483016Y-48308954D01*
X121483009Y-48308948D01*
X121249605Y-48129851D01*
X121249603Y-48129849D01*
X121249597Y-48129845D01*
X121249592Y-48129842D01*
X121249589Y-48129840D01*
X120994810Y-47982742D01*
X120994794Y-47982734D01*
X120722994Y-47870152D01*
X120469544Y-47802240D01*
X120438800Y-47794002D01*
X120438799Y-47794001D01*
X120438796Y-47794001D01*
X120147116Y-47755601D01*
X120147111Y-47755600D01*
X120147106Y-47755600D01*
X119852894Y-47755600D01*
X119852888Y-47755600D01*
X119852883Y-47755601D01*
X119561203Y-47794001D01*
X119277005Y-47870152D01*
X119005205Y-47982734D01*
X119005189Y-47982742D01*
X118750410Y-48129840D01*
X118750394Y-48129851D01*
X118516990Y-48308948D01*
X118516983Y-48308954D01*
X118308954Y-48516983D01*
X118308948Y-48516990D01*
X118129851Y-48750394D01*
X118129840Y-48750410D01*
X117982742Y-49005189D01*
X117982734Y-49005205D01*
X117870152Y-49277005D01*
X117794001Y-49561203D01*
X117755601Y-49852883D01*
X117755600Y-49852900D01*
X116011831Y-49852900D01*
X116004019Y-49803579D01*
X115994280Y-49742088D01*
X115940708Y-49577209D01*
X115940708Y-49577208D01*
X115862001Y-49422738D01*
X115838580Y-49390503D01*
X115815099Y-49324697D01*
X115830924Y-49256642D01*
X115881029Y-49207947D01*
X115949507Y-49194071D01*
X115955068Y-49194675D01*
X116075266Y-49210500D01*
X116075273Y-49210500D01*
X116304727Y-49210500D01*
X116304734Y-49210500D01*
X116532238Y-49180548D01*
X116753887Y-49121158D01*
X116965888Y-49033344D01*
X117164612Y-48918611D01*
X117346661Y-48778919D01*
X117346665Y-48778914D01*
X117346670Y-48778911D01*
X117508911Y-48616670D01*
X117508914Y-48616665D01*
X117508919Y-48616661D01*
X117648611Y-48434612D01*
X117763344Y-48235888D01*
X117851158Y-48023887D01*
X117910548Y-47802238D01*
X117940500Y-47574734D01*
X117940500Y-47345266D01*
X117910548Y-47117762D01*
X117851158Y-46896113D01*
X117763344Y-46684112D01*
X117648611Y-46485388D01*
X117648608Y-46485385D01*
X117648607Y-46485382D01*
X117508918Y-46303338D01*
X117508911Y-46303330D01*
X117346670Y-46141089D01*
X117346661Y-46141081D01*
X117164617Y-46001392D01*
X116965890Y-45886657D01*
X116965876Y-45886650D01*
X116753887Y-45798842D01*
X116532238Y-45739452D01*
X116494215Y-45734446D01*
X116304741Y-45709500D01*
X116304734Y-45709500D01*
X116075266Y-45709500D01*
X116075258Y-45709500D01*
X115858715Y-45738009D01*
X115847762Y-45739452D01*
X115754076Y-45764554D01*
X115626112Y-45798842D01*
X115414123Y-45886650D01*
X115414109Y-45886657D01*
X115215382Y-46001392D01*
X115033338Y-46141081D01*
X114871081Y-46303338D01*
X114731392Y-46485382D01*
X114616657Y-46684109D01*
X114616650Y-46684123D01*
X114528842Y-46896112D01*
X114469453Y-47117759D01*
X114469451Y-47117770D01*
X114439500Y-47345258D01*
X114439500Y-47574741D01*
X114455926Y-47699500D01*
X114469452Y-47802238D01*
X114517815Y-47982734D01*
X114528842Y-48023887D01*
X114616650Y-48235876D01*
X114616657Y-48235890D01*
X114682896Y-48350620D01*
X114723618Y-48421153D01*
X114731392Y-48434617D01*
X114871081Y-48616661D01*
X114871089Y-48616670D01*
X114941338Y-48686919D01*
X114974823Y-48748242D01*
X114969839Y-48817934D01*
X114927967Y-48873867D01*
X114862503Y-48898284D01*
X114853657Y-48898600D01*
X114833313Y-48898600D01*
X114662086Y-48925720D01*
X114497211Y-48979290D01*
X114497208Y-48979291D01*
X114342739Y-49057998D01*
X114312780Y-49079765D01*
X114202486Y-49159899D01*
X114202484Y-49159901D01*
X114202483Y-49159901D01*
X114079901Y-49282483D01*
X114079901Y-49282484D01*
X114079899Y-49282486D01*
X114049231Y-49324697D01*
X113977998Y-49422739D01*
X113899291Y-49577208D01*
X113899290Y-49577211D01*
X113845720Y-49742086D01*
X113818600Y-49913312D01*
X106181400Y-49913312D01*
X106165622Y-49813702D01*
X106154280Y-49742088D01*
X106100708Y-49577209D01*
X106100708Y-49577208D01*
X106022001Y-49422739D01*
X105920101Y-49282486D01*
X105797514Y-49159899D01*
X105657260Y-49057998D01*
X105608874Y-49033344D01*
X105502791Y-48979291D01*
X105502788Y-48979290D01*
X105337913Y-48925720D01*
X105166687Y-48898600D01*
X105166682Y-48898600D01*
X104993318Y-48898600D01*
X104993313Y-48898600D01*
X104822086Y-48925720D01*
X104657211Y-48979290D01*
X104657208Y-48979291D01*
X104502739Y-49057998D01*
X104472780Y-49079765D01*
X104362486Y-49159899D01*
X104362484Y-49159901D01*
X104362483Y-49159901D01*
X104239901Y-49282483D01*
X104239901Y-49282484D01*
X104239899Y-49282486D01*
X104209231Y-49324697D01*
X104137998Y-49422739D01*
X104059291Y-49577208D01*
X104059290Y-49577211D01*
X104005720Y-49742086D01*
X103978600Y-49913312D01*
X102244400Y-49913312D01*
X102244400Y-49852894D01*
X102205998Y-49561200D01*
X102129850Y-49277013D01*
X102102300Y-49210500D01*
X102017265Y-49005205D01*
X102017257Y-49005189D01*
X101870159Y-48750410D01*
X101870155Y-48750403D01*
X101691050Y-48516989D01*
X101691045Y-48516983D01*
X101483016Y-48308954D01*
X101483009Y-48308948D01*
X101249605Y-48129851D01*
X101249603Y-48129849D01*
X101249597Y-48129845D01*
X101249592Y-48129842D01*
X101249589Y-48129840D01*
X100994810Y-47982742D01*
X100994794Y-47982734D01*
X100722994Y-47870152D01*
X100469544Y-47802240D01*
X100438800Y-47794002D01*
X100438799Y-47794001D01*
X100438796Y-47794001D01*
X100147116Y-47755601D01*
X100147111Y-47755600D01*
X100147106Y-47755600D01*
X99852894Y-47755600D01*
X99852888Y-47755600D01*
X99852883Y-47755601D01*
X99561203Y-47794001D01*
X99277005Y-47870152D01*
X99005205Y-47982734D01*
X99005189Y-47982742D01*
X98750410Y-48129840D01*
X98750394Y-48129851D01*
X98516990Y-48308948D01*
X98516983Y-48308954D01*
X98308954Y-48516983D01*
X98308948Y-48516990D01*
X98129851Y-48750394D01*
X98129840Y-48750410D01*
X97982742Y-49005189D01*
X97982734Y-49005205D01*
X97870152Y-49277005D01*
X97794001Y-49561203D01*
X97755601Y-49852883D01*
X97755600Y-49852900D01*
X96011831Y-49852900D01*
X96004019Y-49803579D01*
X95994280Y-49742088D01*
X95940708Y-49577209D01*
X95940708Y-49577208D01*
X95862001Y-49422738D01*
X95838580Y-49390503D01*
X95815099Y-49324697D01*
X95830924Y-49256642D01*
X95881029Y-49207947D01*
X95949507Y-49194071D01*
X95955068Y-49194675D01*
X96075266Y-49210500D01*
X96075273Y-49210500D01*
X96304727Y-49210500D01*
X96304734Y-49210500D01*
X96532238Y-49180548D01*
X96753887Y-49121158D01*
X96965888Y-49033344D01*
X97164612Y-48918611D01*
X97346661Y-48778919D01*
X97346665Y-48778914D01*
X97346670Y-48778911D01*
X97508911Y-48616670D01*
X97508914Y-48616665D01*
X97508919Y-48616661D01*
X97648611Y-48434612D01*
X97763344Y-48235888D01*
X97851158Y-48023887D01*
X97910548Y-47802238D01*
X97940500Y-47574734D01*
X97940500Y-47345266D01*
X97910548Y-47117762D01*
X97851158Y-46896113D01*
X97763344Y-46684112D01*
X97648611Y-46485388D01*
X97648608Y-46485385D01*
X97648607Y-46485382D01*
X97508918Y-46303338D01*
X97508911Y-46303330D01*
X97346670Y-46141089D01*
X97346661Y-46141081D01*
X97164617Y-46001392D01*
X96965890Y-45886657D01*
X96965876Y-45886650D01*
X96753887Y-45798842D01*
X96532238Y-45739452D01*
X96494215Y-45734446D01*
X96304741Y-45709500D01*
X96304734Y-45709500D01*
X96075266Y-45709500D01*
X96075258Y-45709500D01*
X95858715Y-45738009D01*
X95847762Y-45739452D01*
X95754076Y-45764554D01*
X95626112Y-45798842D01*
X95414123Y-45886650D01*
X95414109Y-45886657D01*
X95215382Y-46001392D01*
X95033338Y-46141081D01*
X94871081Y-46303338D01*
X94731392Y-46485382D01*
X94616657Y-46684109D01*
X94616650Y-46684123D01*
X94528842Y-46896112D01*
X94469453Y-47117759D01*
X94469451Y-47117770D01*
X94439500Y-47345258D01*
X94439500Y-47574741D01*
X94455926Y-47699500D01*
X94469452Y-47802238D01*
X94517815Y-47982734D01*
X94528842Y-48023887D01*
X94616650Y-48235876D01*
X94616657Y-48235890D01*
X94682896Y-48350620D01*
X94723618Y-48421153D01*
X94731392Y-48434617D01*
X94871081Y-48616661D01*
X94871089Y-48616670D01*
X94941338Y-48686919D01*
X94974823Y-48748242D01*
X94969839Y-48817934D01*
X94927967Y-48873867D01*
X94862503Y-48898284D01*
X94853657Y-48898600D01*
X94833313Y-48898600D01*
X94662086Y-48925720D01*
X94497211Y-48979290D01*
X94497208Y-48979291D01*
X94342739Y-49057998D01*
X94312780Y-49079765D01*
X94202486Y-49159899D01*
X94202484Y-49159901D01*
X94202483Y-49159901D01*
X94079901Y-49282483D01*
X94079901Y-49282484D01*
X94079899Y-49282486D01*
X94049231Y-49324697D01*
X93977998Y-49422739D01*
X93899291Y-49577208D01*
X93899290Y-49577211D01*
X93845720Y-49742086D01*
X93818600Y-49913312D01*
X86181400Y-49913312D01*
X86165622Y-49813702D01*
X86154280Y-49742088D01*
X86100708Y-49577209D01*
X86100708Y-49577208D01*
X86022001Y-49422739D01*
X85920101Y-49282486D01*
X85797514Y-49159899D01*
X85657260Y-49057998D01*
X85608874Y-49033344D01*
X85502791Y-48979291D01*
X85502788Y-48979290D01*
X85337913Y-48925720D01*
X85166687Y-48898600D01*
X85166682Y-48898600D01*
X84993318Y-48898600D01*
X84993313Y-48898600D01*
X84822086Y-48925720D01*
X84657211Y-48979290D01*
X84657208Y-48979291D01*
X84502739Y-49057998D01*
X84472780Y-49079765D01*
X84362486Y-49159899D01*
X84362484Y-49159901D01*
X84362483Y-49159901D01*
X84239901Y-49282483D01*
X84239901Y-49282484D01*
X84239899Y-49282486D01*
X84209231Y-49324697D01*
X84137998Y-49422739D01*
X84059291Y-49577208D01*
X84059290Y-49577211D01*
X84005720Y-49742086D01*
X83978600Y-49913312D01*
X82244400Y-49913312D01*
X82244400Y-49852894D01*
X82205998Y-49561200D01*
X82129850Y-49277013D01*
X82102300Y-49210500D01*
X82017265Y-49005205D01*
X82017257Y-49005189D01*
X81870159Y-48750410D01*
X81870155Y-48750403D01*
X81691050Y-48516989D01*
X81691045Y-48516983D01*
X81483016Y-48308954D01*
X81483009Y-48308948D01*
X81249605Y-48129851D01*
X81249603Y-48129849D01*
X81249597Y-48129845D01*
X81249592Y-48129842D01*
X81249589Y-48129840D01*
X80994810Y-47982742D01*
X80994794Y-47982734D01*
X80722994Y-47870152D01*
X80469544Y-47802240D01*
X80438800Y-47794002D01*
X80438799Y-47794001D01*
X80438796Y-47794001D01*
X80147116Y-47755601D01*
X80147111Y-47755600D01*
X80147106Y-47755600D01*
X79852894Y-47755600D01*
X79852888Y-47755600D01*
X79852883Y-47755601D01*
X79561203Y-47794001D01*
X79277005Y-47870152D01*
X79005205Y-47982734D01*
X79005189Y-47982742D01*
X78750410Y-48129840D01*
X78750394Y-48129851D01*
X78516990Y-48308948D01*
X78516983Y-48308954D01*
X78308954Y-48516983D01*
X78308948Y-48516990D01*
X78129851Y-48750394D01*
X78129840Y-48750410D01*
X77982742Y-49005189D01*
X77982734Y-49005205D01*
X77870152Y-49277005D01*
X77794001Y-49561203D01*
X77755601Y-49852883D01*
X77755600Y-49852900D01*
X76011831Y-49852900D01*
X76004019Y-49803579D01*
X75994280Y-49742088D01*
X75940708Y-49577209D01*
X75940708Y-49577208D01*
X75862001Y-49422738D01*
X75838580Y-49390503D01*
X75815099Y-49324697D01*
X75830924Y-49256642D01*
X75881029Y-49207947D01*
X75949507Y-49194071D01*
X75955068Y-49194675D01*
X76075266Y-49210500D01*
X76075273Y-49210500D01*
X76304727Y-49210500D01*
X76304734Y-49210500D01*
X76532238Y-49180548D01*
X76753887Y-49121158D01*
X76965888Y-49033344D01*
X77164612Y-48918611D01*
X77346661Y-48778919D01*
X77346665Y-48778914D01*
X77346670Y-48778911D01*
X77508911Y-48616670D01*
X77508914Y-48616665D01*
X77508919Y-48616661D01*
X77648611Y-48434612D01*
X77763344Y-48235888D01*
X77851158Y-48023887D01*
X77910548Y-47802238D01*
X77940500Y-47574734D01*
X77940500Y-47345266D01*
X77910548Y-47117762D01*
X77851158Y-46896113D01*
X77763344Y-46684112D01*
X77648611Y-46485388D01*
X77648608Y-46485385D01*
X77648607Y-46485382D01*
X77508918Y-46303338D01*
X77508911Y-46303330D01*
X77346670Y-46141089D01*
X77346661Y-46141081D01*
X77164617Y-46001392D01*
X76965890Y-45886657D01*
X76965876Y-45886650D01*
X76753887Y-45798842D01*
X76532238Y-45739452D01*
X76494215Y-45734446D01*
X76304741Y-45709500D01*
X76304734Y-45709500D01*
X76075266Y-45709500D01*
X76075258Y-45709500D01*
X75858715Y-45738009D01*
X75847762Y-45739452D01*
X75754076Y-45764554D01*
X75626112Y-45798842D01*
X75414123Y-45886650D01*
X75414109Y-45886657D01*
X75215382Y-46001392D01*
X75033338Y-46141081D01*
X74871081Y-46303338D01*
X74731392Y-46485382D01*
X74616657Y-46684109D01*
X74616650Y-46684123D01*
X74528842Y-46896112D01*
X74469453Y-47117759D01*
X74469451Y-47117770D01*
X74439500Y-47345258D01*
X74439500Y-47574741D01*
X74455926Y-47699500D01*
X74469452Y-47802238D01*
X74517815Y-47982734D01*
X74528842Y-48023887D01*
X74616650Y-48235876D01*
X74616657Y-48235890D01*
X74682896Y-48350620D01*
X74723618Y-48421153D01*
X74731392Y-48434617D01*
X74871081Y-48616661D01*
X74871089Y-48616670D01*
X74941338Y-48686919D01*
X74974823Y-48748242D01*
X74969839Y-48817934D01*
X74927967Y-48873867D01*
X74862503Y-48898284D01*
X74853657Y-48898600D01*
X74833313Y-48898600D01*
X74662086Y-48925720D01*
X74497211Y-48979290D01*
X74497208Y-48979291D01*
X74342739Y-49057998D01*
X74312780Y-49079765D01*
X74202486Y-49159899D01*
X74202484Y-49159901D01*
X74202483Y-49159901D01*
X74079901Y-49282483D01*
X74079901Y-49282484D01*
X74079899Y-49282486D01*
X74049231Y-49324697D01*
X73977998Y-49422739D01*
X73899291Y-49577208D01*
X73899290Y-49577211D01*
X73845720Y-49742086D01*
X73818600Y-49913312D01*
X69750500Y-49913312D01*
X69750500Y-44805258D01*
X80789500Y-44805258D01*
X80789500Y-45034741D01*
X80814446Y-45224215D01*
X80819452Y-45262238D01*
X80819453Y-45262240D01*
X80878842Y-45483887D01*
X80966650Y-45695876D01*
X80966657Y-45695890D01*
X81081392Y-45894617D01*
X81221081Y-46076661D01*
X81221089Y-46076670D01*
X81383330Y-46238911D01*
X81383338Y-46238918D01*
X81565382Y-46378607D01*
X81565385Y-46378608D01*
X81565388Y-46378611D01*
X81764112Y-46493344D01*
X81764117Y-46493346D01*
X81764123Y-46493349D01*
X81855480Y-46531190D01*
X81976113Y-46581158D01*
X82197762Y-46640548D01*
X82425266Y-46670500D01*
X82425273Y-46670500D01*
X82654727Y-46670500D01*
X82654734Y-46670500D01*
X82882238Y-46640548D01*
X83103887Y-46581158D01*
X83315888Y-46493344D01*
X83514612Y-46378611D01*
X83696661Y-46238919D01*
X83696665Y-46238914D01*
X83696670Y-46238911D01*
X83858911Y-46076670D01*
X83858914Y-46076665D01*
X83858919Y-46076661D01*
X83998611Y-45894612D01*
X84113344Y-45695888D01*
X84201158Y-45483887D01*
X84260548Y-45262238D01*
X84290500Y-45034734D01*
X84290500Y-44805266D01*
X84290499Y-44805258D01*
X100789500Y-44805258D01*
X100789500Y-45034741D01*
X100814446Y-45224215D01*
X100819452Y-45262238D01*
X100819453Y-45262240D01*
X100878842Y-45483887D01*
X100966650Y-45695876D01*
X100966657Y-45695890D01*
X101081392Y-45894617D01*
X101221081Y-46076661D01*
X101221089Y-46076670D01*
X101383330Y-46238911D01*
X101383338Y-46238918D01*
X101565382Y-46378607D01*
X101565385Y-46378608D01*
X101565388Y-46378611D01*
X101764112Y-46493344D01*
X101764117Y-46493346D01*
X101764123Y-46493349D01*
X101855480Y-46531190D01*
X101976113Y-46581158D01*
X102197762Y-46640548D01*
X102425266Y-46670500D01*
X102425273Y-46670500D01*
X102654727Y-46670500D01*
X102654734Y-46670500D01*
X102882238Y-46640548D01*
X103103887Y-46581158D01*
X103315888Y-46493344D01*
X103514612Y-46378611D01*
X103696661Y-46238919D01*
X103696665Y-46238914D01*
X103696670Y-46238911D01*
X103858911Y-46076670D01*
X103858914Y-46076665D01*
X103858919Y-46076661D01*
X103998611Y-45894612D01*
X104113344Y-45695888D01*
X104201158Y-45483887D01*
X104260548Y-45262238D01*
X104290500Y-45034734D01*
X104290500Y-44805266D01*
X104290499Y-44805258D01*
X120789500Y-44805258D01*
X120789500Y-45034741D01*
X120814446Y-45224215D01*
X120819452Y-45262238D01*
X120819453Y-45262240D01*
X120878842Y-45483887D01*
X120966650Y-45695876D01*
X120966657Y-45695890D01*
X121081392Y-45894617D01*
X121221081Y-46076661D01*
X121221089Y-46076670D01*
X121383330Y-46238911D01*
X121383338Y-46238918D01*
X121565382Y-46378607D01*
X121565385Y-46378608D01*
X121565388Y-46378611D01*
X121764112Y-46493344D01*
X121764117Y-46493346D01*
X121764123Y-46493349D01*
X121855480Y-46531190D01*
X121976113Y-46581158D01*
X122197762Y-46640548D01*
X122425266Y-46670500D01*
X122425273Y-46670500D01*
X122654727Y-46670500D01*
X122654734Y-46670500D01*
X122882238Y-46640548D01*
X123103887Y-46581158D01*
X123315888Y-46493344D01*
X123514612Y-46378611D01*
X123696661Y-46238919D01*
X123696665Y-46238914D01*
X123696670Y-46238911D01*
X123858911Y-46076670D01*
X123858914Y-46076665D01*
X123858919Y-46076661D01*
X123998611Y-45894612D01*
X124113344Y-45695888D01*
X124201158Y-45483887D01*
X124260548Y-45262238D01*
X124290500Y-45034734D01*
X124290500Y-44805266D01*
X124290499Y-44805258D01*
X140789500Y-44805258D01*
X140789500Y-45034741D01*
X140814446Y-45224215D01*
X140819452Y-45262238D01*
X140819453Y-45262240D01*
X140878842Y-45483887D01*
X140966650Y-45695876D01*
X140966657Y-45695890D01*
X141081392Y-45894617D01*
X141221081Y-46076661D01*
X141221089Y-46076670D01*
X141383330Y-46238911D01*
X141383338Y-46238918D01*
X141565382Y-46378607D01*
X141565385Y-46378608D01*
X141565388Y-46378611D01*
X141764112Y-46493344D01*
X141764117Y-46493346D01*
X141764123Y-46493349D01*
X141855480Y-46531190D01*
X141976113Y-46581158D01*
X142197762Y-46640548D01*
X142425266Y-46670500D01*
X142425273Y-46670500D01*
X142654727Y-46670500D01*
X142654734Y-46670500D01*
X142882238Y-46640548D01*
X143103887Y-46581158D01*
X143315888Y-46493344D01*
X143514612Y-46378611D01*
X143696661Y-46238919D01*
X143696665Y-46238914D01*
X143696670Y-46238911D01*
X143858911Y-46076670D01*
X143858914Y-46076665D01*
X143858919Y-46076661D01*
X143998611Y-45894612D01*
X144113344Y-45695888D01*
X144201158Y-45483887D01*
X144260548Y-45262238D01*
X144290500Y-45034734D01*
X144290500Y-44805266D01*
X144260548Y-44577762D01*
X144201158Y-44356113D01*
X144113344Y-44144112D01*
X143998611Y-43945388D01*
X143998608Y-43945385D01*
X143998607Y-43945382D01*
X143858918Y-43763338D01*
X143858911Y-43763330D01*
X143696670Y-43601089D01*
X143696661Y-43601081D01*
X143514617Y-43461392D01*
X143315890Y-43346657D01*
X143315876Y-43346650D01*
X143103887Y-43258842D01*
X142882238Y-43199452D01*
X142844215Y-43194446D01*
X142654741Y-43169500D01*
X142654734Y-43169500D01*
X142425266Y-43169500D01*
X142425258Y-43169500D01*
X142208715Y-43198009D01*
X142197762Y-43199452D01*
X142104076Y-43224554D01*
X141976112Y-43258842D01*
X141764123Y-43346650D01*
X141764109Y-43346657D01*
X141565382Y-43461392D01*
X141383338Y-43601081D01*
X141221081Y-43763338D01*
X141081392Y-43945382D01*
X140966657Y-44144109D01*
X140966650Y-44144123D01*
X140878842Y-44356112D01*
X140819453Y-44577759D01*
X140819451Y-44577770D01*
X140789500Y-44805258D01*
X124290499Y-44805258D01*
X124260548Y-44577762D01*
X124201158Y-44356113D01*
X124113344Y-44144112D01*
X123998611Y-43945388D01*
X123998608Y-43945385D01*
X123998607Y-43945382D01*
X123858918Y-43763338D01*
X123858911Y-43763330D01*
X123696670Y-43601089D01*
X123696661Y-43601081D01*
X123514617Y-43461392D01*
X123315890Y-43346657D01*
X123315876Y-43346650D01*
X123103887Y-43258842D01*
X122882238Y-43199452D01*
X122844215Y-43194446D01*
X122654741Y-43169500D01*
X122654734Y-43169500D01*
X122425266Y-43169500D01*
X122425258Y-43169500D01*
X122208715Y-43198009D01*
X122197762Y-43199452D01*
X122104076Y-43224554D01*
X121976112Y-43258842D01*
X121764123Y-43346650D01*
X121764109Y-43346657D01*
X121565382Y-43461392D01*
X121383338Y-43601081D01*
X121221081Y-43763338D01*
X121081392Y-43945382D01*
X120966657Y-44144109D01*
X120966650Y-44144123D01*
X120878842Y-44356112D01*
X120819453Y-44577759D01*
X120819451Y-44577770D01*
X120789500Y-44805258D01*
X104290499Y-44805258D01*
X104260548Y-44577762D01*
X104201158Y-44356113D01*
X104113344Y-44144112D01*
X103998611Y-43945388D01*
X103998608Y-43945385D01*
X103998607Y-43945382D01*
X103858918Y-43763338D01*
X103858911Y-43763330D01*
X103696670Y-43601089D01*
X103696661Y-43601081D01*
X103514617Y-43461392D01*
X103315890Y-43346657D01*
X103315876Y-43346650D01*
X103103887Y-43258842D01*
X102882238Y-43199452D01*
X102844215Y-43194446D01*
X102654741Y-43169500D01*
X102654734Y-43169500D01*
X102425266Y-43169500D01*
X102425258Y-43169500D01*
X102208715Y-43198009D01*
X102197762Y-43199452D01*
X102104076Y-43224554D01*
X101976112Y-43258842D01*
X101764123Y-43346650D01*
X101764109Y-43346657D01*
X101565382Y-43461392D01*
X101383338Y-43601081D01*
X101221081Y-43763338D01*
X101081392Y-43945382D01*
X100966657Y-44144109D01*
X100966650Y-44144123D01*
X100878842Y-44356112D01*
X100819453Y-44577759D01*
X100819451Y-44577770D01*
X100789500Y-44805258D01*
X84290499Y-44805258D01*
X84260548Y-44577762D01*
X84201158Y-44356113D01*
X84113344Y-44144112D01*
X83998611Y-43945388D01*
X83998608Y-43945385D01*
X83998607Y-43945382D01*
X83858918Y-43763338D01*
X83858911Y-43763330D01*
X83696670Y-43601089D01*
X83696661Y-43601081D01*
X83514617Y-43461392D01*
X83315890Y-43346657D01*
X83315876Y-43346650D01*
X83103887Y-43258842D01*
X82882238Y-43199452D01*
X82844215Y-43194446D01*
X82654741Y-43169500D01*
X82654734Y-43169500D01*
X82425266Y-43169500D01*
X82425258Y-43169500D01*
X82208715Y-43198009D01*
X82197762Y-43199452D01*
X82104076Y-43224554D01*
X81976112Y-43258842D01*
X81764123Y-43346650D01*
X81764109Y-43346657D01*
X81565382Y-43461392D01*
X81383338Y-43601081D01*
X81221081Y-43763338D01*
X81081392Y-43945382D01*
X80966657Y-44144109D01*
X80966650Y-44144123D01*
X80878842Y-44356112D01*
X80819453Y-44577759D01*
X80819451Y-44577770D01*
X80789500Y-44805258D01*
X69750500Y-44805258D01*
X69750500Y-43147648D01*
X128699500Y-43147648D01*
X128699500Y-43352351D01*
X128731522Y-43554534D01*
X128794781Y-43749223D01*
X128887715Y-43931613D01*
X129008028Y-44097213D01*
X129152786Y-44241971D01*
X129307749Y-44354556D01*
X129318390Y-44362287D01*
X129434607Y-44421503D01*
X129500776Y-44455218D01*
X129500778Y-44455218D01*
X129500781Y-44455220D01*
X129605137Y-44489127D01*
X129695465Y-44518477D01*
X129796557Y-44534488D01*
X129897648Y-44550500D01*
X129897649Y-44550500D01*
X130102351Y-44550500D01*
X130102352Y-44550500D01*
X130304534Y-44518477D01*
X130499219Y-44455220D01*
X130681610Y-44362287D01*
X130774590Y-44294732D01*
X130847213Y-44241971D01*
X130847215Y-44241968D01*
X130847219Y-44241966D01*
X130991966Y-44097219D01*
X130991968Y-44097215D01*
X130991971Y-44097213D01*
X131044732Y-44024590D01*
X131112287Y-43931610D01*
X131205220Y-43749219D01*
X131268477Y-43554534D01*
X131300500Y-43352352D01*
X131300500Y-43147648D01*
X131268477Y-42945466D01*
X131205220Y-42750781D01*
X131205218Y-42750778D01*
X131205218Y-42750776D01*
X131144333Y-42631284D01*
X131112287Y-42568390D01*
X131076751Y-42519478D01*
X130991971Y-42402786D01*
X130847213Y-42258028D01*
X130681613Y-42137715D01*
X130681612Y-42137714D01*
X130681610Y-42137713D01*
X130624653Y-42108691D01*
X130499223Y-42044781D01*
X130304534Y-41981522D01*
X130129995Y-41953878D01*
X130102352Y-41949500D01*
X129897648Y-41949500D01*
X129873329Y-41953351D01*
X129695465Y-41981522D01*
X129500776Y-42044781D01*
X129318386Y-42137715D01*
X129152786Y-42258028D01*
X129008028Y-42402786D01*
X128887715Y-42568386D01*
X128794781Y-42750776D01*
X128731522Y-42945465D01*
X128699500Y-43147648D01*
X69750500Y-43147648D01*
X69750500Y-29913312D01*
X73818600Y-29913312D01*
X73818600Y-30086687D01*
X73845720Y-30257913D01*
X73899290Y-30422788D01*
X73899291Y-30422791D01*
X73977998Y-30577260D01*
X74079899Y-30717514D01*
X74202486Y-30840101D01*
X74342740Y-30942002D01*
X74418502Y-30980604D01*
X74497208Y-31020708D01*
X74497211Y-31020709D01*
X74579648Y-31047494D01*
X74662088Y-31074280D01*
X74741391Y-31086840D01*
X74833313Y-31101400D01*
X74833318Y-31101400D01*
X75006687Y-31101400D01*
X75089695Y-31088252D01*
X75177912Y-31074280D01*
X75342791Y-31020708D01*
X75497260Y-30942002D01*
X75637514Y-30840101D01*
X75760101Y-30717514D01*
X75862002Y-30577260D01*
X75940708Y-30422791D01*
X75994280Y-30257912D01*
X76011831Y-30147099D01*
X76021400Y-30086687D01*
X76021400Y-29913312D01*
X76014260Y-29868233D01*
X76011831Y-29852900D01*
X77755600Y-29852900D01*
X77755600Y-30147099D01*
X77755601Y-30147116D01*
X77794001Y-30438796D01*
X77870152Y-30722994D01*
X77982734Y-30994794D01*
X77982742Y-30994810D01*
X78129840Y-31249589D01*
X78129851Y-31249605D01*
X78308948Y-31483009D01*
X78308954Y-31483016D01*
X78516983Y-31691045D01*
X78516989Y-31691050D01*
X78750403Y-31870155D01*
X78750410Y-31870159D01*
X79005189Y-32017257D01*
X79005205Y-32017265D01*
X79277005Y-32129847D01*
X79277007Y-32129847D01*
X79277013Y-32129850D01*
X79561200Y-32205998D01*
X79852894Y-32244400D01*
X79852901Y-32244400D01*
X80147099Y-32244400D01*
X80147106Y-32244400D01*
X80438800Y-32205998D01*
X80722987Y-32129850D01*
X80796318Y-32099475D01*
X80994794Y-32017265D01*
X80994797Y-32017263D01*
X80994803Y-32017261D01*
X81249597Y-31870155D01*
X81483011Y-31691050D01*
X81691050Y-31483011D01*
X81870155Y-31249597D01*
X82017261Y-30994803D01*
X82129850Y-30722987D01*
X82205998Y-30438800D01*
X82244400Y-30147106D01*
X82244400Y-29913312D01*
X83978600Y-29913312D01*
X83978600Y-30086687D01*
X84005720Y-30257913D01*
X84059290Y-30422788D01*
X84059291Y-30422791D01*
X84137998Y-30577260D01*
X84239899Y-30717514D01*
X84362486Y-30840101D01*
X84502740Y-30942002D01*
X84578502Y-30980604D01*
X84657208Y-31020708D01*
X84657211Y-31020709D01*
X84739648Y-31047494D01*
X84822088Y-31074280D01*
X84901391Y-31086840D01*
X84993313Y-31101400D01*
X84993318Y-31101400D01*
X85166687Y-31101400D01*
X85249695Y-31088252D01*
X85337912Y-31074280D01*
X85502791Y-31020708D01*
X85657260Y-30942002D01*
X85797514Y-30840101D01*
X85920101Y-30717514D01*
X86022002Y-30577260D01*
X86100708Y-30422791D01*
X86154280Y-30257912D01*
X86171831Y-30147099D01*
X86181400Y-30086687D01*
X86181400Y-29913312D01*
X93818600Y-29913312D01*
X93818600Y-30086687D01*
X93845720Y-30257913D01*
X93899290Y-30422788D01*
X93899291Y-30422791D01*
X93977998Y-30577260D01*
X94079899Y-30717514D01*
X94202486Y-30840101D01*
X94342740Y-30942002D01*
X94418502Y-30980604D01*
X94497208Y-31020708D01*
X94497211Y-31020709D01*
X94579648Y-31047494D01*
X94662088Y-31074280D01*
X94741391Y-31086840D01*
X94833313Y-31101400D01*
X94833318Y-31101400D01*
X95006687Y-31101400D01*
X95089695Y-31088252D01*
X95177912Y-31074280D01*
X95342791Y-31020708D01*
X95497260Y-30942002D01*
X95637514Y-30840101D01*
X95760101Y-30717514D01*
X95862002Y-30577260D01*
X95940708Y-30422791D01*
X95994280Y-30257912D01*
X96011831Y-30147099D01*
X96021400Y-30086687D01*
X96021400Y-29913312D01*
X96014260Y-29868233D01*
X96011831Y-29852900D01*
X97755600Y-29852900D01*
X97755600Y-30147099D01*
X97755601Y-30147116D01*
X97794001Y-30438796D01*
X97870152Y-30722994D01*
X97982734Y-30994794D01*
X97982742Y-30994810D01*
X98129840Y-31249589D01*
X98129851Y-31249605D01*
X98308948Y-31483009D01*
X98308954Y-31483016D01*
X98516983Y-31691045D01*
X98516989Y-31691050D01*
X98750403Y-31870155D01*
X98750410Y-31870159D01*
X99005189Y-32017257D01*
X99005205Y-32017265D01*
X99277005Y-32129847D01*
X99277007Y-32129847D01*
X99277013Y-32129850D01*
X99561200Y-32205998D01*
X99852894Y-32244400D01*
X99852901Y-32244400D01*
X100147099Y-32244400D01*
X100147106Y-32244400D01*
X100438800Y-32205998D01*
X100722987Y-32129850D01*
X100796318Y-32099475D01*
X100994794Y-32017265D01*
X100994797Y-32017263D01*
X100994803Y-32017261D01*
X101249597Y-31870155D01*
X101483011Y-31691050D01*
X101691050Y-31483011D01*
X101870155Y-31249597D01*
X102017261Y-30994803D01*
X102129850Y-30722987D01*
X102205998Y-30438800D01*
X102244400Y-30147106D01*
X102244400Y-29913312D01*
X103978600Y-29913312D01*
X103978600Y-30086687D01*
X104005720Y-30257913D01*
X104059290Y-30422788D01*
X104059291Y-30422791D01*
X104137998Y-30577260D01*
X104239899Y-30717514D01*
X104362486Y-30840101D01*
X104502740Y-30942002D01*
X104578502Y-30980604D01*
X104657208Y-31020708D01*
X104657211Y-31020709D01*
X104739648Y-31047494D01*
X104822088Y-31074280D01*
X104901391Y-31086840D01*
X104993313Y-31101400D01*
X104993318Y-31101400D01*
X105166687Y-31101400D01*
X105249695Y-31088252D01*
X105337912Y-31074280D01*
X105502791Y-31020708D01*
X105657260Y-30942002D01*
X105797514Y-30840101D01*
X105920101Y-30717514D01*
X106022002Y-30577260D01*
X106100708Y-30422791D01*
X106154280Y-30257912D01*
X106171831Y-30147099D01*
X106181400Y-30086687D01*
X106181400Y-29913312D01*
X113818600Y-29913312D01*
X113818600Y-30086687D01*
X113845720Y-30257913D01*
X113899290Y-30422788D01*
X113899291Y-30422791D01*
X113977998Y-30577260D01*
X114079899Y-30717514D01*
X114202486Y-30840101D01*
X114342740Y-30942002D01*
X114418502Y-30980604D01*
X114497208Y-31020708D01*
X114497211Y-31020709D01*
X114579648Y-31047494D01*
X114662088Y-31074280D01*
X114741391Y-31086840D01*
X114833313Y-31101400D01*
X114833318Y-31101400D01*
X115006687Y-31101400D01*
X115089695Y-31088252D01*
X115177912Y-31074280D01*
X115342791Y-31020708D01*
X115497260Y-30942002D01*
X115637514Y-30840101D01*
X115760101Y-30717514D01*
X115862002Y-30577260D01*
X115940708Y-30422791D01*
X115994280Y-30257912D01*
X116011831Y-30147099D01*
X116021400Y-30086687D01*
X116021400Y-29913312D01*
X116014260Y-29868233D01*
X116011831Y-29852900D01*
X117755600Y-29852900D01*
X117755600Y-30147099D01*
X117755601Y-30147116D01*
X117794001Y-30438796D01*
X117870152Y-30722994D01*
X117982734Y-30994794D01*
X117982742Y-30994810D01*
X118129840Y-31249589D01*
X118129851Y-31249605D01*
X118308948Y-31483009D01*
X118308954Y-31483016D01*
X118516983Y-31691045D01*
X118516989Y-31691050D01*
X118750403Y-31870155D01*
X118750410Y-31870159D01*
X119005189Y-32017257D01*
X119005205Y-32017265D01*
X119277005Y-32129847D01*
X119277007Y-32129847D01*
X119277013Y-32129850D01*
X119561200Y-32205998D01*
X119852894Y-32244400D01*
X119852901Y-32244400D01*
X120147099Y-32244400D01*
X120147106Y-32244400D01*
X120438800Y-32205998D01*
X120722987Y-32129850D01*
X120796318Y-32099475D01*
X120994794Y-32017265D01*
X120994797Y-32017263D01*
X120994803Y-32017261D01*
X121249597Y-31870155D01*
X121483011Y-31691050D01*
X121691050Y-31483011D01*
X121870155Y-31249597D01*
X122017261Y-30994803D01*
X122129850Y-30722987D01*
X122205998Y-30438800D01*
X122244400Y-30147106D01*
X122244400Y-29913312D01*
X123978600Y-29913312D01*
X123978600Y-30086687D01*
X124005720Y-30257913D01*
X124059290Y-30422788D01*
X124059291Y-30422791D01*
X124137998Y-30577260D01*
X124239899Y-30717514D01*
X124362486Y-30840101D01*
X124502740Y-30942002D01*
X124578502Y-30980604D01*
X124657208Y-31020708D01*
X124657211Y-31020709D01*
X124739648Y-31047494D01*
X124822088Y-31074280D01*
X124901391Y-31086840D01*
X124993313Y-31101400D01*
X124993318Y-31101400D01*
X125166687Y-31101400D01*
X125249695Y-31088252D01*
X125337912Y-31074280D01*
X125502791Y-31020708D01*
X125657260Y-30942002D01*
X125797514Y-30840101D01*
X125920101Y-30717514D01*
X126022002Y-30577260D01*
X126100708Y-30422791D01*
X126154280Y-30257912D01*
X126171831Y-30147099D01*
X126181400Y-30086687D01*
X126181400Y-29913312D01*
X133818600Y-29913312D01*
X133818600Y-30086687D01*
X133845720Y-30257913D01*
X133899290Y-30422788D01*
X133899291Y-30422791D01*
X133977998Y-30577260D01*
X134079899Y-30717514D01*
X134202486Y-30840101D01*
X134342740Y-30942002D01*
X134418502Y-30980604D01*
X134497208Y-31020708D01*
X134497211Y-31020709D01*
X134579648Y-31047494D01*
X134662088Y-31074280D01*
X134741391Y-31086840D01*
X134833313Y-31101400D01*
X134833318Y-31101400D01*
X135006687Y-31101400D01*
X135089695Y-31088252D01*
X135177912Y-31074280D01*
X135342791Y-31020708D01*
X135497260Y-30942002D01*
X135637514Y-30840101D01*
X135760101Y-30717514D01*
X135862002Y-30577260D01*
X135940708Y-30422791D01*
X135994280Y-30257912D01*
X136011831Y-30147099D01*
X136021400Y-30086687D01*
X136021400Y-29913312D01*
X136014260Y-29868233D01*
X136011831Y-29852900D01*
X137755600Y-29852900D01*
X137755600Y-30147099D01*
X137755601Y-30147116D01*
X137794001Y-30438796D01*
X137870152Y-30722994D01*
X137982734Y-30994794D01*
X137982742Y-30994810D01*
X138129840Y-31249589D01*
X138129851Y-31249605D01*
X138308948Y-31483009D01*
X138308954Y-31483016D01*
X138516983Y-31691045D01*
X138516989Y-31691050D01*
X138750403Y-31870155D01*
X138750410Y-31870159D01*
X139005189Y-32017257D01*
X139005205Y-32017265D01*
X139277005Y-32129847D01*
X139277007Y-32129847D01*
X139277013Y-32129850D01*
X139561200Y-32205998D01*
X139852894Y-32244400D01*
X139852901Y-32244400D01*
X140147099Y-32244400D01*
X140147106Y-32244400D01*
X140438800Y-32205998D01*
X140722987Y-32129850D01*
X140796318Y-32099475D01*
X140994794Y-32017265D01*
X140994797Y-32017263D01*
X140994803Y-32017261D01*
X141249597Y-31870155D01*
X141483011Y-31691050D01*
X141691050Y-31483011D01*
X141870155Y-31249597D01*
X142017261Y-30994803D01*
X142129850Y-30722987D01*
X142205998Y-30438800D01*
X142244400Y-30147106D01*
X142244400Y-29913312D01*
X143978600Y-29913312D01*
X143978600Y-30086687D01*
X144005720Y-30257913D01*
X144059290Y-30422788D01*
X144059291Y-30422791D01*
X144137998Y-30577260D01*
X144239899Y-30717514D01*
X144362486Y-30840101D01*
X144502740Y-30942002D01*
X144578502Y-30980604D01*
X144657208Y-31020708D01*
X144657211Y-31020709D01*
X144739648Y-31047494D01*
X144822088Y-31074280D01*
X144901391Y-31086840D01*
X144993313Y-31101400D01*
X144993318Y-31101400D01*
X145166687Y-31101400D01*
X145249695Y-31088252D01*
X145337912Y-31074280D01*
X145502791Y-31020708D01*
X145657260Y-30942002D01*
X145797514Y-30840101D01*
X145920101Y-30717514D01*
X146022002Y-30577260D01*
X146100708Y-30422791D01*
X146154280Y-30257912D01*
X146171831Y-30147099D01*
X146181400Y-30086687D01*
X146181400Y-29913312D01*
X146165622Y-29813702D01*
X146154280Y-29742088D01*
X146100708Y-29577209D01*
X146100708Y-29577208D01*
X146022001Y-29422739D01*
X145920101Y-29282486D01*
X145797514Y-29159899D01*
X145657260Y-29057998D01*
X145608874Y-29033344D01*
X145502791Y-28979291D01*
X145502788Y-28979290D01*
X145337913Y-28925720D01*
X145166687Y-28898600D01*
X145166682Y-28898600D01*
X144993318Y-28898600D01*
X144993313Y-28898600D01*
X144822086Y-28925720D01*
X144657211Y-28979290D01*
X144657208Y-28979291D01*
X144502739Y-29057998D01*
X144471405Y-29080764D01*
X144362486Y-29159899D01*
X144362484Y-29159901D01*
X144362483Y-29159901D01*
X144239901Y-29282483D01*
X144239901Y-29282484D01*
X144239899Y-29282486D01*
X144209231Y-29324697D01*
X144137998Y-29422739D01*
X144059291Y-29577208D01*
X144059290Y-29577211D01*
X144005720Y-29742086D01*
X143978600Y-29913312D01*
X142244400Y-29913312D01*
X142244400Y-29852894D01*
X142205998Y-29561200D01*
X142129850Y-29277013D01*
X142102300Y-29210500D01*
X142017265Y-29005205D01*
X142017257Y-29005189D01*
X141870159Y-28750410D01*
X141870155Y-28750403D01*
X141691050Y-28516989D01*
X141691045Y-28516983D01*
X141483016Y-28308954D01*
X141483009Y-28308948D01*
X141249605Y-28129851D01*
X141249603Y-28129849D01*
X141249597Y-28129845D01*
X141249592Y-28129842D01*
X141249589Y-28129840D01*
X140994810Y-27982742D01*
X140994794Y-27982734D01*
X140722994Y-27870152D01*
X140469544Y-27802240D01*
X140438800Y-27794002D01*
X140438799Y-27794001D01*
X140438796Y-27794001D01*
X140147116Y-27755601D01*
X140147111Y-27755600D01*
X140147106Y-27755600D01*
X139852894Y-27755600D01*
X139852888Y-27755600D01*
X139852883Y-27755601D01*
X139561203Y-27794001D01*
X139277005Y-27870152D01*
X139005205Y-27982734D01*
X139005189Y-27982742D01*
X138750410Y-28129840D01*
X138750394Y-28129851D01*
X138516990Y-28308948D01*
X138516983Y-28308954D01*
X138308954Y-28516983D01*
X138308948Y-28516990D01*
X138129851Y-28750394D01*
X138129840Y-28750410D01*
X137982742Y-29005189D01*
X137982734Y-29005205D01*
X137870152Y-29277005D01*
X137794001Y-29561203D01*
X137755601Y-29852883D01*
X137755600Y-29852900D01*
X136011831Y-29852900D01*
X136004019Y-29803579D01*
X135994280Y-29742088D01*
X135940708Y-29577209D01*
X135940708Y-29577208D01*
X135862001Y-29422738D01*
X135838580Y-29390503D01*
X135815099Y-29324697D01*
X135830924Y-29256642D01*
X135881029Y-29207947D01*
X135949507Y-29194071D01*
X135955068Y-29194675D01*
X136075266Y-29210500D01*
X136075273Y-29210500D01*
X136304727Y-29210500D01*
X136304734Y-29210500D01*
X136532238Y-29180548D01*
X136753887Y-29121158D01*
X136965888Y-29033344D01*
X137164612Y-28918611D01*
X137346661Y-28778919D01*
X137346665Y-28778914D01*
X137346670Y-28778911D01*
X137508911Y-28616670D01*
X137508914Y-28616665D01*
X137508919Y-28616661D01*
X137648611Y-28434612D01*
X137763344Y-28235888D01*
X137851158Y-28023887D01*
X137910548Y-27802238D01*
X137940500Y-27574734D01*
X137940500Y-27345266D01*
X137910548Y-27117762D01*
X137851158Y-26896113D01*
X137763344Y-26684112D01*
X137648611Y-26485388D01*
X137648608Y-26485385D01*
X137648607Y-26485382D01*
X137508918Y-26303338D01*
X137508911Y-26303330D01*
X137346670Y-26141089D01*
X137346661Y-26141081D01*
X137164617Y-26001392D01*
X136965890Y-25886657D01*
X136965876Y-25886650D01*
X136753887Y-25798842D01*
X136532238Y-25739452D01*
X136494215Y-25734446D01*
X136304741Y-25709500D01*
X136304734Y-25709500D01*
X136075266Y-25709500D01*
X136075258Y-25709500D01*
X135858715Y-25738009D01*
X135847762Y-25739452D01*
X135754076Y-25764554D01*
X135626112Y-25798842D01*
X135414123Y-25886650D01*
X135414109Y-25886657D01*
X135215382Y-26001392D01*
X135033338Y-26141081D01*
X134871081Y-26303338D01*
X134731392Y-26485382D01*
X134616657Y-26684109D01*
X134616650Y-26684123D01*
X134528842Y-26896112D01*
X134469453Y-27117759D01*
X134469451Y-27117770D01*
X134439500Y-27345258D01*
X134439500Y-27574741D01*
X134463312Y-27755600D01*
X134469452Y-27802238D01*
X134517815Y-27982734D01*
X134528842Y-28023887D01*
X134616650Y-28235876D01*
X134616657Y-28235890D01*
X134731392Y-28434617D01*
X134871081Y-28616661D01*
X134871089Y-28616670D01*
X134941338Y-28686919D01*
X134974823Y-28748242D01*
X134969839Y-28817934D01*
X134927967Y-28873867D01*
X134862503Y-28898284D01*
X134853657Y-28898600D01*
X134833313Y-28898600D01*
X134662086Y-28925720D01*
X134497211Y-28979290D01*
X134497208Y-28979291D01*
X134342739Y-29057998D01*
X134311405Y-29080764D01*
X134202486Y-29159899D01*
X134202484Y-29159901D01*
X134202483Y-29159901D01*
X134079901Y-29282483D01*
X134079901Y-29282484D01*
X134079899Y-29282486D01*
X134049231Y-29324697D01*
X133977998Y-29422739D01*
X133899291Y-29577208D01*
X133899290Y-29577211D01*
X133845720Y-29742086D01*
X133818600Y-29913312D01*
X126181400Y-29913312D01*
X126165622Y-29813702D01*
X126154280Y-29742088D01*
X126100708Y-29577209D01*
X126100708Y-29577208D01*
X126022001Y-29422739D01*
X125920101Y-29282486D01*
X125797514Y-29159899D01*
X125657260Y-29057998D01*
X125608874Y-29033344D01*
X125502791Y-28979291D01*
X125502788Y-28979290D01*
X125337913Y-28925720D01*
X125166687Y-28898600D01*
X125166682Y-28898600D01*
X124993318Y-28898600D01*
X124993313Y-28898600D01*
X124822086Y-28925720D01*
X124657211Y-28979290D01*
X124657208Y-28979291D01*
X124502739Y-29057998D01*
X124471405Y-29080764D01*
X124362486Y-29159899D01*
X124362484Y-29159901D01*
X124362483Y-29159901D01*
X124239901Y-29282483D01*
X124239901Y-29282484D01*
X124239899Y-29282486D01*
X124209231Y-29324697D01*
X124137998Y-29422739D01*
X124059291Y-29577208D01*
X124059290Y-29577211D01*
X124005720Y-29742086D01*
X123978600Y-29913312D01*
X122244400Y-29913312D01*
X122244400Y-29852894D01*
X122205998Y-29561200D01*
X122129850Y-29277013D01*
X122102300Y-29210500D01*
X122017265Y-29005205D01*
X122017257Y-29005189D01*
X121870159Y-28750410D01*
X121870155Y-28750403D01*
X121691050Y-28516989D01*
X121691045Y-28516983D01*
X121483016Y-28308954D01*
X121483009Y-28308948D01*
X121249605Y-28129851D01*
X121249603Y-28129849D01*
X121249597Y-28129845D01*
X121249592Y-28129842D01*
X121249589Y-28129840D01*
X120994810Y-27982742D01*
X120994794Y-27982734D01*
X120722994Y-27870152D01*
X120469544Y-27802240D01*
X120438800Y-27794002D01*
X120438799Y-27794001D01*
X120438796Y-27794001D01*
X120147116Y-27755601D01*
X120147111Y-27755600D01*
X120147106Y-27755600D01*
X119852894Y-27755600D01*
X119852888Y-27755600D01*
X119852883Y-27755601D01*
X119561203Y-27794001D01*
X119277005Y-27870152D01*
X119005205Y-27982734D01*
X119005189Y-27982742D01*
X118750410Y-28129840D01*
X118750394Y-28129851D01*
X118516990Y-28308948D01*
X118516983Y-28308954D01*
X118308954Y-28516983D01*
X118308948Y-28516990D01*
X118129851Y-28750394D01*
X118129840Y-28750410D01*
X117982742Y-29005189D01*
X117982734Y-29005205D01*
X117870152Y-29277005D01*
X117794001Y-29561203D01*
X117755601Y-29852883D01*
X117755600Y-29852900D01*
X116011831Y-29852900D01*
X116004019Y-29803579D01*
X115994280Y-29742088D01*
X115940708Y-29577209D01*
X115940708Y-29577208D01*
X115862001Y-29422738D01*
X115838580Y-29390503D01*
X115815099Y-29324697D01*
X115830924Y-29256642D01*
X115881029Y-29207947D01*
X115949507Y-29194071D01*
X115955068Y-29194675D01*
X116075266Y-29210500D01*
X116075273Y-29210500D01*
X116304727Y-29210500D01*
X116304734Y-29210500D01*
X116532238Y-29180548D01*
X116753887Y-29121158D01*
X116965888Y-29033344D01*
X117164612Y-28918611D01*
X117346661Y-28778919D01*
X117346665Y-28778914D01*
X117346670Y-28778911D01*
X117508911Y-28616670D01*
X117508914Y-28616665D01*
X117508919Y-28616661D01*
X117648611Y-28434612D01*
X117763344Y-28235888D01*
X117851158Y-28023887D01*
X117910548Y-27802238D01*
X117940500Y-27574734D01*
X117940500Y-27345266D01*
X117910548Y-27117762D01*
X117851158Y-26896113D01*
X117763344Y-26684112D01*
X117648611Y-26485388D01*
X117648608Y-26485385D01*
X117648607Y-26485382D01*
X117508918Y-26303338D01*
X117508911Y-26303330D01*
X117346670Y-26141089D01*
X117346661Y-26141081D01*
X117164617Y-26001392D01*
X116965890Y-25886657D01*
X116965876Y-25886650D01*
X116753887Y-25798842D01*
X116532238Y-25739452D01*
X116494215Y-25734446D01*
X116304741Y-25709500D01*
X116304734Y-25709500D01*
X116075266Y-25709500D01*
X116075258Y-25709500D01*
X115858715Y-25738009D01*
X115847762Y-25739452D01*
X115754076Y-25764554D01*
X115626112Y-25798842D01*
X115414123Y-25886650D01*
X115414109Y-25886657D01*
X115215382Y-26001392D01*
X115033338Y-26141081D01*
X114871081Y-26303338D01*
X114731392Y-26485382D01*
X114616657Y-26684109D01*
X114616650Y-26684123D01*
X114528842Y-26896112D01*
X114469453Y-27117759D01*
X114469451Y-27117770D01*
X114439500Y-27345258D01*
X114439500Y-27574741D01*
X114463312Y-27755600D01*
X114469452Y-27802238D01*
X114517815Y-27982734D01*
X114528842Y-28023887D01*
X114616650Y-28235876D01*
X114616657Y-28235890D01*
X114731392Y-28434617D01*
X114871081Y-28616661D01*
X114871089Y-28616670D01*
X114941338Y-28686919D01*
X114974823Y-28748242D01*
X114969839Y-28817934D01*
X114927967Y-28873867D01*
X114862503Y-28898284D01*
X114853657Y-28898600D01*
X114833313Y-28898600D01*
X114662086Y-28925720D01*
X114497211Y-28979290D01*
X114497208Y-28979291D01*
X114342739Y-29057998D01*
X114311405Y-29080764D01*
X114202486Y-29159899D01*
X114202484Y-29159901D01*
X114202483Y-29159901D01*
X114079901Y-29282483D01*
X114079901Y-29282484D01*
X114079899Y-29282486D01*
X114049231Y-29324697D01*
X113977998Y-29422739D01*
X113899291Y-29577208D01*
X113899290Y-29577211D01*
X113845720Y-29742086D01*
X113818600Y-29913312D01*
X106181400Y-29913312D01*
X106165622Y-29813702D01*
X106154280Y-29742088D01*
X106100708Y-29577209D01*
X106100708Y-29577208D01*
X106022001Y-29422739D01*
X105920101Y-29282486D01*
X105797514Y-29159899D01*
X105657260Y-29057998D01*
X105608874Y-29033344D01*
X105502791Y-28979291D01*
X105502788Y-28979290D01*
X105337913Y-28925720D01*
X105166687Y-28898600D01*
X105166682Y-28898600D01*
X104993318Y-28898600D01*
X104993313Y-28898600D01*
X104822086Y-28925720D01*
X104657211Y-28979290D01*
X104657208Y-28979291D01*
X104502739Y-29057998D01*
X104471405Y-29080764D01*
X104362486Y-29159899D01*
X104362484Y-29159901D01*
X104362483Y-29159901D01*
X104239901Y-29282483D01*
X104239901Y-29282484D01*
X104239899Y-29282486D01*
X104209231Y-29324697D01*
X104137998Y-29422739D01*
X104059291Y-29577208D01*
X104059290Y-29577211D01*
X104005720Y-29742086D01*
X103978600Y-29913312D01*
X102244400Y-29913312D01*
X102244400Y-29852894D01*
X102205998Y-29561200D01*
X102129850Y-29277013D01*
X102102300Y-29210500D01*
X102017265Y-29005205D01*
X102017257Y-29005189D01*
X101870159Y-28750410D01*
X101870155Y-28750403D01*
X101691050Y-28516989D01*
X101691045Y-28516983D01*
X101483016Y-28308954D01*
X101483009Y-28308948D01*
X101249605Y-28129851D01*
X101249603Y-28129849D01*
X101249597Y-28129845D01*
X101249592Y-28129842D01*
X101249589Y-28129840D01*
X100994810Y-27982742D01*
X100994794Y-27982734D01*
X100722994Y-27870152D01*
X100469544Y-27802240D01*
X100438800Y-27794002D01*
X100438799Y-27794001D01*
X100438796Y-27794001D01*
X100147116Y-27755601D01*
X100147111Y-27755600D01*
X100147106Y-27755600D01*
X99852894Y-27755600D01*
X99852888Y-27755600D01*
X99852883Y-27755601D01*
X99561203Y-27794001D01*
X99277005Y-27870152D01*
X99005205Y-27982734D01*
X99005189Y-27982742D01*
X98750410Y-28129840D01*
X98750394Y-28129851D01*
X98516990Y-28308948D01*
X98516983Y-28308954D01*
X98308954Y-28516983D01*
X98308948Y-28516990D01*
X98129851Y-28750394D01*
X98129840Y-28750410D01*
X97982742Y-29005189D01*
X97982734Y-29005205D01*
X97870152Y-29277005D01*
X97794001Y-29561203D01*
X97755601Y-29852883D01*
X97755600Y-29852900D01*
X96011831Y-29852900D01*
X96004019Y-29803579D01*
X95994280Y-29742088D01*
X95940708Y-29577209D01*
X95940708Y-29577208D01*
X95862001Y-29422738D01*
X95838580Y-29390503D01*
X95815099Y-29324697D01*
X95830924Y-29256642D01*
X95881029Y-29207947D01*
X95949507Y-29194071D01*
X95955068Y-29194675D01*
X96075266Y-29210500D01*
X96075273Y-29210500D01*
X96304727Y-29210500D01*
X96304734Y-29210500D01*
X96532238Y-29180548D01*
X96753887Y-29121158D01*
X96965888Y-29033344D01*
X97164612Y-28918611D01*
X97346661Y-28778919D01*
X97346665Y-28778914D01*
X97346670Y-28778911D01*
X97508911Y-28616670D01*
X97508914Y-28616665D01*
X97508919Y-28616661D01*
X97648611Y-28434612D01*
X97763344Y-28235888D01*
X97851158Y-28023887D01*
X97910548Y-27802238D01*
X97940500Y-27574734D01*
X97940500Y-27345266D01*
X97910548Y-27117762D01*
X97851158Y-26896113D01*
X97763344Y-26684112D01*
X97648611Y-26485388D01*
X97648608Y-26485385D01*
X97648607Y-26485382D01*
X97508918Y-26303338D01*
X97508911Y-26303330D01*
X97346670Y-26141089D01*
X97346661Y-26141081D01*
X97164617Y-26001392D01*
X96965890Y-25886657D01*
X96965876Y-25886650D01*
X96753887Y-25798842D01*
X96532238Y-25739452D01*
X96494215Y-25734446D01*
X96304741Y-25709500D01*
X96304734Y-25709500D01*
X96075266Y-25709500D01*
X96075258Y-25709500D01*
X95858715Y-25738009D01*
X95847762Y-25739452D01*
X95754076Y-25764554D01*
X95626112Y-25798842D01*
X95414123Y-25886650D01*
X95414109Y-25886657D01*
X95215382Y-26001392D01*
X95033338Y-26141081D01*
X94871081Y-26303338D01*
X94731392Y-26485382D01*
X94616657Y-26684109D01*
X94616650Y-26684123D01*
X94528842Y-26896112D01*
X94469453Y-27117759D01*
X94469451Y-27117770D01*
X94439500Y-27345258D01*
X94439500Y-27574741D01*
X94463312Y-27755600D01*
X94469452Y-27802238D01*
X94517815Y-27982734D01*
X94528842Y-28023887D01*
X94616650Y-28235876D01*
X94616657Y-28235890D01*
X94731392Y-28434617D01*
X94871081Y-28616661D01*
X94871089Y-28616670D01*
X94941338Y-28686919D01*
X94974823Y-28748242D01*
X94969839Y-28817934D01*
X94927967Y-28873867D01*
X94862503Y-28898284D01*
X94853657Y-28898600D01*
X94833313Y-28898600D01*
X94662086Y-28925720D01*
X94497211Y-28979290D01*
X94497208Y-28979291D01*
X94342739Y-29057998D01*
X94311405Y-29080764D01*
X94202486Y-29159899D01*
X94202484Y-29159901D01*
X94202483Y-29159901D01*
X94079901Y-29282483D01*
X94079901Y-29282484D01*
X94079899Y-29282486D01*
X94049231Y-29324697D01*
X93977998Y-29422739D01*
X93899291Y-29577208D01*
X93899290Y-29577211D01*
X93845720Y-29742086D01*
X93818600Y-29913312D01*
X86181400Y-29913312D01*
X86165622Y-29813702D01*
X86154280Y-29742088D01*
X86100708Y-29577209D01*
X86100708Y-29577208D01*
X86022001Y-29422739D01*
X85920101Y-29282486D01*
X85797514Y-29159899D01*
X85657260Y-29057998D01*
X85608874Y-29033344D01*
X85502791Y-28979291D01*
X85502788Y-28979290D01*
X85337913Y-28925720D01*
X85166687Y-28898600D01*
X85166682Y-28898600D01*
X84993318Y-28898600D01*
X84993313Y-28898600D01*
X84822086Y-28925720D01*
X84657211Y-28979290D01*
X84657208Y-28979291D01*
X84502739Y-29057998D01*
X84471405Y-29080764D01*
X84362486Y-29159899D01*
X84362484Y-29159901D01*
X84362483Y-29159901D01*
X84239901Y-29282483D01*
X84239901Y-29282484D01*
X84239899Y-29282486D01*
X84209231Y-29324697D01*
X84137998Y-29422739D01*
X84059291Y-29577208D01*
X84059290Y-29577211D01*
X84005720Y-29742086D01*
X83978600Y-29913312D01*
X82244400Y-29913312D01*
X82244400Y-29852894D01*
X82205998Y-29561200D01*
X82129850Y-29277013D01*
X82102300Y-29210500D01*
X82017265Y-29005205D01*
X82017257Y-29005189D01*
X81870159Y-28750410D01*
X81870155Y-28750403D01*
X81691050Y-28516989D01*
X81691045Y-28516983D01*
X81483016Y-28308954D01*
X81483009Y-28308948D01*
X81249605Y-28129851D01*
X81249603Y-28129849D01*
X81249597Y-28129845D01*
X81249592Y-28129842D01*
X81249589Y-28129840D01*
X80994810Y-27982742D01*
X80994794Y-27982734D01*
X80722994Y-27870152D01*
X80469544Y-27802240D01*
X80438800Y-27794002D01*
X80438799Y-27794001D01*
X80438796Y-27794001D01*
X80147116Y-27755601D01*
X80147111Y-27755600D01*
X80147106Y-27755600D01*
X79852894Y-27755600D01*
X79852888Y-27755600D01*
X79852883Y-27755601D01*
X79561203Y-27794001D01*
X79277005Y-27870152D01*
X79005205Y-27982734D01*
X79005189Y-27982742D01*
X78750410Y-28129840D01*
X78750394Y-28129851D01*
X78516990Y-28308948D01*
X78516983Y-28308954D01*
X78308954Y-28516983D01*
X78308948Y-28516990D01*
X78129851Y-28750394D01*
X78129840Y-28750410D01*
X77982742Y-29005189D01*
X77982734Y-29005205D01*
X77870152Y-29277005D01*
X77794001Y-29561203D01*
X77755601Y-29852883D01*
X77755600Y-29852900D01*
X76011831Y-29852900D01*
X76004019Y-29803579D01*
X75994280Y-29742088D01*
X75940708Y-29577209D01*
X75940708Y-29577208D01*
X75862001Y-29422738D01*
X75838580Y-29390503D01*
X75815099Y-29324697D01*
X75830924Y-29256642D01*
X75881029Y-29207947D01*
X75949507Y-29194071D01*
X75955068Y-29194675D01*
X76075266Y-29210500D01*
X76075273Y-29210500D01*
X76304727Y-29210500D01*
X76304734Y-29210500D01*
X76532238Y-29180548D01*
X76753887Y-29121158D01*
X76965888Y-29033344D01*
X77164612Y-28918611D01*
X77346661Y-28778919D01*
X77346665Y-28778914D01*
X77346670Y-28778911D01*
X77508911Y-28616670D01*
X77508914Y-28616665D01*
X77508919Y-28616661D01*
X77648611Y-28434612D01*
X77763344Y-28235888D01*
X77851158Y-28023887D01*
X77910548Y-27802238D01*
X77940500Y-27574734D01*
X77940500Y-27345266D01*
X77910548Y-27117762D01*
X77851158Y-26896113D01*
X77763344Y-26684112D01*
X77648611Y-26485388D01*
X77648608Y-26485385D01*
X77648607Y-26485382D01*
X77508918Y-26303338D01*
X77508911Y-26303330D01*
X77346670Y-26141089D01*
X77346661Y-26141081D01*
X77164617Y-26001392D01*
X76965890Y-25886657D01*
X76965876Y-25886650D01*
X76753887Y-25798842D01*
X76532238Y-25739452D01*
X76494215Y-25734446D01*
X76304741Y-25709500D01*
X76304734Y-25709500D01*
X76075266Y-25709500D01*
X76075258Y-25709500D01*
X75858715Y-25738009D01*
X75847762Y-25739452D01*
X75754076Y-25764554D01*
X75626112Y-25798842D01*
X75414123Y-25886650D01*
X75414109Y-25886657D01*
X75215382Y-26001392D01*
X75033338Y-26141081D01*
X74871081Y-26303338D01*
X74731392Y-26485382D01*
X74616657Y-26684109D01*
X74616650Y-26684123D01*
X74528842Y-26896112D01*
X74469453Y-27117759D01*
X74469451Y-27117770D01*
X74439500Y-27345258D01*
X74439500Y-27574741D01*
X74463312Y-27755600D01*
X74469452Y-27802238D01*
X74517815Y-27982734D01*
X74528842Y-28023887D01*
X74616650Y-28235876D01*
X74616657Y-28235890D01*
X74731392Y-28434617D01*
X74871081Y-28616661D01*
X74871089Y-28616670D01*
X74941338Y-28686919D01*
X74974823Y-28748242D01*
X74969839Y-28817934D01*
X74927967Y-28873867D01*
X74862503Y-28898284D01*
X74853657Y-28898600D01*
X74833313Y-28898600D01*
X74662086Y-28925720D01*
X74497211Y-28979290D01*
X74497208Y-28979291D01*
X74342739Y-29057998D01*
X74311405Y-29080764D01*
X74202486Y-29159899D01*
X74202484Y-29159901D01*
X74202483Y-29159901D01*
X74079901Y-29282483D01*
X74079901Y-29282484D01*
X74079899Y-29282486D01*
X74049231Y-29324697D01*
X73977998Y-29422739D01*
X73899291Y-29577208D01*
X73899290Y-29577211D01*
X73845720Y-29742086D01*
X73818600Y-29913312D01*
X69750500Y-29913312D01*
X69750500Y-24805258D01*
X80789500Y-24805258D01*
X80789500Y-25034741D01*
X80814446Y-25224215D01*
X80819452Y-25262238D01*
X80819453Y-25262240D01*
X80878842Y-25483887D01*
X80966650Y-25695876D01*
X80966657Y-25695890D01*
X81081392Y-25894617D01*
X81221081Y-26076661D01*
X81221089Y-26076670D01*
X81383330Y-26238911D01*
X81383338Y-26238918D01*
X81565382Y-26378607D01*
X81565385Y-26378608D01*
X81565388Y-26378611D01*
X81764112Y-26493344D01*
X81764117Y-26493346D01*
X81764123Y-26493349D01*
X81855480Y-26531190D01*
X81976113Y-26581158D01*
X82197762Y-26640548D01*
X82425266Y-26670500D01*
X82425273Y-26670500D01*
X82654727Y-26670500D01*
X82654734Y-26670500D01*
X82882238Y-26640548D01*
X83103887Y-26581158D01*
X83315888Y-26493344D01*
X83514612Y-26378611D01*
X83696661Y-26238919D01*
X83696665Y-26238914D01*
X83696670Y-26238911D01*
X83858911Y-26076670D01*
X83858914Y-26076665D01*
X83858919Y-26076661D01*
X83998611Y-25894612D01*
X84113344Y-25695888D01*
X84201158Y-25483887D01*
X84260548Y-25262238D01*
X84290500Y-25034734D01*
X84290500Y-24805266D01*
X84290499Y-24805258D01*
X100789500Y-24805258D01*
X100789500Y-25034741D01*
X100814446Y-25224215D01*
X100819452Y-25262238D01*
X100819453Y-25262240D01*
X100878842Y-25483887D01*
X100966650Y-25695876D01*
X100966657Y-25695890D01*
X101081392Y-25894617D01*
X101221081Y-26076661D01*
X101221089Y-26076670D01*
X101383330Y-26238911D01*
X101383338Y-26238918D01*
X101565382Y-26378607D01*
X101565385Y-26378608D01*
X101565388Y-26378611D01*
X101764112Y-26493344D01*
X101764117Y-26493346D01*
X101764123Y-26493349D01*
X101855480Y-26531190D01*
X101976113Y-26581158D01*
X102197762Y-26640548D01*
X102425266Y-26670500D01*
X102425273Y-26670500D01*
X102654727Y-26670500D01*
X102654734Y-26670500D01*
X102882238Y-26640548D01*
X103103887Y-26581158D01*
X103315888Y-26493344D01*
X103514612Y-26378611D01*
X103696661Y-26238919D01*
X103696665Y-26238914D01*
X103696670Y-26238911D01*
X103858911Y-26076670D01*
X103858914Y-26076665D01*
X103858919Y-26076661D01*
X103998611Y-25894612D01*
X104113344Y-25695888D01*
X104201158Y-25483887D01*
X104260548Y-25262238D01*
X104290500Y-25034734D01*
X104290500Y-24805266D01*
X104290499Y-24805258D01*
X120789500Y-24805258D01*
X120789500Y-25034741D01*
X120814446Y-25224215D01*
X120819452Y-25262238D01*
X120819453Y-25262240D01*
X120878842Y-25483887D01*
X120966650Y-25695876D01*
X120966657Y-25695890D01*
X121081392Y-25894617D01*
X121221081Y-26076661D01*
X121221089Y-26076670D01*
X121383330Y-26238911D01*
X121383338Y-26238918D01*
X121565382Y-26378607D01*
X121565385Y-26378608D01*
X121565388Y-26378611D01*
X121764112Y-26493344D01*
X121764117Y-26493346D01*
X121764123Y-26493349D01*
X121855480Y-26531190D01*
X121976113Y-26581158D01*
X122197762Y-26640548D01*
X122425266Y-26670500D01*
X122425273Y-26670500D01*
X122654727Y-26670500D01*
X122654734Y-26670500D01*
X122882238Y-26640548D01*
X123103887Y-26581158D01*
X123315888Y-26493344D01*
X123514612Y-26378611D01*
X123696661Y-26238919D01*
X123696665Y-26238914D01*
X123696670Y-26238911D01*
X123858911Y-26076670D01*
X123858914Y-26076665D01*
X123858919Y-26076661D01*
X123998611Y-25894612D01*
X124113344Y-25695888D01*
X124201158Y-25483887D01*
X124260548Y-25262238D01*
X124290500Y-25034734D01*
X124290500Y-24805266D01*
X124290499Y-24805258D01*
X140789500Y-24805258D01*
X140789500Y-25034741D01*
X140814446Y-25224215D01*
X140819452Y-25262238D01*
X140819453Y-25262240D01*
X140878842Y-25483887D01*
X140966650Y-25695876D01*
X140966657Y-25695890D01*
X141081392Y-25894617D01*
X141221081Y-26076661D01*
X141221089Y-26076670D01*
X141383330Y-26238911D01*
X141383338Y-26238918D01*
X141565382Y-26378607D01*
X141565385Y-26378608D01*
X141565388Y-26378611D01*
X141764112Y-26493344D01*
X141764117Y-26493346D01*
X141764123Y-26493349D01*
X141855480Y-26531190D01*
X141976113Y-26581158D01*
X142197762Y-26640548D01*
X142425266Y-26670500D01*
X142425273Y-26670500D01*
X142654727Y-26670500D01*
X142654734Y-26670500D01*
X142882238Y-26640548D01*
X143103887Y-26581158D01*
X143315888Y-26493344D01*
X143514612Y-26378611D01*
X143696661Y-26238919D01*
X143696665Y-26238914D01*
X143696670Y-26238911D01*
X143858911Y-26076670D01*
X143858914Y-26076665D01*
X143858919Y-26076661D01*
X143998611Y-25894612D01*
X144113344Y-25695888D01*
X144201158Y-25483887D01*
X144260548Y-25262238D01*
X144290500Y-25034734D01*
X144290500Y-24805266D01*
X144260548Y-24577762D01*
X144201158Y-24356113D01*
X144113344Y-24144112D01*
X143998611Y-23945388D01*
X143998608Y-23945385D01*
X143998607Y-23945382D01*
X143858918Y-23763338D01*
X143858911Y-23763330D01*
X143696670Y-23601089D01*
X143696661Y-23601081D01*
X143514617Y-23461392D01*
X143315890Y-23346657D01*
X143315876Y-23346650D01*
X143103887Y-23258842D01*
X142882238Y-23199452D01*
X142844215Y-23194446D01*
X142654741Y-23169500D01*
X142654734Y-23169500D01*
X142425266Y-23169500D01*
X142425258Y-23169500D01*
X142208715Y-23198009D01*
X142197762Y-23199452D01*
X142104076Y-23224554D01*
X141976112Y-23258842D01*
X141764123Y-23346650D01*
X141764109Y-23346657D01*
X141565382Y-23461392D01*
X141383338Y-23601081D01*
X141221081Y-23763338D01*
X141081392Y-23945382D01*
X140966657Y-24144109D01*
X140966650Y-24144123D01*
X140878842Y-24356112D01*
X140819453Y-24577759D01*
X140819451Y-24577770D01*
X140789500Y-24805258D01*
X124290499Y-24805258D01*
X124260548Y-24577762D01*
X124201158Y-24356113D01*
X124113344Y-24144112D01*
X123998611Y-23945388D01*
X123998608Y-23945385D01*
X123998607Y-23945382D01*
X123858918Y-23763338D01*
X123858911Y-23763330D01*
X123696670Y-23601089D01*
X123696661Y-23601081D01*
X123514617Y-23461392D01*
X123315890Y-23346657D01*
X123315876Y-23346650D01*
X123103887Y-23258842D01*
X122882238Y-23199452D01*
X122844215Y-23194446D01*
X122654741Y-23169500D01*
X122654734Y-23169500D01*
X122425266Y-23169500D01*
X122425258Y-23169500D01*
X122208715Y-23198009D01*
X122197762Y-23199452D01*
X122104076Y-23224554D01*
X121976112Y-23258842D01*
X121764123Y-23346650D01*
X121764109Y-23346657D01*
X121565382Y-23461392D01*
X121383338Y-23601081D01*
X121221081Y-23763338D01*
X121081392Y-23945382D01*
X120966657Y-24144109D01*
X120966650Y-24144123D01*
X120878842Y-24356112D01*
X120819453Y-24577759D01*
X120819451Y-24577770D01*
X120789500Y-24805258D01*
X104290499Y-24805258D01*
X104260548Y-24577762D01*
X104201158Y-24356113D01*
X104113344Y-24144112D01*
X103998611Y-23945388D01*
X103998608Y-23945385D01*
X103998607Y-23945382D01*
X103858918Y-23763338D01*
X103858911Y-23763330D01*
X103696670Y-23601089D01*
X103696661Y-23601081D01*
X103514617Y-23461392D01*
X103315890Y-23346657D01*
X103315876Y-23346650D01*
X103103887Y-23258842D01*
X102882238Y-23199452D01*
X102844215Y-23194446D01*
X102654741Y-23169500D01*
X102654734Y-23169500D01*
X102425266Y-23169500D01*
X102425258Y-23169500D01*
X102208715Y-23198009D01*
X102197762Y-23199452D01*
X102104076Y-23224554D01*
X101976112Y-23258842D01*
X101764123Y-23346650D01*
X101764109Y-23346657D01*
X101565382Y-23461392D01*
X101383338Y-23601081D01*
X101221081Y-23763338D01*
X101081392Y-23945382D01*
X100966657Y-24144109D01*
X100966650Y-24144123D01*
X100878842Y-24356112D01*
X100819453Y-24577759D01*
X100819451Y-24577770D01*
X100789500Y-24805258D01*
X84290499Y-24805258D01*
X84260548Y-24577762D01*
X84201158Y-24356113D01*
X84113344Y-24144112D01*
X83998611Y-23945388D01*
X83998608Y-23945385D01*
X83998607Y-23945382D01*
X83858918Y-23763338D01*
X83858911Y-23763330D01*
X83696670Y-23601089D01*
X83696661Y-23601081D01*
X83514617Y-23461392D01*
X83315890Y-23346657D01*
X83315876Y-23346650D01*
X83103887Y-23258842D01*
X82882238Y-23199452D01*
X82844215Y-23194446D01*
X82654741Y-23169500D01*
X82654734Y-23169500D01*
X82425266Y-23169500D01*
X82425258Y-23169500D01*
X82208715Y-23198009D01*
X82197762Y-23199452D01*
X82104076Y-23224554D01*
X81976112Y-23258842D01*
X81764123Y-23346650D01*
X81764109Y-23346657D01*
X81565382Y-23461392D01*
X81383338Y-23601081D01*
X81221081Y-23763338D01*
X81081392Y-23945382D01*
X80966657Y-24144109D01*
X80966650Y-24144123D01*
X80878842Y-24356112D01*
X80819453Y-24577759D01*
X80819451Y-24577770D01*
X80789500Y-24805258D01*
X69750500Y-24805258D01*
X69750500Y-21897648D01*
X70199500Y-21897648D01*
X70199500Y-22102351D01*
X70231522Y-22304534D01*
X70294781Y-22499223D01*
X70387715Y-22681613D01*
X70508028Y-22847213D01*
X70652786Y-22991971D01*
X70807749Y-23104556D01*
X70818390Y-23112287D01*
X70930677Y-23169500D01*
X71000776Y-23205218D01*
X71000778Y-23205218D01*
X71000781Y-23205220D01*
X71105137Y-23239127D01*
X71195465Y-23268477D01*
X71296557Y-23284488D01*
X71397648Y-23300500D01*
X71397649Y-23300500D01*
X71602351Y-23300500D01*
X71602352Y-23300500D01*
X71804534Y-23268477D01*
X71999219Y-23205220D01*
X72181610Y-23112287D01*
X72274590Y-23044732D01*
X72347213Y-22991971D01*
X72347215Y-22991968D01*
X72347219Y-22991966D01*
X72491966Y-22847219D01*
X72491968Y-22847215D01*
X72491971Y-22847213D01*
X72544732Y-22774590D01*
X72612287Y-22681610D01*
X72705220Y-22499219D01*
X72768477Y-22304534D01*
X72800500Y-22102352D01*
X72800500Y-21897648D01*
X128699500Y-21897648D01*
X128699500Y-22102351D01*
X128731522Y-22304534D01*
X128794781Y-22499223D01*
X128887715Y-22681613D01*
X129008028Y-22847213D01*
X129152786Y-22991971D01*
X129307749Y-23104556D01*
X129318390Y-23112287D01*
X129430677Y-23169500D01*
X129500776Y-23205218D01*
X129500778Y-23205218D01*
X129500781Y-23205220D01*
X129605137Y-23239127D01*
X129695465Y-23268477D01*
X129796557Y-23284488D01*
X129897648Y-23300500D01*
X129897649Y-23300500D01*
X130102351Y-23300500D01*
X130102352Y-23300500D01*
X130304534Y-23268477D01*
X130499219Y-23205220D01*
X130681610Y-23112287D01*
X130774590Y-23044732D01*
X130847213Y-22991971D01*
X130847215Y-22991968D01*
X130847219Y-22991966D01*
X130991966Y-22847219D01*
X130991968Y-22847215D01*
X130991971Y-22847213D01*
X131044732Y-22774590D01*
X131112287Y-22681610D01*
X131205220Y-22499219D01*
X131268477Y-22304534D01*
X131300500Y-22102352D01*
X131300500Y-21897648D01*
X131277816Y-21754427D01*
X131268477Y-21695465D01*
X131237051Y-21598748D01*
X131205220Y-21500781D01*
X131205218Y-21500778D01*
X131205218Y-21500776D01*
X131171503Y-21434607D01*
X131112287Y-21318390D01*
X131097799Y-21298449D01*
X130991971Y-21152786D01*
X130847213Y-21008028D01*
X130681613Y-20887715D01*
X130681612Y-20887714D01*
X130681610Y-20887713D01*
X130624653Y-20858691D01*
X130499223Y-20794781D01*
X130304534Y-20731522D01*
X130129995Y-20703878D01*
X130102352Y-20699500D01*
X129897648Y-20699500D01*
X129873329Y-20703351D01*
X129695465Y-20731522D01*
X129500776Y-20794781D01*
X129318386Y-20887715D01*
X129152786Y-21008028D01*
X129008028Y-21152786D01*
X128887715Y-21318386D01*
X128794781Y-21500776D01*
X128731522Y-21695465D01*
X128699500Y-21897648D01*
X72800500Y-21897648D01*
X72777816Y-21754427D01*
X72768477Y-21695465D01*
X72737051Y-21598748D01*
X72705220Y-21500781D01*
X72705218Y-21500778D01*
X72705218Y-21500776D01*
X72671503Y-21434607D01*
X72612287Y-21318390D01*
X72597799Y-21298449D01*
X72491971Y-21152786D01*
X72347213Y-21008028D01*
X72181613Y-20887715D01*
X72181612Y-20887714D01*
X72181610Y-20887713D01*
X72124653Y-20858691D01*
X71999223Y-20794781D01*
X71804534Y-20731522D01*
X71629995Y-20703878D01*
X71602352Y-20699500D01*
X71397648Y-20699500D01*
X71373329Y-20703351D01*
X71195465Y-20731522D01*
X71000776Y-20794781D01*
X70818386Y-20887715D01*
X70652786Y-21008028D01*
X70508028Y-21152786D01*
X70387715Y-21318386D01*
X70294781Y-21500776D01*
X70231522Y-21695465D01*
X70199500Y-21897648D01*
X69750500Y-21897648D01*
X69750500Y-21754427D01*
X69750816Y-21745581D01*
X69765130Y-21545443D01*
X69765131Y-21545442D01*
X69765130Y-21545436D01*
X69767646Y-21527938D01*
X69809356Y-21336199D01*
X69814333Y-21319248D01*
X69882911Y-21135385D01*
X69890259Y-21119298D01*
X69951013Y-21008034D01*
X69984291Y-20947089D01*
X69993845Y-20932221D01*
X70111448Y-20775123D01*
X70123020Y-20761769D01*
X70261769Y-20623020D01*
X70275123Y-20611448D01*
X70432221Y-20493845D01*
X70447089Y-20484291D01*
X70619298Y-20390258D01*
X70635385Y-20382911D01*
X70819248Y-20314333D01*
X70836199Y-20309356D01*
X71027938Y-20267646D01*
X71045436Y-20265130D01*
X71245582Y-20250816D01*
X71254428Y-20250500D01*
X71315892Y-20250500D01*
X148434108Y-20250500D01*
X148495572Y-20250500D01*
X148504418Y-20250816D01*
G37*
%TD.AperFunction*%
%TD*%
M02*
